<svg width="24" height="24" viewBox="0 0 24 24" fill="none" xmlns="http://www.w3.org/2000/svg">
<path d="M21.9413 7.5955C22.0312 7.68331 21.9911 7.79418 21.9911 7.89425C21.9931 12.4255 21.9936 16.9572 21.9926 21.4884C21.9921 22.9959 20.9547 23.9986 19.3967 23.9991C14.4578 24.0001 9.51897 24.0005 4.58063 23.9991C3.04339 23.9986 2.00096 22.99 2.00096 21.5012C1.99944 15.1706 1.99995 8.84003 2.00096 2.50946C2.00045 1.00298 3.03933 0.00175836 4.59891 0.000777259C7.82222 -0.000694397 11.046 0.000286707 14.2694 0.000777259C14.3577 0.000777259 14.4466 0.00519223 14.535 0.00764499C14.5386 0.131264 14.5452 0.254883 14.5452 0.378012C14.5457 2.2426 14.5462 4.10719 14.5457 5.97227C14.5452 6.95877 15.3082 7.58618 16.0017 7.59403C17.9814 7.61611 19.9616 7.59796 21.9413 7.5955Z" fill="#33AF56"/>
<path d="M21.9414 7.59549C19.9617 7.59794 17.9815 7.61609 16.0018 7.59402C15.3089 7.58617 14.5453 6.95875 14.5458 5.97225C14.5463 4.10766 14.5463 2.24307 14.5453 0.377996C14.5453 0.254377 14.5387 0.130758 14.5352 0.00762939C15.0752 0.424599 15.4897 0.960281 15.9733 1.43072C16.584 2.02429 17.1621 2.64827 17.7559 3.25754C19.093 4.62765 20.4316 5.99629 21.7677 7.36689C21.8347 7.43508 21.884 7.51896 21.9414 7.59549Z" fill="#4DCB71"/>
<path d="M15.2651 13.6364L16.3198 16.9517H16.3603L17.4171 13.6364H18.4398L16.9355 18H15.7466L14.2402 13.6364H15.2651Z" fill="white"/>
<path d="M12.792 14.8914C12.7749 14.7195 12.7018 14.586 12.5725 14.4908C12.4433 14.3956 12.2678 14.348 12.0463 14.348C11.8957 14.348 11.7686 14.3693 11.6649 14.4119C11.5612 14.4531 11.4816 14.5107 11.4262 14.5845C11.3722 14.6584 11.3453 14.7422 11.3453 14.836C11.3424 14.9141 11.3588 14.9823 11.3943 15.0405C11.4312 15.0987 11.4816 15.1492 11.5455 15.1918C11.6095 15.233 11.6833 15.2692 11.7671 15.3004C11.8509 15.3303 11.9404 15.3558 12.0356 15.3771L12.4276 15.4709C12.618 15.5135 12.7927 15.5703 12.9518 15.6414C13.1109 15.7124 13.2487 15.7997 13.3651 15.9034C13.4816 16.0071 13.5718 16.1293 13.6357 16.2699C13.7011 16.4105 13.7345 16.5717 13.7359 16.7536C13.7345 17.0206 13.6663 17.2521 13.5313 17.4482C13.3978 17.6428 13.2046 17.7941 12.9518 17.902C12.7004 18.0085 12.3971 18.0618 12.042 18.0618C11.6897 18.0618 11.3829 18.0078 11.1215 17.8999C10.8616 17.7919 10.6585 17.6321 10.5122 17.4205C10.3673 17.2074 10.2913 16.9439 10.2842 16.63H11.1769C11.1869 16.7763 11.2288 16.8985 11.3026 16.9965C11.3779 17.0931 11.4781 17.1662 11.6031 17.2159C11.7295 17.2642 11.8722 17.2884 12.0313 17.2884C12.1876 17.2884 12.3232 17.2656 12.4383 17.2202C12.5548 17.1747 12.645 17.1115 12.7089 17.0306C12.7728 16.9496 12.8048 16.8566 12.8048 16.7514C12.8048 16.6534 12.7757 16.571 12.7174 16.5043C12.6606 16.4375 12.5768 16.3807 12.466 16.3338C12.3566 16.2869 12.2224 16.2443 12.0633 16.206L11.5882 16.0867C11.2203 15.9972 10.9298 15.8573 10.7167 15.6669C10.5036 15.4766 10.3978 15.2202 10.3992 14.8977C10.3978 14.6335 10.4681 14.4027 10.6102 14.2053C10.7536 14.0078 10.9504 13.8537 11.2004 13.7429C11.4504 13.6321 11.7345 13.5767 12.0526 13.5767C12.3765 13.5767 12.6592 13.6321 12.9007 13.7429C13.1436 13.8537 13.3325 14.0078 13.4674 14.2053C13.6024 14.4027 13.672 14.6314 13.6762 14.8914H12.792Z" fill="white"/>
<path d="M9.64364 15.1641H8.71041C8.69336 15.0433 8.65856 14.9361 8.606 14.8423C8.55344 14.7472 8.48597 14.6662 8.40359 14.5994C8.3212 14.5327 8.22603 14.4816 8.11808 14.446C8.01154 14.4105 7.89577 14.3928 7.77077 14.3928C7.54492 14.3928 7.34819 14.4489 7.18058 14.5611C7.01296 14.6719 6.88299 14.8338 6.79066 15.0469C6.69833 15.2585 6.65217 15.5156 6.65217 15.8182C6.65217 16.1293 6.69833 16.3906 6.79066 16.6023C6.88441 16.8139 7.01509 16.9737 7.18271 17.0817C7.35032 17.1896 7.54421 17.2436 7.76438 17.2436C7.88796 17.2436 8.00231 17.2273 8.10742 17.1946C8.21396 17.1619 8.30842 17.1144 8.3908 17.0519C8.47319 16.9879 8.54137 16.9105 8.59535 16.8196C8.65075 16.7287 8.6891 16.625 8.71041 16.5085L9.64364 16.5128C9.6195 16.7131 9.55913 16.9063 9.46254 17.0923C9.36737 17.277 9.23881 17.4425 9.07688 17.5888C8.91637 17.7337 8.72461 17.8487 8.5016 17.934C8.28001 18.0178 8.0293 18.0597 7.74947 18.0597C7.36026 18.0597 7.01225 17.9716 6.70543 17.7955C6.40004 17.6193 6.15856 17.3644 5.981 17.0306C5.80487 16.6967 5.7168 16.2926 5.7168 15.8182C5.7168 15.3423 5.80629 14.9375 5.98526 14.6037C6.16424 14.2699 6.40714 14.0156 6.71396 13.8409C7.02077 13.6648 7.36594 13.5767 7.74947 13.5767C8.00231 13.5767 8.23668 13.6122 8.45259 13.6833C8.66992 13.7543 8.86239 13.858 9.03001 13.9943C9.19762 14.1293 9.33398 14.2948 9.4391 14.4908C9.54563 14.6868 9.61381 14.9112 9.64364 15.1641Z" fill="white"/>
</svg>
