<svg width="24" height="24" viewBox="0 0 24 24" fill="none" xmlns="http://www.w3.org/2000/svg">
<path d="M21.9413 7.5955C22.0312 7.68331 21.9911 7.79418 21.9911 7.89425C21.9931 12.4255 21.9936 16.9572 21.9926 21.4884C21.9921 22.9959 20.9547 23.9986 19.3967 23.9991C14.4578 24.0001 9.51897 24.0005 4.58063 23.9991C3.04339 23.9986 2.00096 22.99 2.00096 21.5012C1.99944 15.1706 1.99995 8.84003 2.00096 2.50946C2.00045 1.00298 3.03933 0.00175836 4.59891 0.000777259C7.82222 -0.000694397 11.046 0.000286707 14.2694 0.000777259C14.3577 0.000777259 14.4466 0.00519223 14.535 0.00764499C14.5386 0.131264 14.5452 0.254883 14.5452 0.378012C14.5457 2.2426 14.5462 4.10719 14.5457 5.97227C14.5452 6.95877 15.3082 7.58618 16.0017 7.59403C17.9814 7.61611 19.9616 7.59796 21.9413 7.5955Z" fill="#0082D4"/>
<path d="M21.9414 7.59549C19.9617 7.59794 17.9815 7.61609 16.0018 7.59402C15.3089 7.58617 14.5453 6.95875 14.5458 5.97225C14.5463 4.10766 14.5463 2.24307 14.5453 0.377996C14.5453 0.254377 14.5387 0.130758 14.5352 0.00762939C15.0752 0.424599 15.4897 0.960281 15.9733 1.43072C16.584 2.02429 17.1621 2.64827 17.7559 3.25754C19.093 4.62765 20.4316 5.99629 21.7677 7.36689C21.8347 7.43508 21.884 7.51896 21.9414 7.59549Z" fill="#1AA6FF"/>
<path d="M18.6222 15.1641H17.6889C17.6719 15.0433 17.6371 14.9361 17.5845 14.8423C17.532 14.7472 17.4645 14.6662 17.3821 14.5994C17.2997 14.5327 17.2045 14.4816 17.0966 14.446C16.9901 14.4105 16.8743 14.3928 16.7493 14.3928C16.5234 14.3928 16.3267 14.4489 16.1591 14.5611C15.9915 14.6719 15.8615 14.8338 15.7692 15.0469C15.6768 15.2585 15.6307 15.5156 15.6307 15.8182C15.6307 16.1293 15.6768 16.3906 15.7692 16.6023C15.8629 16.8139 15.9936 16.9737 16.1612 17.0817C16.3288 17.1896 16.5227 17.2436 16.7429 17.2436C16.8665 17.2436 16.9808 17.2273 17.0859 17.1946C17.1925 17.1619 17.2869 17.1144 17.3693 17.0519C17.4517 16.9879 17.5199 16.9105 17.5739 16.8196C17.6293 16.7287 17.6676 16.625 17.6889 16.5085L18.6222 16.5128C18.598 16.7131 18.5376 16.9063 18.4411 17.0923C18.3459 17.277 18.2173 17.4425 18.0554 17.5888C17.8949 17.7337 17.7031 17.8487 17.4801 17.934C17.2585 18.0178 17.0078 18.0597 16.728 18.0597C16.3388 18.0597 15.9908 17.9716 15.6839 17.7955C15.3786 17.6193 15.1371 17.3644 14.9595 17.0306C14.7834 16.6967 14.6953 16.2926 14.6953 15.8182C14.6953 15.3423 14.7848 14.9375 14.9638 14.6037C15.1428 14.2699 15.3857 14.0156 15.6925 13.8409C15.9993 13.6648 16.3445 13.5767 16.728 13.5767C16.9808 13.5767 17.2152 13.6122 17.4311 13.6833C17.6484 13.7543 17.8409 13.858 18.0085 13.9943C18.1761 14.1293 18.3125 14.2948 18.4176 14.4908C18.5241 14.6868 18.5923 14.9112 18.6222 15.1641Z" fill="white"/>
<path d="M13.9685 15.8182C13.9685 16.2941 13.8783 16.6989 13.6979 17.0327C13.5189 17.3665 13.2746 17.6215 12.9649 17.7976C12.6567 17.9723 12.3101 18.0597 11.9252 18.0597C11.5374 18.0597 11.1894 17.9716 10.8811 17.7955C10.5729 17.6193 10.3293 17.3644 10.1503 17.0306C9.97132 16.6967 9.88184 16.2926 9.88184 15.8182C9.88184 15.3423 9.97132 14.9375 10.1503 14.6037C10.3293 14.2699 10.5729 14.0156 10.8811 13.8409C11.1894 13.6648 11.5374 13.5767 11.9252 13.5767C12.3101 13.5767 12.6567 13.6648 12.9649 13.8409C13.2746 14.0156 13.5189 14.2699 13.6979 14.6037C13.8783 14.9375 13.9685 15.3423 13.9685 15.8182ZM13.0331 15.8182C13.0331 15.51 12.9869 15.25 12.8946 15.0384C12.8037 14.8267 12.6752 14.6662 12.509 14.5568C12.3428 14.4475 12.1482 14.3928 11.9252 14.3928C11.7021 14.3928 11.5075 14.4475 11.3414 14.5568C11.1752 14.6662 11.0459 14.8267 10.9536 15.0384C10.8627 15.25 10.8172 15.51 10.8172 15.8182C10.8172 16.1264 10.8627 16.3864 10.9536 16.598C11.0459 16.8097 11.1752 16.9702 11.3414 17.0796C11.5075 17.1889 11.7021 17.2436 11.9252 17.2436C12.1482 17.2436 12.3428 17.1889 12.509 17.0796C12.6752 16.9702 12.8037 16.8097 12.8946 16.598C12.9869 16.3864 13.0331 16.1264 13.0331 15.8182Z" fill="white"/>
<path d="M7.02051 18H5.47363V13.6364H7.03329C7.47221 13.6364 7.85005 13.7237 8.16681 13.8984C8.48358 14.0717 8.72718 14.321 8.89764 14.6463C9.06951 14.9716 9.15545 15.3608 9.15545 15.8139C9.15545 16.2685 9.06951 16.6591 8.89764 16.9858C8.72718 17.3125 8.48216 17.5632 8.16255 17.7379C7.84437 17.9126 7.46369 18 7.02051 18ZM6.39622 17.2095H6.98216C7.25488 17.2095 7.48429 17.1612 7.67037 17.0646C7.85787 16.9666 7.99849 16.8153 8.09224 16.6108C8.18741 16.4048 8.235 16.1392 8.235 15.8139C8.235 15.4915 8.18741 15.228 8.09224 15.0234C7.99849 14.8189 7.85858 14.6683 7.6725 14.5717C7.48642 14.4751 7.25701 14.4268 6.98429 14.4268H6.39622V17.2095Z" fill="white"/>
</svg>
