<svg width="24" height="24" viewBox="0 0 24 24" fill="none" xmlns="http://www.w3.org/2000/svg">
<path d="M21.9413 7.5955C22.0312 7.68331 21.9911 7.79418 21.9911 7.89425C21.9931 12.4255 21.9936 16.9572 21.9926 21.4884C21.9921 22.9959 20.9547 23.9986 19.3967 23.9991C14.4578 24.0001 9.51897 24.0005 4.58063 23.9991C3.04339 23.9986 2.00096 22.99 2.00096 21.5012C1.99944 15.1706 1.99995 8.84003 2.00096 2.50946C2.00045 1.00298 3.03933 0.00175836 4.59891 0.000777259C7.82222 -0.000694397 11.046 0.000286707 14.2694 0.000777259C14.3577 0.000777259 14.4466 0.00519223 14.535 0.00764499C14.5386 0.131264 14.5452 0.254883 14.5452 0.378012C14.5457 2.2426 14.5462 4.10719 14.5457 5.97227C14.5452 6.95877 15.3082 7.58618 16.0017 7.59403C17.9814 7.61611 19.9616 7.59796 21.9413 7.5955Z" fill="#0082D4"/>
<path d="M21.9414 7.59549C19.9617 7.59794 17.9815 7.61609 16.0018 7.59402C15.3089 7.58617 14.5453 6.95875 14.5458 5.97225C14.5463 4.10766 14.5463 2.24307 14.5453 0.377996C14.5453 0.254377 14.5387 0.130758 14.5352 0.00762939C15.0752 0.424599 15.4897 0.960281 15.9733 1.43072C16.584 2.02429 17.1621 2.64827 17.7559 3.25754C19.093 4.62765 20.4316 5.99629 21.7677 7.36689C21.8347 7.43508 21.884 7.51896 21.9414 7.59549Z" fill="#1AA6FF"/>
<path d="M17.6586 13.6364L18.5386 15.1236H18.5727L19.4569 13.6364H20.4988L19.1672 15.8182L20.5287 18H19.4676L18.5727 16.5106H18.5386L17.6437 18H16.5869L17.9527 15.8182L16.6125 13.6364H17.6586Z" fill="white"/>
<path d="M16.3458 15.1641H15.4126C15.3955 15.0433 15.3607 14.9361 15.3081 14.8423C15.2556 14.7472 15.1881 14.6662 15.1057 14.5994C15.0233 14.5327 14.9282 14.4816 14.8202 14.446C14.7137 14.4105 14.5979 14.3928 14.4729 14.3928C14.2471 14.3928 14.0503 14.4489 13.8827 14.5611C13.7151 14.6719 13.5851 14.8338 13.4928 15.0469C13.4005 15.2585 13.3543 15.5156 13.3543 15.8182C13.3543 16.1293 13.4005 16.3906 13.4928 16.6023C13.5866 16.8139 13.7172 16.9737 13.8849 17.0817C14.0525 17.1896 14.2464 17.2436 14.4665 17.2436C14.5901 17.2436 14.7045 17.2273 14.8096 17.1946C14.9161 17.1619 15.0106 17.1144 15.093 17.0519C15.1753 16.9879 15.2435 16.9105 15.2975 16.8196C15.3529 16.7287 15.3912 16.625 15.4126 16.5085L16.3458 16.5128C16.3216 16.7131 16.2613 16.9063 16.1647 17.0923C16.0695 17.277 15.941 17.4425 15.779 17.5888C15.6185 17.7337 15.4268 17.8487 15.2037 17.934C14.9822 18.0178 14.7314 18.0597 14.4516 18.0597C14.0624 18.0597 13.7144 17.9716 13.4076 17.7955C13.1022 17.6193 12.8607 17.3644 12.6831 17.0306C12.507 16.6967 12.4189 16.2926 12.4189 15.8182C12.4189 15.3423 12.5084 14.9375 12.6874 14.6037C12.8664 14.2699 13.1093 14.0156 13.4161 13.8409C13.7229 13.6648 14.0681 13.5767 14.4516 13.5767C14.7045 13.5767 14.9388 13.6122 15.1547 13.6833C15.3721 13.7543 15.5645 13.858 15.7322 13.9943C15.8998 14.1293 16.0361 14.2948 16.1412 14.4908C16.2478 14.6868 16.316 14.9112 16.3458 15.1641Z" fill="white"/>
<path d="M11.9324 15.8182C11.9324 16.2941 11.8422 16.6989 11.6618 17.0327C11.4828 17.3665 11.2385 17.6215 10.9288 17.7976C10.6206 17.9723 10.274 18.0597 9.88903 18.0597C9.50124 18.0597 9.15323 17.9716 8.84499 17.7955C8.53675 17.6193 8.29315 17.3644 8.11417 17.0306C7.93519 16.6967 7.8457 16.2926 7.8457 15.8182C7.8457 15.3423 7.93519 14.9375 8.11417 14.6037C8.29315 14.2699 8.53675 14.0156 8.84499 13.8409C9.15323 13.6648 9.50124 13.5767 9.88903 13.5767C10.274 13.5767 10.6206 13.6648 10.9288 13.8409C11.2385 14.0156 11.4828 14.2699 11.6618 14.6037C11.8422 14.9375 11.9324 15.3423 11.9324 15.8182ZM10.997 15.8182C10.997 15.51 10.9508 15.25 10.8585 15.0384C10.7676 14.8267 10.639 14.6662 10.4728 14.5568C10.3066 14.4475 10.112 14.3928 9.88903 14.3928C9.66602 14.3928 9.47141 14.4475 9.30522 14.5568C9.13903 14.6662 9.00977 14.8267 8.91744 15.0384C8.82653 15.25 8.78107 15.51 8.78107 15.8182C8.78107 16.1264 8.82653 16.3864 8.91744 16.598C9.00977 16.8097 9.13903 16.9702 9.30522 17.0796C9.47141 17.1889 9.66602 17.2436 9.88903 17.2436C10.112 17.2436 10.3066 17.1889 10.4728 17.0796C10.639 16.9702 10.7676 16.8097 10.8585 16.598C10.9508 16.3864 10.997 16.1264 10.997 15.8182Z" fill="white"/>
<path d="M5.22363 18H3.67676V13.6364H5.23642C5.67534 13.6364 6.05318 13.7237 6.36994 13.8984C6.6867 14.0717 6.93031 14.321 7.10076 14.6463C7.27264 14.9716 7.35858 15.3608 7.35858 15.8139C7.35858 16.2685 7.27264 16.6591 7.10076 16.9858C6.93031 17.3125 6.68528 17.5632 6.36568 17.7379C6.0475 17.9126 5.66681 18 5.22363 18ZM4.59934 17.2095H5.18528C5.45801 17.2095 5.68741 17.1612 5.87349 17.0646C6.06099 16.9666 6.20162 16.8153 6.29537 16.6108C6.39054 16.4048 6.43812 16.1392 6.43812 15.8139C6.43812 15.4915 6.39054 15.228 6.29537 15.0234C6.20162 14.8189 6.0617 14.6683 5.87562 14.5717C5.68954 14.4751 5.46014 14.4268 5.18741 14.4268H4.59934V17.2095Z" fill="white"/>
</svg>
