<svg width="24" height="24" viewBox="0 0 24 24" fill="none" xmlns="http://www.w3.org/2000/svg">
    <path fill-rule="evenodd" clip-rule="evenodd" d="M12.0187 12.0027C14.7725 11.992 17.0066 9.74713 17.0013 6.99331C16.9959 4.23414 14.7671 2.00537 12.0026 2.00001C9.23807 1.99465 6.99323 4.23949 6.99859 7.00938C7.00395 9.77391 9.24879 12.0134 12.0187 12.0027ZM4.21337 22H11.9819H19.879C20.6077 22 21.0149 21.5875 20.9934 20.8642C20.9238 18.5872 19.9648 16.7281 18.2557 15.2655C14.8 12.3027 9.52277 12.2224 5.96531 15.0726C4.15444 16.5245 3.1097 18.4051 3.00255 20.7517C2.96505 21.625 3.34008 22 4.21337 22Z" fill="#2A4454"/>
</svg>
