<svg width="24" height="24" viewBox="0 0 24 24" fill="none" xmlns="http://www.w3.org/2000/svg">
    <path d="M13.7741 17.5193C12.5534 17.5193 11.3475 17.5193 10.117 17.5193C10.117 17.6174 10.117 17.7056 10.117 17.7939C10.117 18.9557 10.117 20.1126 10.117 21.2744C10.117 22.3333 9.44542 22.9951 8.38655 23C7.25904 23 6.13153 23 5.00403 23C4.03339 23 3.33728 22.299 3.33728 21.3333C3.33728 18.2351 3.33728 15.1418 3.33728 12.0436C3.33728 11.9455 3.33728 11.8524 3.33728 11.7298C3.06766 11.7298 2.82255 11.7347 2.58234 11.7298C1.88132 11.72 1.30287 11.3082 1.08717 10.6759C0.866569 10.0337 1.07246 9.36208 1.61661 8.92088C4.7295 6.40605 7.8424 3.89122 10.9553 1.38129C11.5681 0.886169 12.3426 0.866561 12.9603 1.36168C14.8918 2.91078 16.8134 4.46478 18.7351 6.01877C19.8969 6.95509 21.0587 7.89632 22.2255 8.83264C23.0049 9.46012 23.1765 10.3572 22.6372 11.0926C22.348 11.4896 21.946 11.7053 21.4509 11.7249C21.1764 11.7347 20.897 11.7249 20.593 11.7249C20.593 11.8475 20.593 11.9406 20.593 12.0338C20.593 15.1124 20.593 18.1909 20.593 21.2744C20.593 22.3137 19.9165 22.9951 18.8822 22.9951C17.7448 22.9951 16.6124 22.9951 15.4751 22.9951C14.4947 22.9951 13.7937 22.299 13.7888 21.3185C13.7839 20.1273 13.7888 18.9312 13.7888 17.7399C13.7839 17.6713 13.779 17.5978 13.7741 17.5193Z" fill="#2A4454"/>
</svg>
