<svg width="24" height="24" viewBox="0 0 24 24" fill="none" xmlns="http://www.w3.org/2000/svg">
    <path fill-rule="evenodd" clip-rule="evenodd" d="M3.44464 4C2.99568 4 2.5804 4.0954 2.15389 4.34233C2.19247 4.3702 2.22369 4.39315 2.25035 4.41276C2.29349 4.44448 2.32471 4.46743 2.35592 4.48824C3.10089 4.98488 3.8462 5.48118 4.59152 5.97747C6.82756 7.46641 9.0636 8.95535 11.2902 10.4538C11.8065 10.8017 12.2105 10.7905 12.7156 10.4481C14.5159 9.2359 16.3232 8.03294 18.13 6.8303C19.1336 6.16226 20.1371 5.49433 21.1392 4.82496C21.3693 4.67344 21.5994 4.5163 21.8575 4.33672C21.4254 4.08979 21.0045 4 20.5611 4H9.92647H3.44464ZM1.33567 5.69434C1.26377 5.64664 1.19075 5.59819 1.11645 5.54889C1.10093 5.66722 1.08273 5.77616 1.06556 5.87896C1.03304 6.07356 1.00421 6.24615 1.00421 6.41874C0.998597 10.0497 0.998597 13.675 1.00421 17.306C1.00421 18.6921 2.02559 19.7135 3.41735 19.7135C9.13595 19.7191 14.8602 19.7191 20.5844 19.7135C21.9761 19.7135 22.9863 18.6977 22.9975 17.3003C23.0012 16.814 23 16.3276 22.9988 15.8412C22.9981 15.598 22.9975 15.3549 22.9975 15.1117C22.9975 12.2271 22.9975 9.34819 22.9919 6.46925C22.9919 6.27415 22.9606 6.07904 22.9265 5.86616C22.9105 5.76676 22.8939 5.66347 22.8797 5.5545L22.8795 5.55461C22.6439 5.71168 22.4924 5.81268 22.3353 5.91367C21.5012 6.47024 20.6676 7.02724 19.834 7.58419C17.667 9.0321 15.5005 10.4797 13.3281 11.9185C12.4582 12.4965 11.5435 12.4909 10.668 11.9129C9.03166 10.8289 7.39962 9.7385 5.76787 8.6483C4.76382 7.97748 3.75989 7.30673 2.75514 6.63761C2.29781 6.33272 1.84479 6.03215 1.33567 5.69434Z" fill="#2A4454"/>
</svg>
