<svg width="24" height="24" viewBox="0 0 24 24" fill="none" xmlns="http://www.w3.org/2000/svg">
    <path d="M21.9413 7.5955C22.0312 7.68331 21.9911 7.79418 21.9911 7.89425C21.9931 12.4255 21.9936 16.9572 21.9926 21.4884C21.9921 22.9959 20.9547 23.9986 19.3967 23.9991C14.4578 24.0001 9.51897 24.0005 4.58063 23.9991C3.04339 23.9986 2.00096 22.99 2.00096 21.5012C1.99944 15.1706 1.99995 8.84003 2.00096 2.50946C2.00045 1.00298 3.03933 0.00175836 4.59891 0.000777259C7.82222 -0.000694397 11.046 0.000286707 14.2694 0.000777259C14.3577 0.000777259 14.4466 0.00519223 14.535 0.00764499C14.5386 0.131264 14.5452 0.254883 14.5452 0.378012C14.5457 2.2426 14.5462 4.10719 14.5457 5.97227C14.5452 6.95877 15.3082 7.58618 16.0017 7.59403C17.9814 7.61611 19.9616 7.59796 21.9413 7.5955Z" fill="#017AAD"/>
    <path d="M21.9414 7.59549C19.9617 7.59794 17.9815 7.61609 16.0018 7.59402C15.3089 7.58617 14.5453 6.95875 14.5458 5.97225C14.5463 4.10766 14.5463 2.24307 14.5453 0.377996C14.5453 0.254377 14.5387 0.130758 14.5352 0.00762939C15.0752 0.424599 15.4897 0.960281 15.9733 1.43072C16.584 2.02429 17.1621 2.64827 17.7559 3.25754C19.093 4.62765 20.4316 5.99629 21.7677 7.36689C21.8347 7.43508 21.884 7.51896 21.9414 7.59549Z" fill="#1BBAFE"/>
    <path d="M16.7641 15.0469C16.7343 14.9432 16.6924 14.8516 16.6384 14.772C16.5844 14.6911 16.5184 14.6229 16.4403 14.5675C16.3635 14.5107 16.2755 14.4673 16.176 14.4375C16.078 14.4077 15.9694 14.3928 15.8501 14.3928C15.627 14.3928 15.431 14.4482 15.262 14.559C15.0944 14.6698 14.9637 14.831 14.8699 15.0426C14.7762 15.2529 14.7293 15.51 14.7293 15.8139C14.7293 16.1179 14.7755 16.3764 14.8678 16.5895C14.9601 16.8026 15.0908 16.9652 15.2599 17.0774C15.4289 17.1882 15.6285 17.2436 15.8586 17.2436C16.0674 17.2436 16.2457 17.2067 16.3934 17.1328C16.5425 17.0575 16.6562 16.9517 16.7343 16.8154C16.8138 16.679 16.8536 16.5178 16.8536 16.3317L17.0411 16.3594H15.9161V15.6648H17.7421V16.2145C17.7421 16.598 17.6611 16.9276 17.4992 17.2031C17.3373 17.4773 17.1143 17.6889 16.8302 17.8381C16.5461 17.9858 16.2208 18.0597 15.8543 18.0597C15.4452 18.0597 15.0858 17.9695 14.7762 17.7891C14.4665 17.6073 14.2251 17.3494 14.0518 17.0156C13.8799 16.6804 13.7939 16.2827 13.7939 15.8225C13.7939 15.4688 13.8451 15.1534 13.9474 14.8764C14.051 14.598 14.1959 14.3622 14.382 14.1691C14.5681 13.9759 14.7847 13.8289 15.0319 13.728C15.279 13.6271 15.5468 13.5767 15.8351 13.5767C16.0823 13.5767 16.3124 13.6129 16.5255 13.6854C16.7385 13.7564 16.9275 13.8573 17.0922 13.9879C17.2584 14.1186 17.3941 14.2742 17.4992 14.4546C17.6043 14.6335 17.6718 14.831 17.7016 15.0469H16.7641Z" fill="white"/>
    <path d="M9.86523 18V13.6364H11.5868C11.9178 13.6364 12.1998 13.6996 12.4327 13.826C12.6657 13.951 12.8432 14.125 12.9654 14.348C13.089 14.5696 13.1507 14.8253 13.1507 15.115C13.1507 15.4048 13.0882 15.6605 12.9632 15.8821C12.8382 16.1037 12.6571 16.2763 12.4199 16.3998C12.1841 16.5234 11.8986 16.5852 11.5634 16.5852H10.4661V15.8459H11.4142C11.5918 15.8459 11.7381 15.8153 11.8532 15.7543C11.9696 15.6918 12.0563 15.6058 12.1131 15.4964C12.1713 15.3856 12.2005 15.2585 12.2005 15.115C12.2005 14.9702 12.1713 14.8437 12.1131 14.7358C12.0563 14.6264 11.9696 14.5419 11.8532 14.4822C11.7367 14.4212 11.589 14.3906 11.41 14.3906H10.7878V18H9.86523Z" fill="white"/>
    <path d="M8.07078 13.6364H8.98271V16.679C8.98271 16.9602 8.9195 17.2045 8.79308 17.4119C8.66808 17.6193 8.49408 17.7791 8.27106 17.8913C8.04805 18.0035 7.78882 18.0596 7.49337 18.0596C7.23058 18.0596 6.99195 18.0135 6.77746 17.9212C6.56439 17.8274 6.39535 17.6854 6.27035 17.495C6.14535 17.3033 6.08356 17.0625 6.08498 16.7727H7.00331C7.00615 16.8878 7.02959 16.9865 7.07362 17.0689C7.11908 17.1498 7.18087 17.2123 7.25899 17.2564C7.33854 17.299 7.43229 17.3203 7.54024 17.3203C7.65388 17.3203 7.74976 17.2962 7.82788 17.2479C7.90743 17.1981 7.9678 17.1257 8.00899 17.0305C8.05018 16.9354 8.07078 16.8182 8.07078 16.679V13.6364Z" fill="white"/>
</svg>
