<svg width="860" height="184" viewBox="0 0 860 184" fill="none" xmlns="http://www.w3.org/2000/svg">
    <path d="M142.719 101.811C142.719 93.0299 144.737 85.153 148.774 78.18C152.895 71.207 158.434 65.7836 165.39 61.9097C172.432 57.9497 180.118 55.9697 188.447 55.9697C197.98 55.9697 206.438 58.3371 213.823 63.0719C221.294 67.7205 226.705 74.3492 230.054 82.9578H212.406C210.088 78.223 206.868 74.6935 202.746 72.3692C198.624 70.0448 193.858 68.8827 188.447 68.8827C182.522 68.8827 177.241 70.217 172.604 72.8857C167.966 75.5544 164.317 79.3852 161.655 84.3782C159.078 89.3712 157.79 95.182 157.79 101.811C157.79 108.439 159.078 114.25 161.655 119.243C164.317 124.236 167.966 128.11 172.604 130.865C177.241 133.533 182.522 134.868 188.447 134.868C193.858 134.868 198.624 133.706 202.746 131.381C206.868 129.057 210.088 125.527 212.406 120.793H230.054C226.705 129.401 221.294 136.03 213.823 140.679C206.438 145.327 197.98 147.652 188.447 147.652C180.032 147.652 172.346 145.715 165.39 141.841C158.434 137.881 152.895 132.414 148.774 125.441C144.737 118.468 142.719 110.591 142.719 101.811Z" fill="#D30000"/>
    <path d="M272.875 148.039C266.177 148.039 260.123 146.532 254.713 143.519C249.303 140.42 245.052 136.116 241.961 130.607C238.869 125.011 237.323 118.554 237.323 111.237C237.323 104.006 238.912 97.5924 242.089 91.9968C245.267 86.4012 249.603 82.0969 255.099 79.0839C260.595 76.0709 266.735 74.5644 273.519 74.5644C280.304 74.5644 286.444 76.0709 291.94 79.0839C297.436 82.0969 301.772 86.4012 304.95 91.9968C308.127 97.5924 309.716 104.006 309.716 111.237C309.716 118.468 308.084 124.882 304.821 130.477C301.557 136.073 297.092 140.42 291.424 143.519C285.842 146.532 279.66 148.039 272.875 148.039ZM272.875 135.255C276.654 135.255 280.175 134.351 283.438 132.543C286.787 130.736 289.492 128.024 291.553 124.408C293.614 120.793 294.645 116.402 294.645 111.237C294.645 106.072 293.657 101.725 291.682 98.195C289.707 94.5794 287.088 91.8677 283.824 90.0599C280.561 88.2521 277.04 87.3482 273.262 87.3482C269.483 87.3482 265.963 88.2521 262.699 90.0599C259.522 91.8677 256.989 94.5794 255.099 98.195C253.21 101.725 252.266 106.072 252.266 111.237C252.266 118.899 254.198 124.839 258.062 129.057C262.012 133.189 266.95 135.255 272.875 135.255Z" fill="#D30000"/>
    <path d="M314.185 110.979C314.185 103.834 315.645 97.5064 318.564 91.9968C321.57 86.4873 325.606 82.226 330.673 79.213C335.825 76.1139 341.536 74.5644 347.805 74.5644C352.442 74.5644 356.993 75.5974 361.459 77.6635C366.01 79.6435 369.617 82.3121 372.279 85.6695V51.3211H387.092V146.877H372.279V136.159C369.874 139.603 366.525 142.443 362.231 144.682C358.024 146.92 353.172 148.039 347.676 148.039C341.493 148.039 335.825 146.489 330.673 143.39C325.606 140.205 321.57 135.815 318.564 130.219C315.645 124.537 314.185 118.124 314.185 110.979ZM372.279 111.237C372.279 106.33 371.248 102.069 369.187 98.4533C367.212 94.8377 364.593 92.0829 361.33 90.189C358.067 88.2951 354.546 87.3482 350.767 87.3482C346.989 87.3482 343.468 88.2951 340.205 90.189C336.941 91.9968 334.279 94.7085 332.218 98.3242C330.243 101.854 329.256 106.072 329.256 110.979C329.256 115.886 330.243 120.19 332.218 123.892C334.279 127.593 336.941 130.434 340.205 132.414C343.554 134.308 347.075 135.255 350.767 135.255C354.546 135.255 358.067 134.308 361.33 132.414C364.593 130.52 367.212 127.766 369.187 124.15C371.248 120.448 372.279 116.144 372.279 111.237Z" fill="#D30000"/>
    <path d="M466.277 109.558C466.277 112.227 466.105 114.638 465.762 116.79H411.532C411.961 122.471 414.065 127.034 417.844 130.477C421.622 133.921 426.26 135.643 431.755 135.643C439.656 135.643 445.238 132.328 448.501 125.7H464.345C462.198 132.242 458.291 137.623 452.623 141.841C447.041 145.973 440.085 148.039 431.755 148.039C424.971 148.039 418.874 146.532 413.464 143.519C408.14 140.42 403.932 136.116 400.841 130.607C397.835 125.011 396.332 118.554 396.332 111.237C396.332 103.92 397.792 97.5064 400.712 91.9968C403.717 86.4012 407.882 82.0969 413.207 79.0839C418.617 76.0709 424.8 74.5644 431.755 74.5644C438.454 74.5644 444.422 76.0278 449.66 78.9548C454.899 81.8817 458.978 86.0138 461.897 91.3512C464.817 96.6024 466.277 102.672 466.277 109.558ZM450.948 104.91C450.863 99.4863 448.93 95.139 445.152 91.8677C441.373 88.5964 436.693 86.9608 431.111 86.9608C426.045 86.9608 421.708 88.5964 418.101 91.8677C414.495 95.0529 412.348 99.4002 411.661 104.91H450.948Z" fill="#D30000"/>
    <path d="M523.493 100.778C528.302 101.638 532.382 104.178 535.731 108.396C539.08 112.614 540.754 117.392 540.754 122.73C540.754 127.292 539.552 131.424 537.148 135.126C534.829 138.742 531.437 141.626 526.971 143.778C522.506 145.844 517.311 146.877 511.385 146.877H475.576V57.1319H509.711C515.808 57.1319 521.046 58.1649 525.426 60.231C529.805 62.2971 533.111 65.0949 535.344 68.6244C537.577 72.0679 538.693 75.9417 538.693 80.2461C538.693 85.4112 537.319 89.7155 534.571 93.159C531.823 96.6024 528.131 99.142 523.493 100.778ZM490.26 94.8377H508.423C513.232 94.8377 516.967 93.7616 519.629 91.6094C522.377 89.3712 523.751 86.186 523.751 82.0539C523.751 78.0078 522.377 74.8657 519.629 72.6274C516.967 70.3031 513.232 69.1409 508.423 69.1409H490.26V94.8377ZM510.097 134.868C515.078 134.868 518.985 133.663 521.819 131.252C524.653 128.842 526.07 125.484 526.07 121.18C526.07 116.79 524.567 113.303 521.561 110.721C518.556 108.138 514.563 106.847 509.582 106.847H490.26V134.868H510.097Z" fill="#D30000"/>
    <path d="M566.244 86.0569C568.391 82.4413 571.225 79.6435 574.745 77.6635C578.352 75.5974 582.603 74.5644 587.498 74.5644V89.8016H583.762C578.009 89.8016 573.629 91.2651 570.623 94.192C567.704 97.119 566.244 102.198 566.244 109.429V146.877H551.559V75.7265H566.244V86.0569Z" fill="#D30000"/>
    <path d="M603.314 66.3001C600.652 66.3001 598.42 65.3962 596.616 63.5884C594.813 61.7806 593.911 59.5423 593.911 56.8736C593.911 54.205 594.813 51.9667 596.616 50.1589C598.42 48.3511 600.652 47.4472 603.314 47.4472C605.891 47.4472 608.08 48.3511 609.884 50.1589C611.687 51.9667 612.589 54.205 612.589 56.8736C612.589 59.5423 611.687 61.7806 609.884 63.5884C608.08 65.3962 605.891 66.3001 603.314 66.3001ZM610.528 75.7265V146.877H595.843V75.7265H610.528Z" fill="#D30000"/>
    <path d="M619.76 110.979C619.76 103.834 621.22 97.5064 624.14 91.9968C627.145 86.4873 631.181 82.226 636.248 79.213C641.4 76.1139 647.111 74.5644 653.38 74.5644C658.017 74.5644 662.568 75.5974 667.034 77.6635C671.585 79.6435 675.192 82.3121 677.854 85.6695V51.3211H692.667V146.877H677.854V136.159C675.45 139.603 672.1 142.443 667.807 144.682C663.599 146.92 658.747 148.039 653.251 148.039C647.068 148.039 641.4 146.489 636.248 143.39C631.181 140.205 627.145 135.815 624.14 130.219C621.22 124.537 619.76 118.124 619.76 110.979ZM677.854 111.237C677.854 106.33 676.824 102.069 674.763 98.4533C672.787 94.8377 670.168 92.0829 666.905 90.189C663.642 88.2951 660.121 87.3482 656.343 87.3482C652.564 87.3482 649.043 88.2951 645.78 90.189C642.517 91.9968 639.855 94.7085 637.794 98.3242C635.819 101.854 634.831 106.072 634.831 110.979C634.831 115.886 635.819 120.19 637.794 123.892C639.855 127.593 642.517 130.434 645.78 132.414C649.129 134.308 652.65 135.255 656.343 135.255C660.121 135.255 663.642 134.308 666.905 132.414C670.168 130.52 672.787 127.766 674.763 124.15C676.824 120.448 677.854 116.144 677.854 111.237Z" fill="#D30000"/>
    <path d="M735.399 74.5644C740.895 74.5644 745.747 75.6835 749.954 77.9217C754.248 80.0739 757.597 82.7856 760.002 86.0569V75.7265H774.815V148.039C774.815 154.582 773.441 160.392 770.693 165.471C767.945 170.637 763.952 174.683 758.714 177.61C753.561 180.537 747.378 182 740.165 182C730.547 182 722.56 179.719 716.206 175.156C709.851 170.68 706.244 164.568 705.385 156.82H719.941C721.058 160.521 723.419 163.491 727.026 165.73C730.718 168.054 735.098 169.216 740.165 169.216C746.09 169.216 750.856 167.408 754.463 163.793C758.155 160.177 760.002 154.926 760.002 148.039V136.159C757.511 139.516 754.119 142.357 749.826 144.682C745.618 146.92 740.809 148.039 735.399 148.039C729.216 148.039 723.548 146.489 718.396 143.39C713.329 140.205 709.293 135.815 706.287 130.219C703.367 124.537 701.908 118.124 701.908 110.979C701.908 103.834 703.367 97.5064 706.287 91.9968C709.293 86.4873 713.329 82.226 718.396 79.213C723.548 76.1139 729.216 74.5644 735.399 74.5644ZM760.002 111.237C760.002 106.33 758.971 102.069 756.91 98.4533C754.935 94.8377 752.316 92.0829 749.053 90.189C745.789 88.2951 742.269 87.3482 738.49 87.3482C734.712 87.3482 731.191 88.2951 727.928 90.189C724.664 91.9968 722.002 94.7085 719.941 98.3242C717.966 101.854 716.979 106.072 716.979 110.979C716.979 115.886 717.966 120.19 719.941 123.892C722.002 127.593 724.664 130.434 727.928 132.414C731.277 134.308 734.797 135.255 738.49 135.255C742.269 135.255 745.789 134.308 749.053 132.414C752.316 130.52 754.935 127.766 756.91 124.15C758.971 120.448 760.002 116.144 760.002 111.237Z" fill="#D30000"/>
    <path d="M854 109.558C854 112.227 853.828 114.638 853.485 116.79H799.255C799.684 122.471 801.788 127.034 805.567 130.477C809.345 133.921 813.982 135.643 819.478 135.643C827.379 135.643 832.961 132.328 836.224 125.7H852.068C849.921 132.242 846.014 137.623 840.346 141.841C834.764 145.973 827.808 148.039 819.478 148.039C812.694 148.039 806.597 146.532 801.187 143.519C795.863 140.42 791.655 136.116 788.564 130.607C785.558 125.011 784.055 118.554 784.055 111.237C784.055 103.92 785.515 97.5064 788.435 91.9968C791.44 86.4012 795.605 82.0969 800.93 79.0839C806.34 76.0709 812.523 74.5644 819.478 74.5644C826.177 74.5644 832.145 76.0278 837.383 78.9548C842.622 81.8817 846.701 86.0138 849.62 91.3512C852.54 96.6024 854 102.672 854 109.558ZM838.671 104.91C838.585 99.4863 836.653 95.139 832.875 91.8677C829.096 88.5964 824.416 86.9608 818.834 86.9608C813.768 86.9608 809.431 88.5964 805.824 91.8677C802.218 95.0529 800.071 99.4002 799.384 104.91H838.671Z" fill="#D30000"/>
    <path d="M70.5798 2C71.7323 3.07285 72.9672 3.89812 73.2141 5.87876C74.0374 13.0586 78.1536 18.1753 83.587 22.5492C94.7007 31.5446 105.814 40.4575 116.846 49.453C121.538 53.2492 121.95 58.0358 118.163 62.7398C117.422 63.7301 116.516 64.5554 115.693 65.5457C108.86 73.4683 105.732 74.1285 96.5118 69.5895C89.9259 66.371 82.9284 66.4535 75.9308 66.4535C72.9672 66.4535 73.6258 68.0215 74.7783 69.5895C79.4708 76.0266 84.5748 82.2987 90.6668 87.3328C99.2285 94.4301 101.122 103.591 100.381 113.989C100.216 116.3 99.3108 116.96 97.0881 116.96C70.9914 116.877 44.9771 116.877 18.8804 116.96C17.0693 116.96 15.6698 116.795 15.5875 114.402C15.1758 92.4495 14.0233 70.4148 19.7037 48.7928C21.7618 40.9527 24.6431 33.3602 29.9118 27.0057C34.5219 21.4763 40.0376 17.8452 47.4468 17.5976C51.8923 17.4325 55.7615 15.6169 58.3135 11.8207C61.1125 7.69436 64.2408 4.06317 68.851 2C69.5096 2 70.0035 2 70.5798 2Z" fill="#D30000"/>
    <path d="M15.5052 156.325C14.1057 156.325 12.6238 156.078 11.3066 155.665C10.9774 155.583 10.7304 155.5 10.4834 155.418C6.77884 154.51 5.13236 151.869 6.44954 148.403C9.0839 141.14 12.9531 134.538 17.0693 128.019C17.8926 126.616 19.2921 126.616 20.6092 126.368C29.0886 125.13 37.568 125.708 46.0473 125.625C61.5242 125.46 77.0011 125.873 92.478 125.79C97.6644 125.79 100.957 127.771 103.098 132.393C105.403 137.344 108.284 142.048 110.507 147C112.894 152.199 111.659 154.097 106.061 155.335C104.744 155.583 103.756 155.913 101.863 156.243C101.616 156.243 101.369 156.325 101.04 156.325H15.5052Z" fill="#D30000"/>
</svg>
