<svg width="24" height="24" viewBox="0 0 24 24" fill="none" xmlns="http://www.w3.org/2000/svg">
    <path d="M21.9413 7.5955C22.0312 7.68331 21.9911 7.79418 21.9911 7.89425C21.9931 12.4255 21.9936 16.9572 21.9926 21.4884C21.9921 22.9959 20.9547 23.9986 19.3967 23.9991C14.4578 24.0001 9.51897 24.0005 4.58063 23.9991C3.04339 23.9986 2.00096 22.99 2.00096 21.5012C1.99944 15.1706 1.99995 8.84003 2.00096 2.50946C2.00045 1.00298 3.03933 0.00175836 4.59891 0.000777259C7.82222 -0.000694397 11.046 0.000286707 14.2694 0.000777259C14.3577 0.000777259 14.4466 0.00519223 14.535 0.00764499C14.5386 0.131264 14.5452 0.254883 14.5452 0.378012C14.5457 2.2426 14.5462 4.10719 14.5457 5.97227C14.5452 6.95877 15.3082 7.58618 16.0017 7.59403C17.9814 7.61611 19.9616 7.59796 21.9413 7.5955Z" fill="#D30000"/>
    <path d="M21.9414 7.59549C19.9617 7.59794 17.9815 7.61609 16.0018 7.59402C15.3089 7.58617 14.5453 6.95875 14.5458 5.97225C14.5463 4.10766 14.5463 2.24307 14.5453 0.377996C14.5453 0.254377 14.5387 0.130758 14.5352 0.00762939C15.0752 0.424599 15.4897 0.960281 15.9733 1.43072C16.584 2.02429 17.1621 2.64827 17.7559 3.25754C19.093 4.62765 20.4316 5.99629 21.7677 7.36689C21.8347 7.43508 21.884 7.51896 21.9414 7.59549Z" fill="#FF1A1A"/>
    <path d="M14.8691 18V13.6364H17.7583V14.397H15.7917V15.4368H17.5666V16.1974H15.7917V18H14.8691Z" fill="white"/>
    <path d="M11.9307 18H10.3838V13.6364H11.9434C12.3824 13.6364 12.7602 13.7237 13.077 13.8984C13.3937 14.0717 13.6373 14.321 13.8078 14.6463C13.9797 14.9716 14.0656 15.3608 14.0656 15.8139C14.0656 16.2685 13.9797 16.6591 13.8078 16.9858C13.6373 17.3125 13.3923 17.5632 13.0727 17.7379C12.7545 17.9126 12.3738 18 11.9307 18ZM11.3064 17.2095H11.8923C12.165 17.2095 12.3944 17.1612 12.5805 17.0646C12.768 16.9666 12.9086 16.8153 13.0024 16.6108C13.0976 16.4048 13.1452 16.1392 13.1452 15.8139C13.1452 15.4915 13.0976 15.228 13.0024 15.0234C12.9086 14.8189 12.7687 14.6683 12.5827 14.5717C12.3966 14.4751 12.1672 14.4268 11.8944 14.4268H11.3064V17.2095Z" fill="white"/>
    <path d="M6.37891 18V13.6364H8.1005C8.43146 13.6364 8.71342 13.6996 8.94638 13.826C9.17933 13.951 9.35689 14.125 9.47905 14.348C9.60263 14.5696 9.66442 14.8253 9.66442 15.115C9.66442 15.4048 9.60192 15.6605 9.47692 15.8821C9.35192 16.1037 9.17081 16.2763 8.93359 16.3998C8.6978 16.5234 8.41229 16.5852 8.07706 16.5852H6.97976V15.8459H7.92791C8.10547 15.8459 8.25178 15.8153 8.36683 15.7543C8.48331 15.6918 8.56996 15.6058 8.62678 15.4964C8.68501 15.3856 8.71413 15.2585 8.71413 15.115C8.71413 14.9702 8.68501 14.8437 8.62678 14.7358C8.56996 14.6264 8.48331 14.5419 8.36683 14.4822C8.25036 14.4212 8.10263 14.3906 7.92365 14.3906H7.30149V18H6.37891Z" fill="white"/>
</svg>
