<svg width="24" height="24" viewBox="0 0 24 24" fill="none" xmlns="http://www.w3.org/2000/svg">
    <path d="M21.9413 7.5955C22.0312 7.68331 21.9911 7.79418 21.9911 7.89425C21.9931 12.4255 21.9936 16.9572 21.9926 21.4884C21.9921 22.9959 20.9547 23.9986 19.3967 23.9991C14.4578 24.0001 9.51897 24.0005 4.58063 23.9991C3.04339 23.9986 2.00096 22.99 2.00096 21.5012C1.99944 15.1706 1.99995 8.84003 2.00096 2.50946C2.00045 1.00298 3.03933 0.00175836 4.59891 0.000777259C7.82222 -0.000694397 11.046 0.000286707 14.2694 0.000777259C14.3577 0.000777259 14.4466 0.00519223 14.535 0.00764499C14.5386 0.131264 14.5452 0.254883 14.5452 0.378012C14.5457 2.2426 14.5462 4.10719 14.5457 5.97227C14.5452 6.95877 15.3082 7.58618 16.0017 7.59403C17.9814 7.61611 19.9616 7.59796 21.9413 7.5955Z" fill="#017AAD"/>
    <path d="M21.9414 7.59549C19.9617 7.59794 17.9815 7.61609 16.0018 7.59402C15.3089 7.58617 14.5453 6.95875 14.5458 5.97225C14.5463 4.10766 14.5463 2.24307 14.5453 0.377996C14.5453 0.254377 14.5387 0.130758 14.5352 0.00762939C15.0752 0.424599 15.4897 0.960281 15.9733 1.43072C16.584 2.02429 17.1621 2.64827 17.7559 3.25754C19.093 4.62765 20.4316 5.99629 21.7677 7.36689C21.8347 7.43508 21.884 7.51896 21.9414 7.59549Z" fill="#1BBAFE"/>
    <path d="M17.2583 15.0469C17.2284 14.9432 17.1865 14.8516 17.1325 14.772C17.0786 14.6911 17.0125 14.6229 16.9344 14.5675C16.8577 14.5107 16.7696 14.4673 16.6702 14.4375C16.5722 14.4077 16.4635 14.3928 16.3442 14.3928C16.1212 14.3928 15.9252 14.4482 15.7561 14.559C15.5885 14.6698 15.4578 14.831 15.3641 15.0426C15.2703 15.2529 15.2235 15.51 15.2235 15.8139C15.2235 16.1179 15.2696 16.3764 15.3619 16.5895C15.4543 16.8026 15.585 16.9652 15.754 17.0774C15.923 17.1882 16.1226 17.2436 16.3527 17.2436C16.5615 17.2436 16.7398 17.2067 16.8875 17.1328C17.0367 17.0575 17.1503 16.9517 17.2284 16.8154C17.308 16.679 17.3477 16.5178 17.3477 16.3317L17.5352 16.3594H16.4102V15.6648H18.2362V16.2145C18.2362 16.598 18.1553 16.9276 17.9933 17.2031C17.8314 17.4773 17.6084 17.6889 17.3243 17.8381C17.0402 17.9858 16.7149 18.0597 16.3485 18.0597C15.9394 18.0597 15.58 17.9695 15.2703 17.7891C14.9607 17.6073 14.7192 17.3494 14.5459 17.0156C14.374 16.6804 14.2881 16.2827 14.2881 15.8225C14.2881 15.4688 14.3392 15.1534 14.4415 14.8764C14.5452 14.598 14.6901 14.3622 14.8762 14.1691C15.0622 13.9759 15.2789 13.8289 15.526 13.728C15.7732 13.6271 16.0409 13.5767 16.3293 13.5767C16.5764 13.5767 16.8066 13.6129 17.0196 13.6854C17.2327 13.7564 17.4216 13.8573 17.5864 13.9879C17.7526 14.1186 17.8882 14.2742 17.9933 14.4546C18.0985 14.6335 18.1659 14.831 18.1958 15.0469H17.2583Z" fill="white"/>
    <path d="M13.4829 13.6364V18H12.686L10.7876 15.2535H10.7556V18H9.83301V13.6364H10.6427L12.5262 16.3807H12.5645V13.6364H13.4829Z" fill="white"/>
    <path d="M5.82812 18V13.6364H7.54972C7.88068 13.6364 8.16264 13.6996 8.3956 13.826C8.62855 13.951 8.80611 14.125 8.92827 14.348C9.05185 14.5696 9.11364 14.8253 9.11364 15.115C9.11364 15.4048 9.05114 15.6605 8.92614 15.8821C8.80114 16.1037 8.62003 16.2763 8.38281 16.3998C8.14702 16.5234 7.86151 16.5852 7.52628 16.5852H6.42898V15.8459H7.37713C7.55469 15.8459 7.70099 15.8153 7.81605 15.7543C7.93253 15.6918 8.01918 15.6058 8.07599 15.4964C8.13423 15.3856 8.16335 15.2585 8.16335 15.115C8.16335 14.9702 8.13423 14.8437 8.07599 14.7358C8.01918 14.6264 7.93253 14.5419 7.81605 14.4822C7.69957 14.4212 7.55185 14.3906 7.37287 14.3906H6.75071V18H5.82812Z" fill="white"/>
</svg>
