<svg width="24" height="24" viewBox="0 0 24 24" fill="none" xmlns="http://www.w3.org/2000/svg">
<path d="M21.9413 7.5955C22.0312 7.68331 21.9911 7.79418 21.9911 7.89425C21.9931 12.4255 21.9936 16.9572 21.9926 21.4884C21.9921 22.9959 20.9547 23.9986 19.3967 23.9991C14.4578 24.0001 9.51897 24.0005 4.58063 23.9991C3.04339 23.9986 2.00096 22.99 2.00096 21.5012C1.99944 15.1706 1.99995 8.84003 2.00096 2.50946C2.00045 1.00298 3.03933 0.00175836 4.59891 0.000777259C7.82222 -0.000694397 11.046 0.000286707 14.2694 0.000777259C14.3577 0.000777259 14.4466 0.00519223 14.535 0.00764499C14.5386 0.131264 14.5452 0.254883 14.5452 0.378012C14.5457 2.2426 14.5462 4.10719 14.5457 5.97227C14.5452 6.95877 15.3082 7.58618 16.0017 7.59403C17.9814 7.61611 19.9616 7.59796 21.9413 7.5955Z" fill="#E06D03"/>
<path d="M21.9414 7.59549C19.9617 7.59794 17.9815 7.61609 16.0018 7.59402C15.3089 7.58617 14.5453 6.95875 14.5458 5.97225C14.5463 4.10766 14.5463 2.24307 14.5453 0.377996C14.5453 0.254377 14.5387 0.130758 14.5352 0.00762939C15.0752 0.424599 15.4897 0.960281 15.9733 1.43072C16.584 2.02429 17.1621 2.64827 17.7559 3.25754C19.093 4.62765 20.4316 5.99629 21.7677 7.36689C21.8347 7.43508 21.884 7.51896 21.9414 7.59549Z" fill="#FC881D"/>
<path d="M14.2139 14.397V13.6364H17.7977V14.397H16.4617V18H15.5498V14.397H14.2139Z" fill="white"/>
<path d="M10.375 18V13.6364H12.0966C12.4276 13.6364 12.7095 13.6996 12.9425 13.826C13.1754 13.951 13.353 14.125 13.4751 14.348C13.5987 14.5696 13.6605 14.8253 13.6605 15.115C13.6605 15.4048 13.598 15.6605 13.473 15.8821C13.348 16.1037 13.1669 16.2763 12.9297 16.3998C12.6939 16.5234 12.4084 16.5852 12.0732 16.5852H10.9759V15.8459H11.924C12.1016 15.8459 12.2479 15.8153 12.3629 15.7543C12.4794 15.6918 12.5661 15.6058 12.6229 15.4964C12.6811 15.3856 12.7102 15.2585 12.7102 15.115C12.7102 14.9702 12.6811 14.8437 12.6229 14.7358C12.5661 14.6264 12.4794 14.5419 12.3629 14.4822C12.2464 14.4212 12.0987 14.3906 11.9197 14.3906H11.2976V18H10.375Z" fill="white"/>
<path d="M6.37012 18V13.6364H8.09171C8.42267 13.6364 8.70463 13.6996 8.93759 13.826C9.17054 13.951 9.3481 14.125 9.47026 14.348C9.59384 14.5696 9.65563 14.8253 9.65563 15.115C9.65563 15.4048 9.59313 15.6605 9.46813 15.8821C9.34313 16.1037 9.16202 16.2763 8.9248 16.3998C8.68901 16.5234 8.4035 16.5852 8.06827 16.5852H6.97097V15.8459H7.91912C8.09668 15.8459 8.24299 15.8153 8.35804 15.7543C8.47452 15.6918 8.56117 15.6058 8.61799 15.4964C8.67622 15.3856 8.70534 15.2585 8.70534 15.115C8.70534 14.9702 8.67622 14.8437 8.61799 14.7358C8.56117 14.6264 8.47452 14.5419 8.35804 14.4822C8.24157 14.4212 8.09384 14.3906 7.91486 14.3906H7.2927V18H6.37012Z" fill="white"/>
</svg>
