<svg width="24" height="24" viewBox="0 0 24 24" fill="none" xmlns="http://www.w3.org/2000/svg">
<path d="M21.9413 7.5955C22.0312 7.68331 21.9911 7.79418 21.9911 7.89425C21.9931 12.4255 21.9936 16.9572 21.9926 21.4884C21.9921 22.9959 20.9547 23.9986 19.3967 23.9991C14.4578 24.0001 9.51897 24.0005 4.58063 23.9991C3.04339 23.9986 2.00096 22.99 2.00096 21.5012C1.99944 15.1706 1.99995 8.84003 2.00096 2.50946C2.00045 1.00298 3.03933 0.00175836 4.59891 0.000777259C7.82222 -0.000694397 11.046 0.000286707 14.2694 0.000777259C14.3577 0.000777259 14.4466 0.00519223 14.535 0.00764499C14.5386 0.131264 14.5452 0.254883 14.5452 0.378012C14.5457 2.2426 14.5462 4.10719 14.5457 5.97227C14.5452 6.95877 15.3082 7.58618 16.0017 7.59403C17.9814 7.61611 19.9616 7.59796 21.9413 7.5955Z" fill="#E06D03"/>
<path d="M21.9414 7.59549C19.9617 7.59794 17.9815 7.61609 16.0018 7.59402C15.3089 7.58617 14.5453 6.95875 14.5458 5.97225C14.5463 4.10766 14.5463 2.24307 14.5453 0.377996C14.5453 0.254377 14.5387 0.130758 14.5352 0.00762939C15.0752 0.424599 15.4897 0.960281 15.9733 1.43072C16.584 2.02429 17.1621 2.64827 17.7559 3.25754C19.093 4.62765 20.4316 5.99629 21.7677 7.36689C21.8347 7.43508 21.884 7.51896 21.9414 7.59549Z" fill="#FC881D"/>
<path d="M16.809 13.6364L17.689 15.1236H17.7231L18.6073 13.6364H19.6492L18.3176 15.8182L19.6791 18H18.618L17.7231 16.5106H17.689L16.7941 18H15.7373L17.1031 15.8182L15.7629 13.6364H16.809Z" fill="white"/>
<path d="M11.8896 14.397V13.6364H15.4735V14.397H14.1375V18H13.2256V14.397H11.8896Z" fill="white"/>
<path d="M8.29102 18V13.6364H10.0126C10.3436 13.6364 10.6255 13.6996 10.8585 13.826C11.0914 13.951 11.269 14.125 11.3912 14.348C11.5147 14.5696 11.5765 14.8253 11.5765 15.115C11.5765 15.4048 11.514 15.6605 11.389 15.8821C11.264 16.1037 11.0829 16.2763 10.8457 16.3998C10.6099 16.5234 10.3244 16.5852 9.98917 16.5852H8.89187V15.8459H9.84002C10.0176 15.8459 10.1639 15.8153 10.2789 15.7543C10.3954 15.6918 10.4821 15.6058 10.5389 15.4964C10.5971 15.3856 10.6262 15.2585 10.6262 15.115C10.6262 14.9702 10.5971 14.8437 10.5389 14.7358C10.4821 14.6264 10.3954 14.5419 10.2789 14.4822C10.1625 14.4212 10.0147 14.3906 9.83576 14.3906H9.2136V18H8.29102Z" fill="white"/>
<path d="M4.52637 18V13.6364H6.24796C6.57892 13.6364 6.86088 13.6996 7.09384 13.826C7.32679 13.951 7.50435 14.125 7.62651 14.348C7.75009 14.5696 7.81188 14.8253 7.81188 15.115C7.81188 15.4048 7.74938 15.6605 7.62438 15.8821C7.49938 16.1037 7.31827 16.2763 7.08105 16.3998C6.84526 16.5234 6.55975 16.5852 6.22452 16.5852H5.12722V15.8459H6.07537C6.25293 15.8459 6.39924 15.8153 6.51429 15.7543C6.63077 15.6918 6.71742 15.6058 6.77424 15.4964C6.83248 15.3856 6.86159 15.2585 6.86159 15.115C6.86159 14.9702 6.83248 14.8437 6.77424 14.7358C6.71742 14.6264 6.63077 14.5419 6.51429 14.4822C6.39782 14.4212 6.25009 14.3906 6.07111 14.3906H5.44895V18H4.52637Z" fill="white"/>
</svg>
