<svg width="24" height="24" viewBox="0 0 24 24" fill="none" xmlns="http://www.w3.org/2000/svg">
    <path fill-rule="evenodd" clip-rule="evenodd" d="M4.587 10.9854C4.587 7.4574 7.457 4.5874 10.985 4.5874C14.514 4.5874 17.384 7.4574 17.384 10.9854C17.384 14.5134 14.514 17.3834 10.985 17.3834C7.457 17.3834 4.587 14.5134 4.587 10.9854ZM20.689 19.2864L17.284 15.8814C18.337 14.5284 18.971 12.8334 18.971 10.9854C18.971 6.5754 15.396 3.0004 10.985 3.0004C6.575 3.0004 3 6.5754 3 10.9854C3 15.3954 6.575 18.9704 10.985 18.9704C12.833 18.9704 14.529 18.3374 15.882 17.2844L16.229 17.6314L19.286 20.6884C19.481 20.8814 19.733 20.9784 19.987 20.9784C20.241 20.9784 20.495 20.8814 20.689 20.6884C21.076 20.3004 21.076 19.6734 20.689 19.2864Z" fill="#2A4454"/>
</svg>
