<svg width="24" height="24" viewBox="0 0 24 24" fill="none" xmlns="http://www.w3.org/2000/svg">
    <path fill-rule="evenodd" clip-rule="evenodd" d="M12.0044 8.04816H3.78903C3.40043 8.04816 3.03176 7.98838 2.70295 7.75422C2.29941 7.4553 2.03536 7.0667 2.0254 6.56352C2.00547 5.54221 1.99052 4.5209 2.0254 3.49958C2.05529 2.68752 2.69298 2.08968 3.50007 2.01495C3.59971 2.00498 3.69935 2.00498 3.79899 2.00498C9.26924 2.00498 14.7395 2.00498 20.2097 2C20.8524 2 21.4054 2.18932 21.7342 2.75727C21.8837 3.01633 21.9833 3.34514 21.9933 3.64905C22.0282 4.56075 22.0182 5.47246 22.0033 6.38915C21.9883 7.39053 21.3008 8.04816 20.2795 8.04816H12.0044ZM17.5792 5.72156C17.7302 5.72156 17.8817 5.72211 18.0333 5.72267H18.0334C18.3373 5.72377 18.6419 5.72488 18.9443 5.72156C19.3628 5.71658 19.6717 5.42264 19.6767 5.03404C19.6816 4.63548 19.3678 4.33158 18.9343 4.33158C18.0376 4.3266 17.1458 4.3266 16.249 4.33158C15.8056 4.33158 15.4967 4.62054 15.4918 5.0191C15.4868 5.42762 15.8056 5.72156 16.259 5.72156C16.5548 5.72488 16.8483 5.72377 17.1412 5.72267H17.1412C17.2873 5.72211 17.4333 5.72156 17.5792 5.72156ZM6.88784 5.01412C6.88285 4.50595 6.47433 4.10241 5.96118 4.10241C5.44305 4.10241 5.02457 4.5209 5.02955 5.03903C5.03453 5.54719 5.44804 5.95073 5.9562 5.95073C6.47931 5.95073 6.89282 5.53224 6.88784 5.01412ZM10.1411 5.02408C10.1411 4.51093 9.74253 4.10739 9.22938 4.09743C8.70627 4.08746 8.29276 4.49599 8.29276 5.0191C8.29276 5.54221 8.70627 5.95073 9.22938 5.94575C9.74253 5.94077 10.1411 5.53723 10.1411 5.02408ZM12.0091 8.9798C12.9239 8.9798 13.8393 8.98036 14.7549 8.98091H14.7549C16.5866 8.98202 18.4191 8.98312 20.2493 8.9798C20.887 8.9798 21.3952 9.20399 21.7539 9.74205C21.9482 10.036 22.003 10.3698 22.003 10.7135C22.003 10.9986 22.0035 11.283 22.0041 11.5673L22.0041 11.5697V11.5703C22.0052 12.1397 22.0063 12.7084 22.003 13.2793C21.998 14.3504 21.3304 15.023 20.2593 15.023C17.9807 15.0263 15.6998 15.0252 13.4197 15.0241C12.28 15.0235 11.1404 15.023 10.0013 15.023C9.30735 15.023 8.61338 15.0224 7.91922 15.0219C6.53034 15.0208 5.14073 15.0197 3.7489 15.023C3.11121 15.023 2.57813 14.8038 2.26427 14.2408C2.10982 13.9618 2.03011 13.6181 2.02015 13.2942C1.99276 12.6175 1.99917 11.9407 2.00559 11.2616C2.00735 11.0758 2.00911 10.8898 2.01018 10.7036C2.01516 9.64739 2.68774 8.97482 3.73894 8.97482C5.11575 8.97482 6.49256 8.97606 7.86999 8.97731H7.87027L7.87157 8.97731C9.2499 8.97856 10.6289 8.9798 12.0091 8.9798ZM17.569 12.6964H18.9092C19.3625 12.6914 19.6814 12.3975 19.6764 11.9939C19.6714 11.5954 19.3575 11.3064 18.9191 11.3064C18.0323 11.3014 17.1455 11.3014 16.2587 11.3064C15.8054 11.3064 15.4865 11.6003 15.4915 12.0089C15.4965 12.4074 15.8103 12.6964 16.2488 12.6964C16.5445 12.6997 16.838 12.6986 17.1307 12.6975H17.1309C17.2771 12.6969 17.423 12.6964 17.569 12.6964ZM5.99081 11.0772C5.48264 11.0573 5.05419 11.4509 5.02928 11.9541C5.00437 12.4672 5.40791 12.9006 5.92604 12.9206C6.43421 12.9405 6.86266 12.5469 6.88259 12.0437C6.9075 11.5206 6.51392 11.0972 5.99081 11.0772ZM9.20421 11.0772C8.69106 11.0822 8.2925 11.4858 8.2925 11.9989C8.2925 12.522 8.706 12.9305 9.22413 12.9256C9.73728 12.9206 10.1358 12.517 10.1358 12.0039C10.1408 11.4808 9.72732 11.0722 9.20421 11.0772ZM14.0746 15.9552C13.3896 15.9549 12.7045 15.9546 12.0194 15.9546C11.1012 15.9546 10.1825 15.9541 9.26356 15.9535C7.4252 15.9524 5.5861 15.9513 3.74922 15.9546C2.67808 15.9546 2.01049 16.6272 2.00551 17.6983C2.00053 18.5552 2.00053 19.4072 2.00551 20.2641C2.01049 21.3202 2.68307 21.9928 3.73427 21.9978C4.15589 22.0011 4.57531 22 4.99546 21.9989C5.20581 21.9984 5.41634 21.9978 5.62743 21.9978H20.2197C21.3357 21.9978 21.9983 21.3352 21.9983 20.2142C21.9994 20.0327 22.0011 19.8512 22.0029 19.6697C22.0093 19.0043 22.0158 18.3389 21.9884 17.6734C21.9784 17.3546 21.8987 17.0108 21.7442 16.7318C21.4254 16.1539 20.8823 15.9496 20.2347 15.9496C18.1834 15.9571 16.1294 15.9562 14.0746 15.9552ZM18.023 19.6723C17.8736 19.6718 17.7239 19.6712 17.5743 19.6712C17.3557 19.6712 17.1371 19.6724 16.9179 19.6737C16.6975 19.6749 16.4764 19.6762 16.2541 19.6762C15.8007 19.6712 15.4818 19.3773 15.4868 18.9687C15.4918 18.5702 15.8007 18.2812 16.2441 18.2812C17.1309 18.2762 18.0177 18.2762 18.9045 18.2812C19.3578 18.2812 19.6767 18.5752 19.6717 18.9837C19.6667 19.3822 19.3529 19.6662 18.9145 19.6712C18.619 19.6745 18.3214 19.6734 18.023 19.6723ZM5.97119 18.052C6.48434 18.057 6.88788 18.4656 6.88788 18.9737C6.88788 19.4918 6.46939 19.9054 5.94628 19.8954C5.43812 19.8904 5.02959 19.4819 5.02959 18.9737C5.02959 18.4606 5.45306 18.0471 5.97119 18.052ZM9.23939 18.052C9.75254 18.062 10.1461 18.4705 10.1411 18.9837C10.1362 19.4968 9.73261 19.8954 9.21946 19.8954C8.69635 19.9004 8.28783 19.4869 8.29281 18.9638C8.29779 18.4406 8.71628 18.0371 9.23939 18.052Z" fill="#2A4454"/>
</svg>
