<svg width="221" height="24" viewBox="0 0 221 24" fill="none" xmlns="http://www.w3.org/2000/svg">
    <circle cx="12" cy="12" r="12" fill="#D30000"/>
    <path fill-rule="evenodd" clip-rule="evenodd" d="M9.7123 17.4C9.5075 17.4 9.3027 17.3216 9.1467 17.1656L5.7219 13.7408C5.4091 13.428 5.4091 12.9216 5.7219 12.6096C6.0339 12.2968 6.5403 12.2968 6.8531 12.6096L9.7123 15.4688L17.1467 8.0344C17.4595 7.7216 17.9651 7.7216 18.2779 8.0344C18.5907 8.3472 18.5907 8.8528 18.2779 9.1656L10.2779 17.1656C10.1219 17.3216 9.9171 17.4 9.7123 17.4Z" fill="white"/>
    <rect width="24" height="2" transform="translate(48 13) rotate(-180)" fill="#D30000"/>
    <rect x="48" width="24" height="24" rx="12" fill="#D30000"/>
    <path d="M56.9281 16.5V15.1705L60.0346 12.294C60.2988 12.0384 60.5204 11.8082 60.6994 11.6037C60.8812 11.3991 61.019 11.1989 61.1127 11.0028C61.2065 10.804 61.2534 10.5895 61.2534 10.3594C61.2534 10.1037 61.1951 9.88352 61.0787 9.69886C60.9622 9.51136 60.8031 9.3679 60.6014 9.26847C60.3997 9.16619 60.171 9.11506 59.9153 9.11506C59.6483 9.11506 59.4153 9.16903 59.2164 9.27699C59.0176 9.38494 58.8642 9.53977 58.7562 9.74148C58.6483 9.94318 58.5943 10.1832 58.5943 10.4616H56.8429C56.8429 9.89062 56.9721 9.39489 57.2306 8.97443C57.4892 8.55398 57.8514 8.22869 58.3173 7.99858C58.7832 7.76847 59.3201 7.65341 59.9281 7.65341C60.5531 7.65341 61.0971 7.7642 61.5602 7.9858C62.0261 8.20455 62.3883 8.50852 62.6468 8.89773C62.9054 9.28693 63.0346 9.73295 63.0346 10.2358C63.0346 10.5653 62.9693 10.8906 62.8386 11.2116C62.7108 11.5327 62.4821 11.8892 62.1525 12.2812C61.823 12.6705 61.3585 13.1378 60.7591 13.6832L59.4849 14.9318V14.9915H63.1497V16.5H56.9281Z" fill="white"/>
    <path d="M82.3665 6.81818L85.0163 14.8324H85.1207L87.7656 6.81818H89.794L86.2045 17H83.9276L80.343 6.81818H82.3665ZM93.8959 17.1491C93.1303 17.1491 92.4691 16.9901 91.9123 16.6719C91.3588 16.3504 90.9329 15.8963 90.6346 15.3097C90.3363 14.7197 90.1871 14.0253 90.1871 13.2266C90.1871 12.4411 90.3363 11.7517 90.6346 11.1584C90.9362 10.5618 91.3571 10.0978 91.8974 9.76633C92.4376 9.43158 93.0723 9.2642 93.8015 9.2642C94.2721 9.2642 94.7163 9.34044 95.1339 9.4929C95.5548 9.64205 95.926 9.87405 96.2475 10.1889C96.5723 10.5038 96.8275 10.9048 97.0131 11.392C97.1987 11.8759 97.2915 12.4527 97.2915 13.1222V13.674H91.0323V12.4609H95.5664C95.5631 12.1162 95.4885 11.8097 95.3427 11.5412C95.1968 11.2694 94.993 11.0556 94.7312 10.8999C94.4726 10.7441 94.171 10.6662 93.8263 10.6662C93.4584 10.6662 93.1353 10.7557 92.8569 10.9347C92.5785 11.1103 92.3614 11.3423 92.2056 11.6307C92.0531 11.9157 91.9753 12.2289 91.9719 12.5703V13.6293C91.9719 14.0734 92.0531 14.4545 92.2155 14.7727C92.378 15.0876 92.605 15.3295 92.8967 15.4986C93.1883 15.6643 93.5297 15.7472 93.9208 15.7472C94.1826 15.7472 94.4196 15.7107 94.6317 15.6378C94.8439 15.5616 95.0278 15.4505 95.1836 15.3047C95.3394 15.1589 95.457 14.9782 95.5366 14.7628L97.217 14.9517C97.1109 15.3958 96.9087 15.7836 96.6104 16.1151C96.3155 16.4432 95.9376 16.6984 95.4769 16.8807C95.0162 17.0597 94.4892 17.1491 93.8959 17.1491ZM99.0941 17V9.36364H100.839V10.6364H100.919C101.058 10.1955 101.297 9.85582 101.635 9.61719C101.976 9.37524 102.365 9.25426 102.803 9.25426C102.902 9.25426 103.013 9.25923 103.136 9.26918C103.262 9.2758 103.366 9.2874 103.449 9.30398V10.9595C103.373 10.933 103.252 10.9098 103.086 10.8899C102.924 10.8667 102.766 10.8551 102.614 10.8551C102.286 10.8551 101.991 10.9264 101.729 11.0689C101.471 11.2081 101.267 11.402 101.118 11.6506C100.968 11.8991 100.894 12.1858 100.894 12.5107V17H99.0941ZM104.925 17V9.36364H106.725V17H104.925ZM105.83 8.27983C105.545 8.27983 105.299 8.18537 105.094 7.99645C104.888 7.80421 104.786 7.57386 104.786 7.3054C104.786 7.03362 104.888 6.80327 105.094 6.61435C105.299 6.42211 105.545 6.32599 105.83 6.32599C106.118 6.32599 106.363 6.42211 106.565 6.61435C106.771 6.80327 106.874 7.03362 106.874 7.3054C106.874 7.57386 106.771 7.80421 106.565 7.99645C106.363 8.18537 106.118 8.27983 105.83 8.27983ZM112.723 9.36364V10.7557H108.209V9.36364H112.723ZM109.338 17V8.64276C109.338 8.12902 109.444 7.70147 109.656 7.36008C109.871 7.0187 110.159 6.76349 110.521 6.59446C110.882 6.42543 111.283 6.34091 111.724 6.34091C112.035 6.34091 112.312 6.36577 112.554 6.41548C112.796 6.4652 112.975 6.50994 113.091 6.54972L112.733 7.94176C112.657 7.91856 112.561 7.89536 112.445 7.87216C112.329 7.84564 112.199 7.83239 112.057 7.83239C111.722 7.83239 111.485 7.91359 111.346 8.07599C111.21 8.23508 111.142 8.46378 111.142 8.76207V17H109.338ZM114.413 17V9.36364H116.212V17H114.413ZM115.317 8.27983C115.032 8.27983 114.787 8.18537 114.582 7.99645C114.376 7.80421 114.273 7.57386 114.273 7.3054C114.273 7.03362 114.376 6.80327 114.582 6.61435C114.787 6.42211 115.032 6.32599 115.317 6.32599C115.606 6.32599 115.851 6.42211 116.053 6.61435C116.259 6.80327 116.361 7.03362 116.361 7.3054C116.361 7.57386 116.259 7.80421 116.053 7.99645C115.851 8.18537 115.606 8.27983 115.317 8.27983ZM121.674 17.1491C120.912 17.1491 120.257 16.9818 119.71 16.647C119.167 16.3123 118.747 15.8499 118.452 15.2599C118.161 14.6667 118.015 13.9839 118.015 13.2116C118.015 12.4361 118.164 11.7517 118.462 11.1584C118.761 10.5618 119.182 10.0978 119.725 9.76633C120.272 9.43158 120.918 9.2642 121.664 9.2642C122.284 9.2642 122.832 9.37855 123.31 9.60724C123.79 9.83262 124.173 10.1525 124.458 10.5668C124.743 10.9777 124.905 11.4583 124.945 12.0085H123.225C123.155 11.6406 122.99 11.334 122.728 11.0888C122.469 10.8402 122.123 10.7159 121.689 10.7159C121.321 10.7159 120.998 10.8153 120.719 11.0142C120.441 11.2098 120.224 11.4915 120.068 11.8594C119.916 12.2273 119.839 12.6681 119.839 13.1818C119.839 13.7022 119.916 14.1496 120.068 14.5241C120.221 14.8954 120.434 15.1821 120.709 15.3842C120.988 15.5831 121.314 15.6825 121.689 15.6825C121.954 15.6825 122.191 15.6328 122.4 15.5334C122.612 15.4306 122.789 15.2831 122.932 15.0909C123.074 14.8987 123.172 14.665 123.225 14.3899H124.945C124.902 14.9302 124.743 15.4091 124.468 15.8267C124.193 16.241 123.818 16.5658 123.344 16.8011C122.87 17.0331 122.314 17.1491 121.674 17.1491ZM128.901 17.1541C128.417 17.1541 127.981 17.0679 127.593 16.8956C127.209 16.7199 126.904 16.4614 126.678 16.12C126.456 15.7786 126.345 15.3577 126.345 14.8572C126.345 14.4264 126.425 14.0701 126.584 13.7884C126.743 13.5066 126.96 13.2812 127.235 13.1122C127.51 12.9432 127.82 12.8156 128.165 12.7294C128.513 12.6399 128.872 12.5753 129.244 12.5355C129.691 12.4891 130.054 12.4477 130.332 12.4112C130.611 12.3714 130.813 12.3118 130.939 12.2322C131.068 12.1494 131.133 12.0218 131.133 11.8494V11.8196C131.133 11.4451 131.022 11.1551 130.8 10.9496C130.578 10.7441 130.258 10.6413 129.84 10.6413C129.399 10.6413 129.05 10.7375 128.791 10.9297C128.536 11.1219 128.364 11.349 128.274 11.6108L126.594 11.3722C126.726 10.9081 126.945 10.5204 127.25 10.2088C127.555 9.89394 127.928 9.65862 128.369 9.50284C128.809 9.34375 129.297 9.2642 129.83 9.2642C130.198 9.2642 130.564 9.30729 130.929 9.39347C131.294 9.47964 131.627 9.62216 131.928 9.82102C132.23 10.0166 132.472 10.2834 132.654 10.6214C132.84 10.9595 132.932 11.3821 132.932 11.8892V17H131.202V15.951H131.143C131.033 16.1631 130.879 16.362 130.68 16.5476C130.485 16.7299 130.238 16.8774 129.94 16.9901C129.645 17.0994 129.298 17.1541 128.901 17.1541ZM129.368 15.8317C129.729 15.8317 130.042 15.7604 130.307 15.6179C130.573 15.4721 130.776 15.2798 130.919 15.0412C131.065 14.8026 131.138 14.5424 131.138 14.2607V13.3608C131.081 13.4072 130.985 13.4503 130.849 13.4901C130.717 13.5298 130.568 13.5646 130.402 13.5945C130.236 13.6243 130.072 13.6508 129.91 13.674C129.747 13.6972 129.606 13.7171 129.487 13.7337C129.219 13.7701 128.978 13.8298 128.766 13.9126C128.554 13.9955 128.387 14.1115 128.264 14.2607C128.142 14.4065 128.08 14.5954 128.08 14.8274C128.08 15.1589 128.201 15.4091 128.443 15.5781C128.685 15.7472 128.993 15.8317 129.368 15.8317ZM138.835 9.36364V10.7557H134.445V9.36364H138.835ZM135.529 7.53409H137.329V14.7031C137.329 14.9451 137.365 15.1307 137.438 15.2599C137.515 15.3859 137.614 15.4721 137.737 15.5185C137.859 15.5649 137.995 15.5881 138.144 15.5881C138.257 15.5881 138.36 15.5798 138.453 15.5632C138.549 15.5466 138.622 15.5317 138.671 15.5185L138.975 16.9254C138.878 16.9586 138.741 16.995 138.562 17.0348C138.386 17.0746 138.171 17.0978 137.916 17.1044C137.465 17.1177 137.059 17.0497 136.698 16.9006C136.336 16.7481 136.05 16.5128 135.837 16.1946C135.629 15.8764 135.526 15.4787 135.529 15.0014V7.53409ZM140.62 17V9.36364H142.42V17H140.62ZM141.525 8.27983C141.24 8.27983 140.995 8.18537 140.79 7.99645C140.584 7.80421 140.481 7.57386 140.481 7.3054C140.481 7.03362 140.584 6.80327 140.79 6.61435C140.995 6.42211 141.24 6.32599 141.525 6.32599C141.814 6.32599 142.059 6.42211 142.261 6.61435C142.467 6.80327 142.569 7.03362 142.569 7.3054C142.569 7.57386 142.467 7.80421 142.261 7.99645C142.059 8.18537 141.814 8.27983 141.525 8.27983ZM147.882 17.1491C147.136 17.1491 146.49 16.9851 145.943 16.657C145.396 16.3288 144.972 15.8698 144.67 15.2798C144.372 14.6899 144.223 14.0005 144.223 13.2116C144.223 12.4228 144.372 11.7318 144.67 11.1385C144.972 10.5452 145.396 10.0845 145.943 9.75639C146.49 9.42827 147.136 9.2642 147.882 9.2642C148.628 9.2642 149.274 9.42827 149.821 9.75639C150.368 10.0845 150.79 10.5452 151.089 11.1385C151.39 11.7318 151.541 12.4228 151.541 13.2116C151.541 14.0005 151.39 14.6899 151.089 15.2798C150.79 15.8698 150.368 16.3288 149.821 16.657C149.274 16.9851 148.628 17.1491 147.882 17.1491ZM147.892 15.7074C148.296 15.7074 148.634 15.5964 148.906 15.3743C149.178 15.1489 149.38 14.8473 149.513 14.4695C149.648 14.0916 149.716 13.6707 149.716 13.2067C149.716 12.7393 149.648 12.3168 149.513 11.9389C149.38 11.5578 149.178 11.2545 148.906 11.0291C148.634 10.8037 148.296 10.6911 147.892 10.6911C147.477 10.6911 147.133 10.8037 146.858 11.0291C146.586 11.2545 146.382 11.5578 146.246 11.9389C146.114 12.3168 146.047 12.7393 146.047 13.2067C146.047 13.6707 146.114 14.0916 146.246 14.4695C146.382 14.8473 146.586 15.1489 146.858 15.3743C147.133 15.5964 147.477 15.7074 147.892 15.7074ZM155.148 12.5256V17H153.348V9.36364H155.069V10.6612H155.158C155.334 10.2337 155.614 9.89394 155.998 9.64205C156.386 9.39015 156.865 9.2642 157.435 9.2642C157.962 9.2642 158.421 9.37689 158.812 9.60227C159.207 9.82765 159.512 10.1541 159.727 10.5817C159.946 11.0092 160.053 11.5279 160.05 12.1378V17H158.25V12.4162C158.25 11.9058 158.118 11.5064 157.853 11.218C157.591 10.9297 157.228 10.7855 156.764 10.7855C156.449 10.7855 156.169 10.8551 155.924 10.9943C155.682 11.1302 155.491 11.3274 155.352 11.5859C155.216 11.8445 155.148 12.1577 155.148 12.5256Z" fill="#2A4454"/>
    <rect width="24" height="2" transform="translate(197 13) rotate(-180)" fill="#ADB5BD"/>
    <rect x="198" y="1" width="22" height="22" rx="11" fill="white"/>
    <rect x="198" y="1" width="22" height="22" rx="11" stroke="#ADB5BD" stroke-width="2"/>
    <path d="M208.999 16.6193C208.386 16.6193 207.84 16.5142 207.363 16.304C206.889 16.0937 206.514 15.8011 206.238 15.4261C205.963 15.0511 205.816 14.6179 205.799 14.1264H207.401C207.416 14.3622 207.494 14.5682 207.636 14.7443C207.778 14.9176 207.967 15.0526 208.203 15.1491C208.438 15.2457 208.703 15.294 208.995 15.294C209.308 15.294 209.585 15.2401 209.826 15.1321C210.068 15.0213 210.257 14.8679 210.393 14.6719C210.529 14.4759 210.596 14.25 210.593 13.9943C210.596 13.7301 210.528 13.4972 210.389 13.2955C210.249 13.0937 210.048 12.9361 209.784 12.8224C209.522 12.7088 209.207 12.652 208.838 12.652H208.066V11.4332H208.838C209.142 11.4332 209.407 11.3807 209.634 11.2756C209.865 11.1705 210.045 11.0227 210.176 10.8324C210.306 10.6392 210.37 10.4162 210.367 10.1634C210.37 9.91619 210.315 9.7017 210.201 9.51989C210.09 9.33523 209.933 9.19176 209.728 9.08949C209.526 8.98722 209.289 8.93608 209.017 8.93608C208.749 8.93608 208.502 8.98437 208.275 9.08097C208.048 9.17756 207.865 9.31534 207.725 9.49432C207.586 9.67045 207.512 9.88068 207.504 10.125H205.982C205.994 9.63636 206.134 9.20739 206.404 8.83807C206.677 8.46591 207.041 8.17614 207.495 7.96875C207.95 7.75852 208.46 7.65341 209.025 7.65341C209.607 7.65341 210.113 7.76278 210.542 7.98153C210.974 8.19744 211.308 8.48864 211.544 8.85511C211.779 9.22159 211.897 9.62642 211.897 10.0696C211.9 10.5611 211.755 10.973 211.463 11.3054C211.173 11.6378 210.792 11.8551 210.32 11.9574V12.0256C210.934 12.1108 211.404 12.3381 211.731 12.7074C212.061 13.0739 212.224 13.5298 212.221 14.0753C212.221 14.5639 212.082 15.0014 211.803 15.3878C211.528 15.7713 211.147 16.0724 210.661 16.2912C210.178 16.5099 209.624 16.6193 208.999 16.6193Z" fill="#ADB5BD"/>
</svg>
