<svg width="342" height="90" viewBox="0 0 342 90" fill="none" xmlns="http://www.w3.org/2000/svg">
    <circle cx="9" cy="9" r="4" fill="#D9D9D9"/>
    <path d="M27.0568 4.27273H28.3182L31.2841 11.517H31.3864L34.3523 4.27273H35.6136V13H34.625V6.36932H34.5398L31.8125 13H30.858L28.1307 6.36932H28.0455V13H27.0568V4.27273ZM37.8362 13V6.45455H38.8419V13H37.8362ZM38.3476 5.36364C38.1516 5.36364 37.9825 5.29688 37.8405 5.16335C37.7013 5.02983 37.6317 4.86932 37.6317 4.68182C37.6317 4.49432 37.7013 4.33381 37.8405 4.20028C37.9825 4.06676 38.1516 4 38.3476 4C38.5436 4 38.7112 4.06676 38.8504 4.20028C38.9925 4.33381 39.0635 4.49432 39.0635 4.68182C39.0635 4.86932 38.9925 5.02983 38.8504 5.16335C38.7112 5.29688 38.5436 5.36364 38.3476 5.36364ZM41.9296 9.0625V13H40.9239V6.45455H41.8955V7.47727H41.9807C42.1341 7.14489 42.3671 6.87784 42.6796 6.67614C42.9921 6.47159 43.3955 6.36932 43.8898 6.36932C44.333 6.36932 44.7208 6.46023 45.0532 6.64205C45.3855 6.82102 45.6441 7.09375 45.8287 7.46023C46.0134 7.82386 46.1057 8.28409 46.1057 8.84091V13H45.1V8.90909C45.1 8.39489 44.9665 7.99432 44.6995 7.70739C44.4324 7.41761 44.0659 7.27273 43.6 7.27273C43.279 7.27273 42.9921 7.34233 42.7392 7.48153C42.4892 7.62074 42.2918 7.82386 42.1469 8.09091C42.002 8.35795 41.9296 8.68182 41.9296 9.0625ZM48.1834 13V6.45455H49.1891V13H48.1834ZM48.6948 5.36364C48.4988 5.36364 48.3297 5.29688 48.1877 5.16335C48.0485 5.02983 47.9789 4.86932 47.9789 4.68182C47.9789 4.49432 48.0485 4.33381 48.1877 4.20028C48.3297 4.06676 48.4988 4 48.6948 4C48.8908 4 49.0584 4.06676 49.1976 4.20028C49.3397 4.33381 49.4107 4.49432 49.4107 4.68182C49.4107 4.86932 49.3397 5.02983 49.1976 5.16335C49.0584 5.29688 48.8908 5.36364 48.6948 5.36364ZM51.2711 13V6.45455H52.2427V7.47727H52.3279C52.4643 7.12784 52.6844 6.85653 52.9884 6.66335C53.2924 6.46733 53.6574 6.36932 54.0836 6.36932C54.5154 6.36932 54.8748 6.46733 55.1617 6.66335C55.4515 6.85653 55.6773 7.12784 55.8393 7.47727H55.9074C56.0751 7.1392 56.3265 6.87074 56.6617 6.67188C56.9969 6.47017 57.3989 6.36932 57.8677 6.36932C58.4529 6.36932 58.9316 6.55256 59.3037 6.91903C59.6759 7.28267 59.862 7.84943 59.862 8.61932V13H58.8563V8.61932C58.8563 8.13636 58.7242 7.79119 58.46 7.58381C58.1958 7.37642 57.8847 7.27273 57.5268 7.27273C57.0665 7.27273 56.71 7.41193 56.4572 7.69034C56.2043 7.96591 56.0779 8.31534 56.0779 8.73864V13H55.0552V8.51705C55.0552 8.14489 54.9344 7.84517 54.693 7.6179C54.4515 7.38778 54.1404 7.27273 53.7597 7.27273C53.4984 7.27273 53.254 7.34233 53.0268 7.48153C52.8023 7.62074 52.6205 7.81392 52.4813 8.06108C52.3449 8.3054 52.2768 8.58807 52.2768 8.90909V13H51.2711ZM66.0658 10.3239V6.45455H67.0714V13H66.0658V11.892H65.9976C65.8442 12.2244 65.6055 12.5071 65.2817 12.7401C64.9578 12.9702 64.5487 13.0852 64.0544 13.0852C63.6453 13.0852 63.2817 12.9957 62.9635 12.8168C62.6453 12.6349 62.3953 12.3622 62.2135 11.9986C62.0317 11.6321 61.9408 11.1705 61.9408 10.6136V6.45455H62.9464V10.5455C62.9464 11.0227 63.08 11.4034 63.347 11.6875C63.6169 11.9716 63.9607 12.1136 64.3783 12.1136C64.6283 12.1136 64.8825 12.0497 65.1411 11.9219C65.4024 11.794 65.6212 11.598 65.7973 11.3338C65.9763 11.0696 66.0658 10.733 66.0658 10.3239ZM69.1534 13V6.45455H70.125V7.47727H70.2102C70.3466 7.12784 70.5668 6.85653 70.8708 6.66335C71.1747 6.46733 71.5398 6.36932 71.9659 6.36932C72.3977 6.36932 72.7571 6.46733 73.044 6.66335C73.3338 6.85653 73.5597 7.12784 73.7216 7.47727H73.7898C73.9574 7.1392 74.2088 6.87074 74.544 6.67188C74.8793 6.47017 75.2813 6.36932 75.75 6.36932C76.3352 6.36932 76.8139 6.55256 77.1861 6.91903C77.5583 7.28267 77.7443 7.84943 77.7443 8.61932V13H76.7386V8.61932C76.7386 8.13636 76.6065 7.79119 76.3423 7.58381C76.0781 7.37642 75.7671 7.27273 75.4091 7.27273C74.9489 7.27273 74.5923 7.41193 74.3395 7.69034C74.0867 7.96591 73.9602 8.31534 73.9602 8.73864V13H72.9375V8.51705C72.9375 8.14489 72.8168 7.84517 72.5753 7.6179C72.3338 7.38778 72.0227 7.27273 71.6421 7.27273C71.3807 7.27273 71.1364 7.34233 70.9091 7.48153C70.6847 7.62074 70.5029 7.81392 70.3636 8.06108C70.2273 8.3054 70.1591 8.58807 70.1591 8.90909V13H69.1534ZM86.0972 13.1364C85.5063 13.1364 84.9878 12.9957 84.5418 12.7145C84.0986 12.4332 83.752 12.0398 83.502 11.5341C83.2549 11.0284 83.1313 10.4375 83.1313 9.76136C83.1313 9.07955 83.2549 8.48437 83.502 7.97585C83.752 7.46733 84.0986 7.07244 84.5418 6.79119C84.9878 6.50994 85.5063 6.36932 86.0972 6.36932C86.6881 6.36932 87.2052 6.50994 87.6483 6.79119C88.0944 7.07244 88.441 7.46733 88.6881 7.97585C88.9381 8.48437 89.0631 9.07955 89.0631 9.76136C89.0631 10.4375 88.9381 11.0284 88.6881 11.5341C88.441 12.0398 88.0944 12.4332 87.6483 12.7145C87.2052 12.9957 86.6881 13.1364 86.0972 13.1364ZM86.0972 12.233C86.5461 12.233 86.9154 12.1179 87.2052 11.8878C87.4949 11.6577 87.7094 11.3551 87.8486 10.9801C87.9878 10.6051 88.0574 10.1989 88.0574 9.76136C88.0574 9.32386 87.9878 8.91619 87.8486 8.53835C87.7094 8.16051 87.4949 7.85511 87.2052 7.62216C86.9154 7.3892 86.5461 7.27273 86.0972 7.27273C85.6483 7.27273 85.279 7.3892 84.9892 7.62216C84.6995 7.85511 84.485 8.16051 84.3458 8.53835C84.2066 8.91619 84.137 9.32386 84.137 9.76136C84.137 10.1989 84.2066 10.6051 84.3458 10.9801C84.485 11.3551 84.6995 11.6577 84.9892 11.8878C85.279 12.1179 85.6483 12.233 86.0972 12.233ZM93.753 6.45455V7.30682H90.2246V6.45455H93.753ZM91.2814 13V5.55114C91.2814 5.17614 91.3695 4.86364 91.5457 4.61364C91.7218 4.36364 91.9505 4.17614 92.2317 4.05114C92.513 3.92614 92.8099 3.86364 93.1224 3.86364C93.3695 3.86364 93.5712 3.88352 93.7275 3.9233C93.8837 3.96307 94.0002 4 94.0769 4.03409L93.7871 4.90341C93.736 4.88636 93.665 4.86506 93.5741 4.83949C93.486 4.81392 93.3695 4.80114 93.2246 4.80114C92.8922 4.80114 92.6522 4.88494 92.5045 5.05256C92.3596 5.22017 92.2871 5.46591 92.2871 5.78977V13H91.2814ZM102.069 4.27273V13H101.012V5.38068H100.961L98.83 6.79545V5.72159L101.012 4.27273H102.069ZM107.665 13.1193C107.023 13.1193 106.476 12.9446 106.025 12.5952C105.573 12.2429 105.228 11.733 104.989 11.0653C104.75 10.3949 104.631 9.58523 104.631 8.63636C104.631 7.69318 104.75 6.88778 104.989 6.22017C105.23 5.54972 105.577 5.03835 106.029 4.68608C106.483 4.33097 107.029 4.15341 107.665 4.15341C108.302 4.15341 108.846 4.33097 109.297 4.68608C109.752 5.03835 110.098 5.54972 110.337 6.22017C110.579 6.88778 110.699 7.69318 110.699 8.63636C110.699 9.58523 110.58 10.3949 110.341 11.0653C110.103 11.733 109.757 12.2429 109.306 12.5952C108.854 12.9446 108.307 13.1193 107.665 13.1193ZM107.665 12.1818C108.302 12.1818 108.796 11.875 109.148 11.2614C109.5 10.6477 109.677 9.77273 109.677 8.63636C109.677 7.88068 109.596 7.23722 109.434 6.70597C109.275 6.17472 109.044 5.76989 108.743 5.49148C108.445 5.21307 108.086 5.07386 107.665 5.07386C107.034 5.07386 106.542 5.38494 106.186 6.0071C105.831 6.62642 105.654 7.50284 105.654 8.63636C105.654 9.39205 105.733 10.0341 105.892 10.5625C106.052 11.0909 106.28 11.4929 106.579 11.7685C106.88 12.044 107.242 12.1818 107.665 12.1818ZM118.85 13.1364C118.236 13.1364 117.708 12.9915 117.264 12.7017C116.821 12.4119 116.48 12.0128 116.242 11.5043C116.003 10.9957 115.884 10.4148 115.884 9.76136C115.884 9.09659 116.006 8.50994 116.25 8.00142C116.497 7.49006 116.841 7.09091 117.282 6.80398C117.725 6.5142 118.242 6.36932 118.833 6.36932C119.293 6.36932 119.708 6.45455 120.077 6.625C120.446 6.79545 120.749 7.03409 120.985 7.34091C121.22 7.64773 121.367 8.00568 121.424 8.41477H120.418C120.341 8.11648 120.171 7.85227 119.907 7.62216C119.645 7.3892 119.293 7.27273 118.85 7.27273C118.458 7.27273 118.114 7.375 117.818 7.57955C117.526 7.78125 117.297 8.06676 117.132 8.43608C116.97 8.80256 116.889 9.23295 116.889 9.72727C116.889 10.233 116.969 10.6733 117.128 11.0483C117.29 11.4233 117.517 11.7145 117.81 11.9219C118.105 12.1293 118.452 12.233 118.85 12.233C119.111 12.233 119.348 12.1875 119.561 12.0966C119.774 12.0057 119.955 11.875 120.103 11.7045C120.25 11.5341 120.355 11.3295 120.418 11.0909H121.424C121.367 11.4773 121.226 11.8253 121.002 12.1349C120.78 12.4418 120.486 12.6861 120.12 12.8679C119.756 13.0469 119.333 13.1364 118.85 13.1364ZM124.139 9.0625V13H123.134V4.27273H124.139V7.47727H124.225C124.378 7.1392 124.608 6.87074 124.915 6.67188C125.225 6.47017 125.637 6.36932 126.151 6.36932C126.597 6.36932 126.987 6.45881 127.323 6.63778C127.658 6.81392 127.918 7.08523 128.102 7.4517C128.29 7.81534 128.384 8.27841 128.384 8.84091V13H127.378V8.90909C127.378 8.3892 127.243 7.98722 126.973 7.70312C126.706 7.41619 126.335 7.27273 125.861 7.27273C125.531 7.27273 125.236 7.34233 124.975 7.48153C124.716 7.62074 124.512 7.82386 124.361 8.09091C124.213 8.35795 124.139 8.68182 124.139 9.0625ZM132.39 13.1534C131.975 13.1534 131.599 13.0753 131.26 12.919C130.922 12.7599 130.654 12.5312 130.455 12.233C130.256 11.9318 130.157 11.5682 130.157 11.142C130.157 10.767 130.231 10.4631 130.378 10.2301C130.526 9.99432 130.724 9.80966 130.971 9.67614C131.218 9.54261 131.491 9.44318 131.789 9.37784C132.09 9.30966 132.393 9.25568 132.697 9.21591C133.094 9.16477 133.417 9.12642 133.664 9.10085C133.914 9.07244 134.096 9.02557 134.209 8.96023C134.326 8.89489 134.384 8.78125 134.384 8.61932V8.58523C134.384 8.16477 134.269 7.83807 134.039 7.60511C133.812 7.37216 133.466 7.25568 133.003 7.25568C132.523 7.25568 132.147 7.3608 131.874 7.57102C131.601 7.78125 131.41 8.00568 131.299 8.24432L130.344 7.90341C130.515 7.50568 130.742 7.19602 131.026 6.97443C131.313 6.75 131.626 6.59375 131.964 6.50568C132.304 6.41477 132.64 6.36932 132.969 6.36932C133.179 6.36932 133.421 6.39489 133.694 6.44602C133.969 6.49432 134.235 6.59517 134.491 6.74858C134.749 6.90199 134.964 7.13352 135.134 7.44318C135.304 7.75284 135.39 8.16761 135.39 8.6875V13H134.384V12.1136H134.333C134.265 12.2557 134.151 12.4077 133.992 12.5696C133.833 12.7315 133.621 12.8693 133.357 12.983C133.093 13.0966 132.77 13.1534 132.39 13.1534ZM132.543 12.25C132.941 12.25 133.276 12.1719 133.549 12.0156C133.824 11.8594 134.032 11.6577 134.171 11.4105C134.313 11.1634 134.384 10.9034 134.384 10.6307V9.71023C134.341 9.76136 134.248 9.80824 134.103 9.85085C133.961 9.89062 133.796 9.92614 133.608 9.95739C133.424 9.9858 133.243 10.0114 133.067 10.0341C132.894 10.054 132.753 10.071 132.645 10.0852C132.384 10.1193 132.14 10.1747 131.912 10.2514C131.688 10.3253 131.506 10.4375 131.367 10.5881C131.231 10.7358 131.162 10.9375 131.162 11.1932C131.162 11.5426 131.292 11.8068 131.55 11.9858C131.812 12.1619 132.143 12.25 132.543 12.25ZM137.465 13V6.45455H138.437V7.44318H138.505C138.624 7.11932 138.84 6.85653 139.153 6.65483C139.465 6.45312 139.818 6.35227 140.21 6.35227C140.283 6.35227 140.376 6.35369 140.487 6.35653C140.597 6.35937 140.681 6.36364 140.738 6.36932V7.39205C140.704 7.38352 140.626 7.37074 140.504 7.35369C140.384 7.33381 140.258 7.32386 140.124 7.32386C139.806 7.32386 139.522 7.39062 139.272 7.52415C139.025 7.65483 138.829 7.83665 138.684 8.0696C138.542 8.29972 138.471 8.5625 138.471 8.85795V13H137.465ZM144.096 13.1534C143.682 13.1534 143.305 13.0753 142.967 12.919C142.629 12.7599 142.36 12.5312 142.162 12.233C141.963 11.9318 141.863 11.5682 141.863 11.142C141.863 10.767 141.937 10.4631 142.085 10.2301C142.233 9.99432 142.43 9.80966 142.677 9.67614C142.924 9.54261 143.197 9.44318 143.495 9.37784C143.797 9.30966 144.099 9.25568 144.403 9.21591C144.801 9.16477 145.123 9.12642 145.37 9.10085C145.62 9.07244 145.802 9.02557 145.916 8.96023C146.032 8.89489 146.091 8.78125 146.091 8.61932V8.58523C146.091 8.16477 145.976 7.83807 145.745 7.60511C145.518 7.37216 145.173 7.25568 144.71 7.25568C144.23 7.25568 143.853 7.3608 143.581 7.57102C143.308 7.78125 143.116 8.00568 143.005 8.24432L142.051 7.90341C142.221 7.50568 142.449 7.19602 142.733 6.97443C143.02 6.75 143.332 6.59375 143.67 6.50568C144.011 6.41477 144.346 6.36932 144.676 6.36932C144.886 6.36932 145.128 6.39489 145.4 6.44602C145.676 6.49432 145.941 6.59517 146.197 6.74858C146.456 6.90199 146.67 7.13352 146.841 7.44318C147.011 7.75284 147.096 8.16761 147.096 8.6875V13H146.091V12.1136H146.039C145.971 12.2557 145.858 12.4077 145.699 12.5696C145.539 12.7315 145.328 12.8693 145.064 12.983C144.799 13.0966 144.477 13.1534 144.096 13.1534ZM144.25 12.25C144.647 12.25 144.983 12.1719 145.255 12.0156C145.531 11.8594 145.738 11.6577 145.878 11.4105C146.02 11.1634 146.091 10.9034 146.091 10.6307V9.71023C146.048 9.76136 145.954 9.80824 145.809 9.85085C145.667 9.89062 145.503 9.92614 145.315 9.95739C145.13 9.9858 144.95 10.0114 144.774 10.0341C144.601 10.054 144.46 10.071 144.352 10.0852C144.091 10.1193 143.846 10.1747 143.619 10.2514C143.395 10.3253 143.213 10.4375 143.074 10.5881C142.937 10.7358 142.869 10.9375 142.869 11.1932C142.869 11.5426 142.998 11.8068 143.257 11.9858C143.518 12.1619 143.849 12.25 144.25 12.25ZM151.831 13.1364C151.217 13.1364 150.689 12.9915 150.246 12.7017C149.803 12.4119 149.462 12.0128 149.223 11.5043C148.984 10.9957 148.865 10.4148 148.865 9.76136C148.865 9.09659 148.987 8.50994 149.232 8.00142C149.479 7.49006 149.822 7.09091 150.263 6.80398C150.706 6.5142 151.223 6.36932 151.814 6.36932C152.274 6.36932 152.689 6.45455 153.058 6.625C153.428 6.79545 153.73 7.03409 153.966 7.34091C154.202 7.64773 154.348 8.00568 154.405 8.41477H153.399C153.322 8.11648 153.152 7.85227 152.888 7.62216C152.626 7.3892 152.274 7.27273 151.831 7.27273C151.439 7.27273 151.095 7.375 150.8 7.57955C150.507 7.78125 150.278 8.06676 150.114 8.43608C149.952 8.80256 149.871 9.23295 149.871 9.72727C149.871 10.233 149.95 10.6733 150.109 11.0483C150.271 11.4233 150.499 11.7145 150.791 11.9219C151.087 12.1293 151.433 12.233 151.831 12.233C152.092 12.233 152.33 12.1875 152.543 12.0966C152.756 12.0057 152.936 11.875 153.084 11.7045C153.232 11.5341 153.337 11.3295 153.399 11.0909H154.405C154.348 11.4773 154.207 11.8253 153.983 12.1349C153.761 12.4418 153.467 12.6861 153.101 12.8679C152.737 13.0469 152.314 13.1364 151.831 13.1364ZM158.962 6.45455V7.30682H155.57V6.45455H158.962ZM156.558 4.88636H157.564V11.125C157.564 11.4091 157.605 11.6222 157.687 11.7642C157.773 11.9034 157.881 11.9972 158.011 12.0455C158.145 12.0909 158.285 12.1136 158.433 12.1136C158.544 12.1136 158.635 12.108 158.706 12.0966C158.777 12.0824 158.834 12.071 158.876 12.0625L159.081 12.9659C159.013 12.9915 158.918 13.017 158.795 13.0426C158.673 13.071 158.518 13.0852 158.331 13.0852C158.047 13.0852 157.768 13.0241 157.496 12.902C157.226 12.7798 157.001 12.5938 156.822 12.3438C156.646 12.0938 156.558 11.7784 156.558 11.3977V4.88636ZM163.388 13.1364C162.758 13.1364 162.214 12.9972 161.756 12.7188C161.302 12.4375 160.951 12.0455 160.704 11.5426C160.459 11.0369 160.337 10.4489 160.337 9.77841C160.337 9.10795 160.459 8.51705 160.704 8.00568C160.951 7.49148 161.295 7.09091 161.735 6.80398C162.178 6.5142 162.695 6.36932 163.286 6.36932C163.627 6.36932 163.964 6.42614 164.296 6.53977C164.628 6.65341 164.931 6.83807 165.204 7.09375C165.476 7.34659 165.694 7.68182 165.856 8.09943C166.018 8.51705 166.099 9.03125 166.099 9.64205V10.0682H161.053V9.19886H165.076C165.076 8.82955 165.002 8.5 164.854 8.21023C164.709 7.92045 164.502 7.69176 164.232 7.52415C163.965 7.35653 163.65 7.27273 163.286 7.27273C162.886 7.27273 162.539 7.37216 162.246 7.57102C161.957 7.76705 161.734 8.02273 161.577 8.33807C161.421 8.65341 161.343 8.99148 161.343 9.35227V9.93182C161.343 10.4261 161.428 10.8452 161.599 11.1889C161.772 11.5298 162.012 11.7898 162.319 11.9688C162.626 12.1449 162.982 12.233 163.388 12.233C163.653 12.233 163.891 12.196 164.104 12.1222C164.32 12.0455 164.506 11.9318 164.663 11.7812C164.819 11.6278 164.939 11.4375 165.025 11.2102L165.996 11.483C165.894 11.8125 165.722 12.1023 165.481 12.3523C165.239 12.5994 164.941 12.7926 164.586 12.9318C164.231 13.0682 163.832 13.1364 163.388 13.1364ZM167.868 13V6.45455H168.84V7.44318H168.908C169.028 7.11932 169.243 6.85653 169.556 6.65483C169.868 6.45312 170.221 6.35227 170.613 6.35227C170.687 6.35227 170.779 6.35369 170.89 6.35653C171.001 6.35937 171.084 6.36364 171.141 6.36932V7.39205C171.107 7.38352 171.029 7.37074 170.907 7.35369C170.787 7.33381 170.661 7.32386 170.528 7.32386C170.209 7.32386 169.925 7.39062 169.675 7.52415C169.428 7.65483 169.232 7.83665 169.087 8.0696C168.945 8.29972 168.874 8.5625 168.874 8.85795V13H167.868ZM177.21 7.92045L176.306 8.17614C176.249 8.02557 176.166 7.87926 176.055 7.73722C175.947 7.59233 175.799 7.47301 175.612 7.37926C175.424 7.28551 175.184 7.23864 174.891 7.23864C174.491 7.23864 174.157 7.33097 173.89 7.51562C173.626 7.69744 173.494 7.92898 173.494 8.21023C173.494 8.46023 173.585 8.65767 173.766 8.80256C173.948 8.94744 174.232 9.06818 174.619 9.16477L175.59 9.40341C176.176 9.54545 176.612 9.76278 176.899 10.0554C177.185 10.3452 177.329 10.7187 177.329 11.1761C177.329 11.5511 177.221 11.8864 177.005 12.1818C176.792 12.4773 176.494 12.7102 176.11 12.8807C175.727 13.0511 175.281 13.1364 174.772 13.1364C174.105 13.1364 173.552 12.9915 173.114 12.7017C172.677 12.4119 172.4 11.9886 172.283 11.4318L173.238 11.1932C173.329 11.5455 173.501 11.8097 173.754 11.9858C174.009 12.1619 174.343 12.25 174.755 12.25C175.224 12.25 175.596 12.1506 175.872 11.9517C176.15 11.75 176.289 11.5085 176.289 11.2273C176.289 11 176.21 10.8097 176.051 10.6562C175.891 10.5 175.647 10.3835 175.318 10.3068L174.227 10.0511C173.627 9.90909 173.187 9.68892 172.906 9.39062C172.627 9.08949 172.488 8.71307 172.488 8.26136C172.488 7.89205 172.592 7.56534 172.799 7.28125C173.009 6.99716 173.295 6.77415 173.656 6.61222C174.019 6.45028 174.431 6.36932 174.891 6.36932C175.539 6.36932 176.048 6.51136 176.417 6.79545C176.789 7.07955 177.053 7.45455 177.21 7.92045Z" fill="#ADB5BD"/>
    <circle cx="9" cy="33" r="4" fill="#D9D9D9"/>
    <path d="M28.1136 28.2727V37H27.0568V28.2727H28.1136ZM31.3419 33.0625V37H30.3362V30.4545H31.3078V31.4773H31.3931C31.5465 31.1449 31.7794 30.8778 32.0919 30.6761C32.4044 30.4716 32.8078 30.3693 33.3021 30.3693C33.7453 30.3693 34.1331 30.4602 34.4655 30.642C34.7979 30.821 35.0564 31.0938 35.2411 31.4602C35.4257 31.8239 35.5181 32.2841 35.5181 32.8409V37H34.5124V32.9091C34.5124 32.3949 34.3788 31.9943 34.1118 31.7074C33.8448 31.4176 33.4783 31.2727 33.0124 31.2727C32.6913 31.2727 32.4044 31.3423 32.1516 31.4815C31.9016 31.6207 31.7041 31.8239 31.5592 32.0909C31.4144 32.358 31.3419 32.6818 31.3419 33.0625ZM40.2549 37.1364C39.6412 37.1364 39.1128 36.9915 38.6696 36.7017C38.2264 36.4119 37.8855 36.0128 37.6469 35.5043C37.4083 34.9957 37.2889 34.4148 37.2889 33.7614C37.2889 33.0966 37.4111 32.5099 37.6554 32.0014C37.9026 31.4901 38.2463 31.0909 38.6867 30.804C39.1299 30.5142 39.6469 30.3693 40.2378 30.3693C40.698 30.3693 41.1128 30.4545 41.4821 30.625C41.8514 30.7955 42.154 31.0341 42.3898 31.3409C42.6256 31.6477 42.7719 32.0057 42.8287 32.4148H41.823C41.7463 32.1165 41.5759 31.8523 41.3117 31.6222C41.0503 31.3892 40.698 31.2727 40.2549 31.2727C39.8628 31.2727 39.5191 31.375 39.2236 31.5795C38.931 31.7812 38.7023 32.0668 38.5375 32.4361C38.3756 32.8026 38.2946 33.233 38.2946 33.7273C38.2946 34.233 38.3742 34.6733 38.5333 35.0483C38.6952 35.4233 38.9225 35.7145 39.2151 35.9219C39.5105 36.1293 39.8571 36.233 40.2549 36.233C40.5162 36.233 40.7534 36.1875 40.9665 36.0966C41.1796 36.0057 41.36 35.875 41.5077 35.7045C41.6554 35.5341 41.7605 35.3295 41.823 35.0909H42.8287C42.7719 35.4773 42.6313 35.8253 42.4068 36.1349C42.1853 36.4418 41.8912 36.6861 41.5247 36.8679C41.1611 37.0469 40.7378 37.1364 40.2549 37.1364ZM45.5446 28.2727V37H44.5389V28.2727H45.5446ZM51.7515 34.3239V30.4545H52.7572V37H51.7515V35.892H51.6834C51.53 36.2244 51.2913 36.5071 50.9675 36.7401C50.6436 36.9702 50.2345 37.0852 49.7402 37.0852C49.3311 37.0852 48.9675 36.9957 48.6493 36.8168C48.3311 36.6349 48.0811 36.3622 47.8993 35.9986C47.7175 35.6321 47.6265 35.1705 47.6265 34.6136V30.4545H48.6322V34.5455C48.6322 35.0227 48.7658 35.4034 49.0328 35.6875C49.3027 35.9716 49.6464 36.1136 50.064 36.1136C50.314 36.1136 50.5683 36.0497 50.8268 35.9219C51.0882 35.794 51.3069 35.598 51.4831 35.3338C51.6621 35.0696 51.7515 34.733 51.7515 34.3239ZM57.3108 37.1364C56.7653 37.1364 56.2838 36.9986 55.8662 36.723C55.4486 36.4446 55.1219 36.0526 54.8861 35.5469C54.6503 35.0384 54.5324 34.4375 54.5324 33.7443C54.5324 33.0568 54.6503 32.4602 54.8861 31.9545C55.1219 31.4489 55.45 31.0582 55.8705 30.7827C56.2909 30.5071 56.7767 30.3693 57.3278 30.3693C57.754 30.3693 58.0906 30.4403 58.3378 30.5824C58.5878 30.7216 58.7781 30.8807 58.9088 31.0597C59.0423 31.2358 59.146 31.3807 59.2199 31.4943H59.3051V28.2727H60.3108V37H59.3392V35.9943H59.2199C59.146 36.1136 59.0409 36.2642 58.9045 36.446C58.7682 36.625 58.5736 36.7855 58.3207 36.9276C58.0679 37.0668 57.7313 37.1364 57.3108 37.1364ZM57.4472 36.233C57.8506 36.233 58.1915 36.1278 58.4699 35.9176C58.7483 35.7045 58.9599 35.4105 59.1048 35.0355C59.2497 34.6577 59.3222 34.2216 59.3222 33.7273C59.3222 33.2386 59.2511 32.8111 59.1091 32.4446C58.967 32.0753 58.7568 31.7884 58.4784 31.5838C58.2 31.3764 57.8563 31.2727 57.4472 31.2727C57.021 31.2727 56.6659 31.3821 56.3818 31.6009C56.1006 31.8168 55.8889 32.1108 55.7469 32.483C55.6077 32.8523 55.5381 33.267 55.5381 33.7273C55.5381 34.1932 55.6091 34.6165 55.7511 34.9972C55.896 35.375 56.1091 35.6761 56.3903 35.9006C56.6744 36.1222 57.0267 36.233 57.4472 36.233ZM65.2766 37.1364C64.646 37.1364 64.1019 36.9972 63.6445 36.7188C63.19 36.4375 62.8391 36.0455 62.592 35.5426C62.3477 35.0369 62.2255 34.4489 62.2255 33.7784C62.2255 33.108 62.3477 32.517 62.592 32.0057C62.8391 31.4915 63.1829 31.0909 63.6232 30.804C64.0664 30.5142 64.5835 30.3693 65.1744 30.3693C65.5153 30.3693 65.8519 30.4261 66.1843 30.5398C66.5167 30.6534 66.8193 30.8381 67.092 31.0938C67.3647 31.3466 67.582 31.6818 67.744 32.0994C67.9059 32.517 67.9869 33.0312 67.9869 33.642V34.0682H62.9414V33.1989H66.9641C66.9641 32.8295 66.8903 32.5 66.7426 32.2102C66.5977 31.9205 66.3903 31.6918 66.1204 31.5241C65.8534 31.3565 65.538 31.2727 65.1744 31.2727C64.7738 31.2727 64.4272 31.3722 64.1346 31.571C63.8448 31.767 63.6218 32.0227 63.4656 32.3381C63.3093 32.6534 63.2312 32.9915 63.2312 33.3523V33.9318C63.2312 34.4261 63.3164 34.8452 63.4869 35.1889C63.6602 35.5298 63.9002 35.7898 64.207 35.9688C64.5139 36.1449 64.8704 36.233 65.2766 36.233C65.5409 36.233 65.7795 36.196 65.9926 36.1222C66.2085 36.0455 66.3945 35.9318 66.5508 35.7812C66.707 35.6278 66.8278 35.4375 66.913 35.2102L67.8846 35.483C67.7823 35.8125 67.6105 36.1023 67.369 36.3523C67.1275 36.5994 66.8292 36.7926 66.4741 36.9318C66.119 37.0682 65.7198 37.1364 65.2766 37.1364ZM75.2978 37.1534C74.8831 37.1534 74.5066 37.0753 74.1686 36.919C73.8305 36.7599 73.562 36.5312 73.3632 36.233C73.1643 35.9318 73.0649 35.5682 73.0649 35.142C73.0649 34.767 73.1387 34.4631 73.2865 34.2301C73.4342 33.9943 73.6316 33.8097 73.8788 33.6761C74.126 33.5426 74.3987 33.4432 74.697 33.3778C74.9981 33.3097 75.3007 33.2557 75.6047 33.2159C76.0024 33.1648 76.3248 33.1264 76.572 33.1009C76.822 33.0724 77.0038 33.0256 77.1174 32.9602C77.2339 32.8949 77.2922 32.7812 77.2922 32.6193V32.5852C77.2922 32.1648 77.1771 31.8381 76.947 31.6051C76.7197 31.3722 76.3745 31.2557 75.9115 31.2557C75.4314 31.2557 75.0549 31.3608 74.7822 31.571C74.5095 31.7812 74.3177 32.0057 74.2069 32.2443L73.2524 31.9034C73.4228 31.5057 73.6501 31.196 73.9342 30.9744C74.2211 30.75 74.5336 30.5937 74.8717 30.5057C75.2126 30.4148 75.5478 30.3693 75.8774 30.3693C76.0876 30.3693 76.3291 30.3949 76.6018 30.446C76.8774 30.4943 77.143 30.5952 77.3987 30.7486C77.6572 30.902 77.8717 31.1335 78.0422 31.4432C78.2126 31.7528 78.2978 32.1676 78.2978 32.6875V37H77.2922V36.1136H77.241C77.1728 36.2557 77.0592 36.4077 76.9001 36.5696C76.741 36.7315 76.5294 36.8693 76.2652 36.983C76.001 37.0966 75.6785 37.1534 75.2978 37.1534ZM75.4512 36.25C75.849 36.25 76.1842 36.1719 76.4569 36.0156C76.7325 35.8594 76.9399 35.6577 77.0791 35.4105C77.2211 35.1634 77.2922 34.9034 77.2922 34.6307V33.7102C77.2495 33.7614 77.1558 33.8082 77.0109 33.8509C76.8689 33.8906 76.7041 33.9261 76.5166 33.9574C76.3319 33.9858 76.1515 34.0114 75.9754 34.0341C75.8021 34.054 75.6615 34.071 75.5535 34.0852C75.2922 34.1193 75.0478 34.1747 74.8206 34.2514C74.5961 34.3253 74.4143 34.4375 74.2751 34.5881C74.1387 34.7358 74.0706 34.9375 74.0706 35.1932C74.0706 35.5426 74.1998 35.8068 74.4584 35.9858C74.7197 36.1619 75.0507 36.25 75.4512 36.25ZM83.22 30.4545V31.3068H79.828V30.4545H83.22ZM80.8166 28.8864H81.8223V35.125C81.8223 35.4091 81.8635 35.6222 81.9459 35.7642C82.0311 35.9034 82.139 35.9972 82.2697 36.0455C82.4033 36.0909 82.5439 36.1136 82.6916 36.1136C82.8024 36.1136 82.8933 36.108 82.9643 36.0966C83.0354 36.0824 83.0922 36.071 83.1348 36.0625L83.3393 36.9659C83.2712 36.9915 83.176 37.017 83.0538 37.0426C82.9317 37.071 82.7768 37.0852 82.5893 37.0852C82.3052 37.0852 82.0268 37.0241 81.7541 36.902C81.4842 36.7798 81.2598 36.5938 81.0808 36.3438C80.9047 36.0938 80.8166 35.7784 80.8166 35.3977V28.8864ZM89.5935 28.2727V37H88.5878V28.2727H89.5935ZM94.4198 37.1364C93.7891 37.1364 93.2451 36.9972 92.7877 36.7188C92.3331 36.4375 91.9823 36.0455 91.7351 35.5426C91.4908 35.0369 91.3686 34.4489 91.3686 33.7784C91.3686 33.108 91.4908 32.517 91.7351 32.0057C91.9823 31.4915 92.326 31.0909 92.7664 30.804C93.2095 30.5142 93.7266 30.3693 94.3175 30.3693C94.6584 30.3693 94.9951 30.4261 95.3274 30.5398C95.6598 30.6534 95.9624 30.8381 96.2351 31.0938C96.5078 31.3466 96.7252 31.6818 96.8871 32.0994C97.049 32.517 97.13 33.0312 97.13 33.642V34.0682H92.0845V33.1989H96.1073C96.1073 32.8295 96.0334 32.5 95.8857 32.2102C95.7408 31.9205 95.5334 31.6918 95.2635 31.5241C94.9965 31.3565 94.6811 31.2727 94.3175 31.2727C93.9169 31.2727 93.5703 31.3722 93.2777 31.571C92.988 31.767 92.7649 32.0227 92.6087 32.3381C92.4524 32.6534 92.3743 32.9915 92.3743 33.3523V33.9318C92.3743 34.4261 92.4595 34.8452 92.63 35.1889C92.8033 35.5298 93.0433 35.7898 93.3502 35.9688C93.657 36.1449 94.0135 36.233 94.4198 36.233C94.684 36.233 94.9226 36.196 95.1357 36.1222C95.3516 36.0455 95.5377 35.9318 95.6939 35.7812C95.8502 35.6278 95.9709 35.4375 96.0561 35.2102L97.0277 35.483C96.9255 35.8125 96.7536 36.1023 96.5121 36.3523C96.2706 36.5994 95.9723 36.7926 95.6172 36.9318C95.2621 37.0682 94.863 37.1364 94.4198 37.1364ZM100.826 37.1534C100.411 37.1534 100.035 37.0753 99.6967 36.919C99.3586 36.7599 99.0902 36.5312 98.8913 36.233C98.6924 35.9318 98.593 35.5682 98.593 35.142C98.593 34.767 98.6669 34.4631 98.8146 34.2301C98.9623 33.9943 99.1598 33.8097 99.4069 33.6761C99.6541 33.5426 99.9268 33.4432 100.225 33.3778C100.526 33.3097 100.829 33.2557 101.133 33.2159C101.531 33.1648 101.853 33.1264 102.1 33.1009C102.35 33.0724 102.532 33.0256 102.646 32.9602C102.762 32.8949 102.82 32.7812 102.82 32.6193V32.5852C102.82 32.1648 102.705 31.8381 102.475 31.6051C102.248 31.3722 101.903 31.2557 101.44 31.2557C100.959 31.2557 100.583 31.3608 100.31 31.571C100.038 31.7812 99.8459 32.0057 99.7351 32.2443L98.7805 31.9034C98.951 31.5057 99.1782 31.196 99.4623 30.9744C99.7493 30.75 100.062 30.5937 100.4 30.5057C100.741 30.4148 101.076 30.3693 101.406 30.3693C101.616 30.3693 101.857 30.3949 102.13 30.446C102.406 30.4943 102.671 30.5952 102.927 30.7486C103.185 30.902 103.4 31.1335 103.57 31.4432C103.741 31.7528 103.826 32.1676 103.826 32.6875V37H102.82V36.1136H102.769C102.701 36.2557 102.587 36.4077 102.428 36.5696C102.269 36.7315 102.058 36.8693 101.793 36.983C101.529 37.0966 101.207 37.1534 100.826 37.1534ZM100.979 36.25C101.377 36.25 101.712 36.1719 101.985 36.0156C102.261 35.8594 102.468 35.6577 102.607 35.4105C102.749 35.1634 102.82 34.9034 102.82 34.6307V33.7102C102.778 33.7614 102.684 33.8082 102.539 33.8509C102.397 33.8906 102.232 33.9261 102.045 33.9574C101.86 33.9858 101.68 34.0114 101.504 34.0341C101.33 34.054 101.19 34.071 101.082 34.0852C100.82 34.1193 100.576 34.1747 100.349 34.2514C100.124 34.3253 99.9424 34.4375 99.8032 34.5881C99.6669 34.7358 99.5987 34.9375 99.5987 35.1932C99.5987 35.5426 99.728 35.8068 99.9865 35.9858C100.248 36.1619 100.579 36.25 100.979 36.25ZM110.538 31.9205L109.635 32.1761C109.578 32.0256 109.494 31.8793 109.383 31.7372C109.275 31.5923 109.127 31.473 108.94 31.3793C108.752 31.2855 108.512 31.2386 108.22 31.2386C107.819 31.2386 107.485 31.331 107.218 31.5156C106.954 31.6974 106.822 31.929 106.822 32.2102C106.822 32.4602 106.913 32.6577 107.095 32.8026C107.277 32.9474 107.561 33.0682 107.947 33.1648L108.919 33.4034C109.504 33.5455 109.94 33.7628 110.227 34.0554C110.514 34.3452 110.657 34.7187 110.657 35.1761C110.657 35.5511 110.549 35.8864 110.333 36.1818C110.12 36.4773 109.822 36.7102 109.438 36.8807C109.055 37.0511 108.609 37.1364 108.1 37.1364C107.433 37.1364 106.88 36.9915 106.443 36.7017C106.005 36.4119 105.728 35.9886 105.612 35.4318L106.566 35.1932C106.657 35.5455 106.829 35.8097 107.082 35.9858C107.338 36.1619 107.671 36.25 108.083 36.25C108.552 36.25 108.924 36.1506 109.2 35.9517C109.478 35.75 109.617 35.5085 109.617 35.2273C109.617 35 109.538 34.8097 109.379 34.6562C109.22 34.5 108.975 34.3835 108.646 34.3068L107.555 34.0511C106.956 33.9091 106.515 33.6889 106.234 33.3906C105.956 33.0895 105.816 32.7131 105.816 32.2614C105.816 31.892 105.92 31.5653 106.127 31.2812C106.338 30.9972 106.623 30.7741 106.984 30.6122C107.348 30.4503 107.76 30.3693 108.22 30.3693C108.867 30.3693 109.376 30.5114 109.745 30.7955C110.117 31.0795 110.382 31.4545 110.538 31.9205ZM115.258 30.4545V31.3068H111.866V30.4545H115.258ZM112.854 28.8864H113.86V35.125C113.86 35.4091 113.901 35.6222 113.984 35.7642C114.069 35.9034 114.177 35.9972 114.307 36.0455C114.441 36.0909 114.582 36.1136 114.729 36.1136C114.84 36.1136 114.931 36.108 115.002 36.0966C115.073 36.0824 115.13 36.071 115.172 36.0625L115.377 36.9659C115.309 36.9915 115.214 37.017 115.091 37.0426C114.969 37.071 114.814 37.0852 114.627 37.0852C114.343 37.0852 114.064 37.0241 113.792 36.902C113.522 36.7798 113.297 36.5938 113.118 36.3438C112.942 36.0938 112.854 35.7784 112.854 35.3977V28.8864ZM123.285 37.1364C122.694 37.1364 122.175 36.9957 121.729 36.7145C121.286 36.4332 120.939 36.0398 120.689 35.5341C120.442 35.0284 120.319 34.4375 120.319 33.7614C120.319 33.0795 120.442 32.4844 120.689 31.9759C120.939 31.4673 121.286 31.0724 121.729 30.7912C122.175 30.5099 122.694 30.3693 123.285 30.3693C123.875 30.3693 124.393 30.5099 124.836 30.7912C125.282 31.0724 125.628 31.4673 125.875 31.9759C126.125 32.4844 126.25 33.0795 126.25 33.7614C126.25 34.4375 126.125 35.0284 125.875 35.5341C125.628 36.0398 125.282 36.4332 124.836 36.7145C124.393 36.9957 123.875 37.1364 123.285 37.1364ZM123.285 36.233C123.733 36.233 124.103 36.1179 124.393 35.8878C124.682 35.6577 124.897 35.3551 125.036 34.9801C125.175 34.6051 125.245 34.1989 125.245 33.7614C125.245 33.3239 125.175 32.9162 125.036 32.5384C124.897 32.1605 124.682 31.8551 124.393 31.6222C124.103 31.3892 123.733 31.2727 123.285 31.2727C122.836 31.2727 122.466 31.3892 122.177 31.6222C121.887 31.8551 121.672 32.1605 121.533 32.5384C121.394 32.9162 121.324 33.3239 121.324 33.7614C121.324 34.1989 121.394 34.6051 121.533 34.9801C121.672 35.3551 121.887 35.6577 122.177 35.8878C122.466 36.1179 122.836 36.233 123.285 36.233ZM129.031 33.0625V37H128.026V30.4545H128.997V31.4773H129.082C129.236 31.1449 129.469 30.8778 129.781 30.6761C130.094 30.4716 130.497 30.3693 130.992 30.3693C131.435 30.3693 131.822 30.4602 132.155 30.642C132.487 30.821 132.746 31.0938 132.93 31.4602C133.115 31.8239 133.207 32.2841 133.207 32.8409V37H132.202V32.9091C132.202 32.3949 132.068 31.9943 131.801 31.7074C131.534 31.4176 131.168 31.2727 130.702 31.2727C130.381 31.2727 130.094 31.3423 129.841 31.4815C129.591 31.6207 129.394 31.8239 129.249 32.0909C129.104 32.358 129.031 32.6818 129.031 33.0625ZM138.029 37.1364C137.399 37.1364 136.855 36.9972 136.397 36.7188C135.943 36.4375 135.592 36.0455 135.345 35.5426C135.1 35.0369 134.978 34.4489 134.978 33.7784C134.978 33.108 135.1 32.517 135.345 32.0057C135.592 31.4915 135.936 31.0909 136.376 30.804C136.819 30.5142 137.336 30.3693 137.927 30.3693C138.268 30.3693 138.605 30.4261 138.937 30.5398C139.27 30.6534 139.572 30.8381 139.845 31.0938C140.118 31.3466 140.335 31.6818 140.497 32.0994C140.659 32.517 140.74 33.0312 140.74 33.642V34.0682H135.694V33.1989H139.717C139.717 32.8295 139.643 32.5 139.495 32.2102C139.35 31.9205 139.143 31.6918 138.873 31.5241C138.606 31.3565 138.291 31.2727 137.927 31.2727C137.527 31.2727 137.18 31.3722 136.887 31.571C136.598 31.767 136.375 32.0227 136.218 32.3381C136.062 32.6534 135.984 32.9915 135.984 33.3523V33.9318C135.984 34.4261 136.069 34.8452 136.24 35.1889C136.413 35.5298 136.653 35.7898 136.96 35.9688C137.267 36.1449 137.623 36.233 138.029 36.233C138.294 36.233 138.532 36.196 138.745 36.1222C138.961 36.0455 139.147 35.9318 139.304 35.7812C139.46 35.6278 139.581 35.4375 139.666 35.2102L140.637 35.483C140.535 35.8125 140.363 36.1023 140.122 36.3523C139.88 36.5994 139.582 36.7926 139.227 36.9318C138.872 37.0682 138.473 37.1364 138.029 37.1364ZM150.25 34.3239V30.4545H151.255V37H150.25V35.892H150.181C150.028 36.2244 149.789 36.5071 149.465 36.7401C149.142 36.9702 148.732 37.0852 148.238 37.0852C147.829 37.0852 147.465 36.9957 147.147 36.8168C146.829 36.6349 146.579 36.3622 146.397 35.9986C146.215 35.6321 146.125 35.1705 146.125 34.6136V30.4545H147.13V34.5455C147.13 35.0227 147.264 35.4034 147.531 35.6875C147.801 35.9716 148.144 36.1136 148.562 36.1136C148.812 36.1136 149.066 36.0497 149.325 35.9219C149.586 35.794 149.805 35.598 149.981 35.3338C150.16 35.0696 150.25 34.733 150.25 34.3239ZM153.337 39.4545V30.4545H154.309V31.4943H154.428C154.502 31.3807 154.604 31.2358 154.735 31.0597C154.868 30.8807 155.059 30.7216 155.306 30.5824C155.556 30.4403 155.894 30.3693 156.32 30.3693C156.871 30.3693 157.357 30.5071 157.778 30.7827C158.198 31.0582 158.526 31.4489 158.762 31.9545C158.998 32.4602 159.116 33.0568 159.116 33.7443C159.116 34.4375 158.998 35.0384 158.762 35.5469C158.526 36.0526 158.199 36.4446 157.782 36.723C157.364 36.9986 156.883 37.1364 156.337 37.1364C155.917 37.1364 155.58 37.0668 155.327 36.9276C155.074 36.7855 154.88 36.625 154.743 36.446C154.607 36.2642 154.502 36.1136 154.428 35.9943H154.343V39.4545H153.337ZM154.326 33.7273C154.326 34.2216 154.398 34.6577 154.543 35.0355C154.688 35.4105 154.9 35.7045 155.178 35.9176C155.456 36.1278 155.797 36.233 156.201 36.233C156.621 36.233 156.972 36.1222 157.253 35.9006C157.537 35.6761 157.751 35.375 157.893 34.9972C158.037 34.6165 158.11 34.1932 158.11 33.7273C158.11 33.267 158.039 32.8523 157.897 32.483C157.758 32.1108 157.546 31.8168 157.262 31.6009C156.981 31.3821 156.627 31.2727 156.201 31.2727C155.792 31.2727 155.448 31.3764 155.17 31.5838C154.891 31.7884 154.681 32.0753 154.539 32.4446C154.397 32.8111 154.326 33.2386 154.326 33.7273ZM160.89 39.4545V30.4545H161.861V31.4943H161.981C162.054 31.3807 162.157 31.2358 162.287 31.0597C162.421 30.8807 162.611 30.7216 162.858 30.5824C163.108 30.4403 163.446 30.3693 163.873 30.3693C164.424 30.3693 164.91 30.5071 165.33 30.7827C165.75 31.0582 166.079 31.4489 166.314 31.9545C166.55 32.4602 166.668 33.0568 166.668 33.7443C166.668 34.4375 166.55 35.0384 166.314 35.5469C166.079 36.0526 165.752 36.4446 165.334 36.723C164.917 36.9986 164.435 37.1364 163.89 37.1364C163.469 37.1364 163.133 37.0668 162.88 36.9276C162.627 36.7855 162.432 36.625 162.296 36.446C162.16 36.2642 162.054 36.1136 161.981 35.9943H161.895V39.4545H160.89ZM161.878 33.7273C161.878 34.2216 161.951 34.6577 162.096 35.0355C162.241 35.4105 162.452 35.7045 162.731 35.9176C163.009 36.1278 163.35 36.233 163.753 36.233C164.174 36.233 164.525 36.1222 164.806 35.9006C165.09 35.6761 165.303 35.375 165.445 34.9972C165.59 34.6165 165.662 34.1932 165.662 33.7273C165.662 33.267 165.591 32.8523 165.449 32.483C165.31 32.1108 165.098 31.8168 164.814 31.6009C164.533 31.3821 164.179 31.2727 163.753 31.2727C163.344 31.2727 163 31.3764 162.722 31.5838C162.444 31.7884 162.233 32.0753 162.091 32.4446C161.949 32.8111 161.878 33.2386 161.878 33.7273ZM171.186 37.1364C170.556 37.1364 170.012 36.9972 169.554 36.7188C169.1 36.4375 168.749 36.0455 168.502 35.5426C168.258 35.0369 168.135 34.4489 168.135 33.7784C168.135 33.108 168.258 32.517 168.502 32.0057C168.749 31.4915 169.093 31.0909 169.533 30.804C169.976 30.5142 170.493 30.3693 171.084 30.3693C171.425 30.3693 171.762 30.4261 172.094 30.5398C172.427 30.6534 172.729 30.8381 173.002 31.0938C173.275 31.3466 173.492 31.6818 173.654 32.0994C173.816 32.517 173.897 33.0312 173.897 33.642V34.0682H168.851V33.1989H172.874C172.874 32.8295 172.8 32.5 172.652 32.2102C172.508 31.9205 172.3 31.6918 172.03 31.5241C171.763 31.3565 171.448 31.2727 171.084 31.2727C170.684 31.2727 170.337 31.3722 170.044 31.571C169.755 31.767 169.532 32.0227 169.375 32.3381C169.219 32.6534 169.141 32.9915 169.141 33.3523V33.9318C169.141 34.4261 169.226 34.8452 169.397 35.1889C169.57 35.5298 169.81 35.7898 170.117 35.9688C170.424 36.1449 170.78 36.233 171.186 36.233C171.451 36.233 171.689 36.196 171.902 36.1222C172.118 36.0455 172.304 35.9318 172.461 35.7812C172.617 35.6278 172.738 35.4375 172.823 35.2102L173.794 35.483C173.692 35.8125 173.52 36.1023 173.279 36.3523C173.037 36.5994 172.739 36.7926 172.384 36.9318C172.029 37.0682 171.63 37.1364 171.186 37.1364ZM175.667 37V30.4545H176.638V31.4432H176.706C176.826 31.1193 177.042 30.8565 177.354 30.6548C177.667 30.4531 178.019 30.3523 178.411 30.3523C178.485 30.3523 178.577 30.3537 178.688 30.3565C178.799 30.3594 178.882 30.3636 178.939 30.3693V31.392C178.905 31.3835 178.827 31.3707 178.705 31.3537C178.586 31.3338 178.459 31.3239 178.326 31.3239C178.007 31.3239 177.723 31.3906 177.473 31.5241C177.226 31.6548 177.03 31.8366 176.885 32.0696C176.743 32.2997 176.672 32.5625 176.672 32.858V37H175.667ZM182.831 37.1364C182.218 37.1364 181.689 36.9915 181.246 36.7017C180.803 36.4119 180.462 36.0128 180.223 35.5043C179.985 34.9957 179.865 34.4148 179.865 33.7614C179.865 33.0966 179.988 32.5099 180.232 32.0014C180.479 31.4901 180.823 31.0909 181.263 30.804C181.706 30.5142 182.223 30.3693 182.814 30.3693C183.274 30.3693 183.689 30.4545 184.059 30.625C184.428 30.7955 184.73 31.0341 184.966 31.3409C185.202 31.6477 185.348 32.0057 185.405 32.4148H184.399C184.323 32.1165 184.152 31.8523 183.888 31.6222C183.627 31.3892 183.274 31.2727 182.831 31.2727C182.439 31.2727 182.095 31.375 181.8 31.5795C181.507 31.7812 181.279 32.0668 181.114 32.4361C180.952 32.8026 180.871 33.233 180.871 33.7273C180.871 34.233 180.951 34.6733 181.11 35.0483C181.272 35.4233 181.499 35.7145 181.791 35.9219C182.087 36.1293 182.434 36.233 182.831 36.233C183.093 36.233 183.33 36.1875 183.543 36.0966C183.756 36.0057 183.936 35.875 184.084 35.7045C184.232 35.5341 184.337 35.3295 184.399 35.0909H185.405C185.348 35.4773 185.208 35.8253 184.983 36.1349C184.762 36.4418 184.468 36.6861 184.101 36.8679C183.738 37.0469 183.314 37.1364 182.831 37.1364ZM189.041 37.1534C188.627 37.1534 188.25 37.0753 187.912 36.919C187.574 36.7599 187.306 36.5312 187.107 36.233C186.908 35.9318 186.808 35.5682 186.808 35.142C186.808 34.767 186.882 34.4631 187.03 34.2301C187.178 33.9943 187.375 33.8097 187.622 33.6761C187.87 33.5426 188.142 33.4432 188.441 33.3778C188.742 33.3097 189.044 33.2557 189.348 33.2159C189.746 33.1648 190.068 33.1264 190.316 33.1009C190.566 33.0724 190.747 33.0256 190.861 32.9602C190.978 32.8949 191.036 32.7812 191.036 32.6193V32.5852C191.036 32.1648 190.921 31.8381 190.691 31.6051C190.463 31.3722 190.118 31.2557 189.655 31.2557C189.175 31.2557 188.799 31.3608 188.526 31.571C188.253 31.7812 188.061 32.0057 187.951 32.2443L186.996 31.9034C187.166 31.5057 187.394 31.196 187.678 30.9744C187.965 30.75 188.277 30.5937 188.615 30.5057C188.956 30.4148 189.291 30.3693 189.621 30.3693C189.831 30.3693 190.073 30.3949 190.345 30.446C190.621 30.4943 190.887 30.5952 191.142 30.7486C191.401 30.902 191.615 31.1335 191.786 31.4432C191.956 31.7528 192.041 32.1676 192.041 32.6875V37H191.036V36.1136H190.985C190.916 36.2557 190.803 36.4077 190.644 36.5696C190.485 36.7315 190.273 36.8693 190.009 36.983C189.745 37.0966 189.422 37.1534 189.041 37.1534ZM189.195 36.25C189.593 36.25 189.928 36.1719 190.201 36.0156C190.476 35.8594 190.683 35.6577 190.823 35.4105C190.965 35.1634 191.036 34.9034 191.036 34.6307V33.7102C190.993 33.7614 190.899 33.8082 190.754 33.8509C190.612 33.8906 190.448 33.9261 190.26 33.9574C190.076 33.9858 189.895 34.0114 189.719 34.0341C189.546 34.054 189.405 34.071 189.297 34.0852C189.036 34.1193 188.791 34.1747 188.564 34.2514C188.34 34.3253 188.158 34.4375 188.019 34.5881C187.882 34.7358 187.814 34.9375 187.814 35.1932C187.814 35.5426 187.943 35.8068 188.202 35.9858C188.463 36.1619 188.794 36.25 189.195 36.25ZM198.753 31.9205L197.85 32.1761C197.793 32.0256 197.709 31.8793 197.599 31.7372C197.491 31.5923 197.343 31.473 197.155 31.3793C196.968 31.2855 196.728 31.2386 196.435 31.2386C196.035 31.2386 195.701 31.331 195.434 31.5156C195.17 31.6974 195.037 31.929 195.037 32.2102C195.037 32.4602 195.128 32.6577 195.31 32.8026C195.492 32.9474 195.776 33.0682 196.162 33.1648L197.134 33.4034C197.719 33.5455 198.155 33.7628 198.442 34.0554C198.729 34.3452 198.873 34.7187 198.873 35.1761C198.873 35.5511 198.765 35.8864 198.549 36.1818C198.336 36.4773 198.037 36.7102 197.654 36.8807C197.27 37.0511 196.824 37.1364 196.316 37.1364C195.648 37.1364 195.096 36.9915 194.658 36.7017C194.221 36.4119 193.944 35.9886 193.827 35.4318L194.782 35.1932C194.873 35.5455 195.045 35.8097 195.297 35.9858C195.553 36.1619 195.887 36.25 196.299 36.25C196.768 36.25 197.14 36.1506 197.415 35.9517C197.694 35.75 197.833 35.5085 197.833 35.2273C197.833 35 197.753 34.8097 197.594 34.6562C197.435 34.5 197.191 34.3835 196.861 34.3068L195.77 34.0511C195.171 33.9091 194.731 33.6889 194.449 33.3906C194.171 33.0895 194.032 32.7131 194.032 32.2614C194.032 31.892 194.135 31.5653 194.343 31.2812C194.553 30.9972 194.839 30.7741 195.199 30.6122C195.563 30.4503 195.975 30.3693 196.435 30.3693C197.083 30.3693 197.591 30.5114 197.961 30.7955C198.333 31.0795 198.597 31.4545 198.753 31.9205ZM203.371 37.1364C202.74 37.1364 202.196 36.9972 201.739 36.7188C201.284 36.4375 200.933 36.0455 200.686 35.5426C200.442 35.0369 200.32 34.4489 200.32 33.7784C200.32 33.108 200.442 32.517 200.686 32.0057C200.933 31.4915 201.277 31.0909 201.717 30.804C202.161 30.5142 202.678 30.3693 203.269 30.3693C203.61 30.3693 203.946 30.4261 204.279 30.5398C204.611 30.6534 204.913 30.8381 205.186 31.0938C205.459 31.3466 205.676 31.6818 205.838 32.0994C206 32.517 206.081 33.0312 206.081 33.642V34.0682H201.036V33.1989H205.058C205.058 32.8295 204.985 32.5 204.837 32.2102C204.692 31.9205 204.485 31.6918 204.215 31.5241C203.948 31.3565 203.632 31.2727 203.269 31.2727C202.868 31.2727 202.521 31.3722 202.229 31.571C201.939 31.767 201.716 32.0227 201.56 32.3381C201.404 32.6534 201.325 32.9915 201.325 33.3523V33.9318C201.325 34.4261 201.411 34.8452 201.581 35.1889C201.754 35.5298 201.994 35.7898 202.301 35.9688C202.608 36.1449 202.965 36.233 203.371 36.233C203.635 36.233 203.874 36.196 204.087 36.1222C204.303 36.0455 204.489 35.9318 204.645 35.7812C204.801 35.6278 204.922 35.4375 205.007 35.2102L205.979 35.483C205.877 35.8125 205.705 36.1023 205.463 36.3523C205.222 36.5994 204.923 36.7926 204.568 36.9318C204.213 37.0682 203.814 37.1364 203.371 37.1364ZM212.472 28.2727V37H211.466V28.2727H212.472ZM217.298 37.1364C216.667 37.1364 216.123 36.9972 215.666 36.7188C215.211 36.4375 214.86 36.0455 214.613 35.5426C214.369 35.0369 214.247 34.4489 214.247 33.7784C214.247 33.108 214.369 32.517 214.613 32.0057C214.86 31.4915 215.204 31.0909 215.644 30.804C216.088 30.5142 216.605 30.3693 217.196 30.3693C217.537 30.3693 217.873 30.4261 218.206 30.5398C218.538 30.6534 218.841 30.8381 219.113 31.0938C219.386 31.3466 219.603 31.6818 219.765 32.0994C219.927 32.517 220.008 33.0312 220.008 33.642V34.0682H214.963V33.1989H218.985C218.985 32.8295 218.912 32.5 218.764 32.2102C218.619 31.9205 218.412 31.6918 218.142 31.5241C217.875 31.3565 217.559 31.2727 217.196 31.2727C216.795 31.2727 216.448 31.3722 216.156 31.571C215.866 31.767 215.643 32.0227 215.487 32.3381C215.331 32.6534 215.252 32.9915 215.252 33.3523V33.9318C215.252 34.4261 215.338 34.8452 215.508 35.1889C215.681 35.5298 215.921 35.7898 216.228 35.9688C216.535 36.1449 216.892 36.233 217.298 36.233C217.562 36.233 217.801 36.196 218.014 36.1222C218.23 36.0455 218.416 35.9318 218.572 35.7812C218.728 35.6278 218.849 35.4375 218.934 35.2102L219.906 35.483C219.804 35.8125 219.632 36.1023 219.39 36.3523C219.149 36.5994 218.85 36.7926 218.495 36.9318C218.14 37.0682 217.741 37.1364 217.298 37.1364ZM224.625 30.4545V31.3068H221.232V30.4545H224.625ZM222.221 28.8864H223.227V35.125C223.227 35.4091 223.268 35.6222 223.35 35.7642C223.436 35.9034 223.544 35.9972 223.674 36.0455C223.808 36.0909 223.948 36.1136 224.096 36.1136C224.207 36.1136 224.298 36.108 224.369 36.0966C224.44 36.0824 224.497 36.071 224.539 36.0625L224.744 36.9659C224.676 36.9915 224.581 37.017 224.458 37.0426C224.336 37.071 224.181 37.0852 223.994 37.0852C223.71 37.0852 223.431 37.0241 223.159 36.902C222.889 36.7798 222.664 36.5938 222.485 36.3438C222.309 36.0938 222.221 35.7784 222.221 35.3977V28.8864ZM229.224 30.4545V31.3068H225.832V30.4545H229.224ZM226.821 28.8864H227.826V35.125C227.826 35.4091 227.867 35.6222 227.95 35.7642C228.035 35.9034 228.143 35.9972 228.274 36.0455C228.407 36.0909 228.548 36.1136 228.696 36.1136C228.806 36.1136 228.897 36.108 228.968 36.0966C229.039 36.0824 229.096 36.071 229.139 36.0625L229.343 36.9659C229.275 36.9915 229.18 37.017 229.058 37.0426C228.936 37.071 228.781 37.0852 228.593 37.0852C228.309 37.0852 228.031 37.0241 227.758 36.902C227.488 36.7798 227.264 36.5938 227.085 36.3438C226.909 36.0938 226.821 35.7784 226.821 35.3977V28.8864ZM233.651 37.1364C233.02 37.1364 232.476 36.9972 232.019 36.7188C231.564 36.4375 231.213 36.0455 230.966 35.5426C230.722 35.0369 230.6 34.4489 230.6 33.7784C230.6 33.108 230.722 32.517 230.966 32.0057C231.213 31.4915 231.557 31.0909 231.997 30.804C232.44 30.5142 232.958 30.3693 233.548 30.3693C233.889 30.3693 234.226 30.4261 234.558 30.5398C234.891 30.6534 235.193 30.8381 235.466 31.0938C235.739 31.3466 235.956 31.6818 236.118 32.0994C236.28 32.517 236.361 33.0312 236.361 33.642V34.0682H231.315V33.1989H235.338C235.338 32.8295 235.264 32.5 235.117 32.2102C234.972 31.9205 234.764 31.6918 234.494 31.5241C234.227 31.3565 233.912 31.2727 233.548 31.2727C233.148 31.2727 232.801 31.3722 232.509 31.571C232.219 31.767 231.996 32.0227 231.84 32.3381C231.683 32.6534 231.605 32.9915 231.605 33.3523V33.9318C231.605 34.4261 231.69 34.8452 231.861 35.1889C232.034 35.5298 232.274 35.7898 232.581 35.9688C232.888 36.1449 233.244 36.233 233.651 36.233C233.915 36.233 234.154 36.196 234.367 36.1222C234.583 36.0455 234.769 35.9318 234.925 35.7812C235.081 35.6278 235.202 35.4375 235.287 35.2102L236.259 35.483C236.156 35.8125 235.985 36.1023 235.743 36.3523C235.502 36.5994 235.203 36.7926 234.848 36.9318C234.493 37.0682 234.094 37.1364 233.651 37.1364ZM238.131 37V30.4545H239.102V31.4432H239.171C239.29 31.1193 239.506 30.8565 239.818 30.6548C240.131 30.4531 240.483 30.3523 240.875 30.3523C240.949 30.3523 241.041 30.3537 241.152 30.3565C241.263 30.3594 241.347 30.3636 241.403 30.3693V31.392C241.369 31.3835 241.291 31.3707 241.169 31.3537C241.05 31.3338 240.923 31.3239 240.79 31.3239C240.472 31.3239 240.188 31.3906 239.938 31.5241C239.69 31.6548 239.494 31.8366 239.35 32.0696C239.207 32.2997 239.136 32.5625 239.136 32.858V37H238.131Z" fill="#ADB5BD"/>
    <circle cx="9" cy="57" r="4" fill="#D9D9D9"/>
    <path d="M28.1136 52.2727V61H27.0568V52.2727H28.1136ZM31.3419 57.0625V61H30.3362V54.4545H31.3078V55.4773H31.3931C31.5465 55.1449 31.7794 54.8778 32.0919 54.6761C32.4044 54.4716 32.8078 54.3693 33.3021 54.3693C33.7453 54.3693 34.1331 54.4602 34.4655 54.642C34.7979 54.821 35.0564 55.0938 35.2411 55.4602C35.4257 55.8239 35.5181 56.2841 35.5181 56.8409V61H34.5124V56.9091C34.5124 56.3949 34.3788 55.9943 34.1118 55.7074C33.8448 55.4176 33.4783 55.2727 33.0124 55.2727C32.6913 55.2727 32.4044 55.3423 32.1516 55.4815C31.9016 55.6207 31.7041 55.8239 31.5592 56.0909C31.4144 56.358 31.3419 56.6818 31.3419 57.0625ZM40.2549 61.1364C39.6412 61.1364 39.1128 60.9915 38.6696 60.7017C38.2264 60.4119 37.8855 60.0128 37.6469 59.5043C37.4083 58.9957 37.2889 58.4148 37.2889 57.7614C37.2889 57.0966 37.4111 56.5099 37.6554 56.0014C37.9026 55.4901 38.2463 55.0909 38.6867 54.804C39.1299 54.5142 39.6469 54.3693 40.2378 54.3693C40.698 54.3693 41.1128 54.4545 41.4821 54.625C41.8514 54.7955 42.154 55.0341 42.3898 55.3409C42.6256 55.6477 42.7719 56.0057 42.8287 56.4148H41.823C41.7463 56.1165 41.5759 55.8523 41.3117 55.6222C41.0503 55.3892 40.698 55.2727 40.2549 55.2727C39.8628 55.2727 39.5191 55.375 39.2236 55.5795C38.931 55.7812 38.7023 56.0668 38.5375 56.4361C38.3756 56.8026 38.2946 57.233 38.2946 57.7273C38.2946 58.233 38.3742 58.6733 38.5333 59.0483C38.6952 59.4233 38.9225 59.7145 39.2151 59.9219C39.5105 60.1293 39.8571 60.233 40.2549 60.233C40.5162 60.233 40.7534 60.1875 40.9665 60.0966C41.1796 60.0057 41.36 59.875 41.5077 59.7045C41.6554 59.5341 41.7605 59.3295 41.823 59.0909H42.8287C42.7719 59.4773 42.6313 59.8253 42.4068 60.1349C42.1853 60.4418 41.8912 60.6861 41.5247 60.8679C41.1611 61.0469 40.7378 61.1364 40.2549 61.1364ZM45.5446 52.2727V61H44.5389V52.2727H45.5446ZM51.7515 58.3239V54.4545H52.7572V61H51.7515V59.892H51.6834C51.53 60.2244 51.2913 60.5071 50.9675 60.7401C50.6436 60.9702 50.2345 61.0852 49.7402 61.0852C49.3311 61.0852 48.9675 60.9957 48.6493 60.8168C48.3311 60.6349 48.0811 60.3622 47.8993 59.9986C47.7175 59.6321 47.6265 59.1705 47.6265 58.6136V54.4545H48.6322V58.5455C48.6322 59.0227 48.7658 59.4034 49.0328 59.6875C49.3027 59.9716 49.6464 60.1136 50.064 60.1136C50.314 60.1136 50.5683 60.0497 50.8268 59.9219C51.0882 59.794 51.3069 59.598 51.4831 59.3338C51.6621 59.0696 51.7515 58.733 51.7515 58.3239ZM57.3108 61.1364C56.7653 61.1364 56.2838 60.9986 55.8662 60.723C55.4486 60.4446 55.1219 60.0526 54.8861 59.5469C54.6503 59.0384 54.5324 58.4375 54.5324 57.7443C54.5324 57.0568 54.6503 56.4602 54.8861 55.9545C55.1219 55.4489 55.45 55.0582 55.8705 54.7827C56.2909 54.5071 56.7767 54.3693 57.3278 54.3693C57.754 54.3693 58.0906 54.4403 58.3378 54.5824C58.5878 54.7216 58.7781 54.8807 58.9088 55.0597C59.0423 55.2358 59.146 55.3807 59.2199 55.4943H59.3051V52.2727H60.3108V61H59.3392V59.9943H59.2199C59.146 60.1136 59.0409 60.2642 58.9045 60.446C58.7682 60.625 58.5736 60.7855 58.3207 60.9276C58.0679 61.0668 57.7313 61.1364 57.3108 61.1364ZM57.4472 60.233C57.8506 60.233 58.1915 60.1278 58.4699 59.9176C58.7483 59.7045 58.9599 59.4105 59.1048 59.0355C59.2497 58.6577 59.3222 58.2216 59.3222 57.7273C59.3222 57.2386 59.2511 56.8111 59.1091 56.4446C58.967 56.0753 58.7568 55.7884 58.4784 55.5838C58.2 55.3764 57.8563 55.2727 57.4472 55.2727C57.021 55.2727 56.6659 55.3821 56.3818 55.6009C56.1006 55.8168 55.8889 56.1108 55.7469 56.483C55.6077 56.8523 55.5381 57.267 55.5381 57.7273C55.5381 58.1932 55.6091 58.6165 55.7511 58.9972C55.896 59.375 56.1091 59.6761 56.3903 59.9006C56.6744 60.1222 57.0267 60.233 57.4472 60.233ZM65.2766 61.1364C64.646 61.1364 64.1019 60.9972 63.6445 60.7188C63.19 60.4375 62.8391 60.0455 62.592 59.5426C62.3477 59.0369 62.2255 58.4489 62.2255 57.7784C62.2255 57.108 62.3477 56.517 62.592 56.0057C62.8391 55.4915 63.1829 55.0909 63.6232 54.804C64.0664 54.5142 64.5835 54.3693 65.1744 54.3693C65.5153 54.3693 65.8519 54.4261 66.1843 54.5398C66.5167 54.6534 66.8193 54.8381 67.092 55.0938C67.3647 55.3466 67.582 55.6818 67.744 56.0994C67.9059 56.517 67.9869 57.0312 67.9869 57.642V58.0682H62.9414V57.1989H66.9641C66.9641 56.8295 66.8903 56.5 66.7426 56.2102C66.5977 55.9205 66.3903 55.6918 66.1204 55.5241C65.8534 55.3565 65.538 55.2727 65.1744 55.2727C64.7738 55.2727 64.4272 55.3722 64.1346 55.571C63.8448 55.767 63.6218 56.0227 63.4656 56.3381C63.3093 56.6534 63.2312 56.9915 63.2312 57.3523V57.9318C63.2312 58.4261 63.3164 58.8452 63.4869 59.1889C63.6602 59.5298 63.9002 59.7898 64.207 59.9688C64.5139 60.1449 64.8704 60.233 65.2766 60.233C65.5409 60.233 65.7795 60.196 65.9926 60.1222C66.2085 60.0455 66.3945 59.9318 66.5508 59.7812C66.707 59.6278 66.8278 59.4375 66.913 59.2102L67.8846 59.483C67.7823 59.8125 67.6105 60.1023 67.369 60.3523C67.1275 60.5994 66.8292 60.7926 66.4741 60.9318C66.119 61.0682 65.7198 61.1364 65.2766 61.1364ZM75.2978 61.1534C74.8831 61.1534 74.5066 61.0753 74.1686 60.919C73.8305 60.7599 73.562 60.5312 73.3632 60.233C73.1643 59.9318 73.0649 59.5682 73.0649 59.142C73.0649 58.767 73.1387 58.4631 73.2865 58.2301C73.4342 57.9943 73.6316 57.8097 73.8788 57.6761C74.126 57.5426 74.3987 57.4432 74.697 57.3778C74.9981 57.3097 75.3007 57.2557 75.6047 57.2159C76.0024 57.1648 76.3248 57.1264 76.572 57.1009C76.822 57.0724 77.0038 57.0256 77.1174 56.9602C77.2339 56.8949 77.2922 56.7812 77.2922 56.6193V56.5852C77.2922 56.1648 77.1771 55.8381 76.947 55.6051C76.7197 55.3722 76.3745 55.2557 75.9115 55.2557C75.4314 55.2557 75.0549 55.3608 74.7822 55.571C74.5095 55.7812 74.3177 56.0057 74.2069 56.2443L73.2524 55.9034C73.4228 55.5057 73.6501 55.196 73.9342 54.9744C74.2211 54.75 74.5336 54.5937 74.8717 54.5057C75.2126 54.4148 75.5478 54.3693 75.8774 54.3693C76.0876 54.3693 76.3291 54.3949 76.6018 54.446C76.8774 54.4943 77.143 54.5952 77.3987 54.7486C77.6572 54.902 77.8717 55.1335 78.0422 55.4432C78.2126 55.7528 78.2978 56.1676 78.2978 56.6875V61H77.2922V60.1136H77.241C77.1728 60.2557 77.0592 60.4077 76.9001 60.5696C76.741 60.7315 76.5294 60.8693 76.2652 60.983C76.001 61.0966 75.6785 61.1534 75.2978 61.1534ZM75.4512 60.25C75.849 60.25 76.1842 60.1719 76.4569 60.0156C76.7325 59.8594 76.9399 59.6577 77.0791 59.4105C77.2211 59.1634 77.2922 58.9034 77.2922 58.6307V57.7102C77.2495 57.7614 77.1558 57.8082 77.0109 57.8509C76.8689 57.8906 76.7041 57.9261 76.5166 57.9574C76.3319 57.9858 76.1515 58.0114 75.9754 58.0341C75.8021 58.054 75.6615 58.071 75.5535 58.0852C75.2922 58.1193 75.0478 58.1747 74.8206 58.2514C74.5961 58.3253 74.4143 58.4375 74.2751 58.5881C74.1387 58.7358 74.0706 58.9375 74.0706 59.1932C74.0706 59.5426 74.1998 59.8068 74.4584 59.9858C74.7197 60.1619 75.0507 60.25 75.4512 60.25ZM83.22 54.4545V55.3068H79.828V54.4545H83.22ZM80.8166 52.8864H81.8223V59.125C81.8223 59.4091 81.8635 59.6222 81.9459 59.7642C82.0311 59.9034 82.139 59.9972 82.2697 60.0455C82.4033 60.0909 82.5439 60.1136 82.6916 60.1136C82.8024 60.1136 82.8933 60.108 82.9643 60.0966C83.0354 60.0824 83.0922 60.071 83.1348 60.0625L83.3393 60.9659C83.2712 60.9915 83.176 61.017 83.0538 61.0426C82.9317 61.071 82.7768 61.0852 82.5893 61.0852C82.3052 61.0852 82.0268 61.0241 81.7541 60.902C81.4842 60.7798 81.2598 60.5938 81.0808 60.3438C80.9047 60.0938 80.8166 59.7784 80.8166 59.3977V52.8864ZM89.5935 52.2727V61H88.5878V52.2727H89.5935ZM94.4198 61.1364C93.7891 61.1364 93.2451 60.9972 92.7877 60.7188C92.3331 60.4375 91.9823 60.0455 91.7351 59.5426C91.4908 59.0369 91.3686 58.4489 91.3686 57.7784C91.3686 57.108 91.4908 56.517 91.7351 56.0057C91.9823 55.4915 92.326 55.0909 92.7664 54.804C93.2095 54.5142 93.7266 54.3693 94.3175 54.3693C94.6584 54.3693 94.9951 54.4261 95.3274 54.5398C95.6598 54.6534 95.9624 54.8381 96.2351 55.0938C96.5078 55.3466 96.7252 55.6818 96.8871 56.0994C97.049 56.517 97.13 57.0312 97.13 57.642V58.0682H92.0845V57.1989H96.1073C96.1073 56.8295 96.0334 56.5 95.8857 56.2102C95.7408 55.9205 95.5334 55.6918 95.2635 55.5241C94.9965 55.3565 94.6811 55.2727 94.3175 55.2727C93.9169 55.2727 93.5703 55.3722 93.2777 55.571C92.988 55.767 92.7649 56.0227 92.6087 56.3381C92.4524 56.6534 92.3743 56.9915 92.3743 57.3523V57.9318C92.3743 58.4261 92.4595 58.8452 92.63 59.1889C92.8033 59.5298 93.0433 59.7898 93.3502 59.9688C93.657 60.1449 94.0135 60.233 94.4198 60.233C94.684 60.233 94.9226 60.196 95.1357 60.1222C95.3516 60.0455 95.5377 59.9318 95.6939 59.7812C95.8502 59.6278 95.9709 59.4375 96.0561 59.2102L97.0277 59.483C96.9255 59.8125 96.7536 60.1023 96.5121 60.3523C96.2706 60.5994 95.9723 60.7926 95.6172 60.9318C95.2621 61.0682 94.863 61.1364 94.4198 61.1364ZM100.826 61.1534C100.411 61.1534 100.035 61.0753 99.6967 60.919C99.3586 60.7599 99.0902 60.5312 98.8913 60.233C98.6924 59.9318 98.593 59.5682 98.593 59.142C98.593 58.767 98.6669 58.4631 98.8146 58.2301C98.9623 57.9943 99.1598 57.8097 99.4069 57.6761C99.6541 57.5426 99.9268 57.4432 100.225 57.3778C100.526 57.3097 100.829 57.2557 101.133 57.2159C101.531 57.1648 101.853 57.1264 102.1 57.1009C102.35 57.0724 102.532 57.0256 102.646 56.9602C102.762 56.8949 102.82 56.7812 102.82 56.6193V56.5852C102.82 56.1648 102.705 55.8381 102.475 55.6051C102.248 55.3722 101.903 55.2557 101.44 55.2557C100.959 55.2557 100.583 55.3608 100.31 55.571C100.038 55.7812 99.8459 56.0057 99.7351 56.2443L98.7805 55.9034C98.951 55.5057 99.1782 55.196 99.4623 54.9744C99.7493 54.75 100.062 54.5937 100.4 54.5057C100.741 54.4148 101.076 54.3693 101.406 54.3693C101.616 54.3693 101.857 54.3949 102.13 54.446C102.406 54.4943 102.671 54.5952 102.927 54.7486C103.185 54.902 103.4 55.1335 103.57 55.4432C103.741 55.7528 103.826 56.1676 103.826 56.6875V61H102.82V60.1136H102.769C102.701 60.2557 102.587 60.4077 102.428 60.5696C102.269 60.7315 102.058 60.8693 101.793 60.983C101.529 61.0966 101.207 61.1534 100.826 61.1534ZM100.979 60.25C101.377 60.25 101.712 60.1719 101.985 60.0156C102.261 59.8594 102.468 59.6577 102.607 59.4105C102.749 59.1634 102.82 58.9034 102.82 58.6307V57.7102C102.778 57.7614 102.684 57.8082 102.539 57.8509C102.397 57.8906 102.232 57.9261 102.045 57.9574C101.86 57.9858 101.68 58.0114 101.504 58.0341C101.33 58.054 101.19 58.071 101.082 58.0852C100.82 58.1193 100.576 58.1747 100.349 58.2514C100.124 58.3253 99.9424 58.4375 99.8032 58.5881C99.6669 58.7358 99.5987 58.9375 99.5987 59.1932C99.5987 59.5426 99.728 59.8068 99.9865 59.9858C100.248 60.1619 100.579 60.25 100.979 60.25ZM110.538 55.9205L109.635 56.1761C109.578 56.0256 109.494 55.8793 109.383 55.7372C109.275 55.5923 109.127 55.473 108.94 55.3793C108.752 55.2855 108.512 55.2386 108.22 55.2386C107.819 55.2386 107.485 55.331 107.218 55.5156C106.954 55.6974 106.822 55.929 106.822 56.2102C106.822 56.4602 106.913 56.6577 107.095 56.8026C107.277 56.9474 107.561 57.0682 107.947 57.1648L108.919 57.4034C109.504 57.5455 109.94 57.7628 110.227 58.0554C110.514 58.3452 110.657 58.7187 110.657 59.1761C110.657 59.5511 110.549 59.8864 110.333 60.1818C110.12 60.4773 109.822 60.7102 109.438 60.8807C109.055 61.0511 108.609 61.1364 108.1 61.1364C107.433 61.1364 106.88 60.9915 106.443 60.7017C106.005 60.4119 105.728 59.9886 105.612 59.4318L106.566 59.1932C106.657 59.5455 106.829 59.8097 107.082 59.9858C107.338 60.1619 107.671 60.25 108.083 60.25C108.552 60.25 108.924 60.1506 109.2 59.9517C109.478 59.75 109.617 59.5085 109.617 59.2273C109.617 59 109.538 58.8097 109.379 58.6562C109.22 58.5 108.975 58.3835 108.646 58.3068L107.555 58.0511C106.956 57.9091 106.515 57.6889 106.234 57.3906C105.956 57.0895 105.816 56.7131 105.816 56.2614C105.816 55.892 105.92 55.5653 106.127 55.2812C106.338 54.9972 106.623 54.7741 106.984 54.6122C107.348 54.4503 107.76 54.3693 108.22 54.3693C108.867 54.3693 109.376 54.5114 109.745 54.7955C110.117 55.0795 110.382 55.4545 110.538 55.9205ZM115.258 54.4545V55.3068H111.866V54.4545H115.258ZM112.854 52.8864H113.86V59.125C113.86 59.4091 113.901 59.6222 113.984 59.7642C114.069 59.9034 114.177 59.9972 114.307 60.0455C114.441 60.0909 114.582 60.1136 114.729 60.1136C114.84 60.1136 114.931 60.108 115.002 60.0966C115.073 60.0824 115.13 60.071 115.172 60.0625L115.377 60.9659C115.309 60.9915 115.214 61.017 115.091 61.0426C114.969 61.071 114.814 61.0852 114.627 61.0852C114.343 61.0852 114.064 61.0241 113.792 60.902C113.522 60.7798 113.297 60.5938 113.118 60.3438C112.942 60.0938 112.854 59.7784 112.854 59.3977V52.8864ZM123.285 61.1364C122.694 61.1364 122.175 60.9957 121.729 60.7145C121.286 60.4332 120.939 60.0398 120.689 59.5341C120.442 59.0284 120.319 58.4375 120.319 57.7614C120.319 57.0795 120.442 56.4844 120.689 55.9759C120.939 55.4673 121.286 55.0724 121.729 54.7912C122.175 54.5099 122.694 54.3693 123.285 54.3693C123.875 54.3693 124.393 54.5099 124.836 54.7912C125.282 55.0724 125.628 55.4673 125.875 55.9759C126.125 56.4844 126.25 57.0795 126.25 57.7614C126.25 58.4375 126.125 59.0284 125.875 59.5341C125.628 60.0398 125.282 60.4332 124.836 60.7145C124.393 60.9957 123.875 61.1364 123.285 61.1364ZM123.285 60.233C123.733 60.233 124.103 60.1179 124.393 59.8878C124.682 59.6577 124.897 59.3551 125.036 58.9801C125.175 58.6051 125.245 58.1989 125.245 57.7614C125.245 57.3239 125.175 56.9162 125.036 56.5384C124.897 56.1605 124.682 55.8551 124.393 55.6222C124.103 55.3892 123.733 55.2727 123.285 55.2727C122.836 55.2727 122.466 55.3892 122.177 55.6222C121.887 55.8551 121.672 56.1605 121.533 56.5384C121.394 56.9162 121.324 57.3239 121.324 57.7614C121.324 58.1989 121.394 58.6051 121.533 58.9801C121.672 59.3551 121.887 59.6577 122.177 59.8878C122.466 60.1179 122.836 60.233 123.285 60.233ZM129.031 57.0625V61H128.026V54.4545H128.997V55.4773H129.082C129.236 55.1449 129.469 54.8778 129.781 54.6761C130.094 54.4716 130.497 54.3693 130.992 54.3693C131.435 54.3693 131.822 54.4602 132.155 54.642C132.487 54.821 132.746 55.0938 132.93 55.4602C133.115 55.8239 133.207 56.2841 133.207 56.8409V61H132.202V56.9091C132.202 56.3949 132.068 55.9943 131.801 55.7074C131.534 55.4176 131.168 55.2727 130.702 55.2727C130.381 55.2727 130.094 55.3423 129.841 55.4815C129.591 55.6207 129.394 55.8239 129.249 56.0909C129.104 56.358 129.031 56.6818 129.031 57.0625ZM138.029 61.1364C137.399 61.1364 136.855 60.9972 136.397 60.7188C135.943 60.4375 135.592 60.0455 135.345 59.5426C135.1 59.0369 134.978 58.4489 134.978 57.7784C134.978 57.108 135.1 56.517 135.345 56.0057C135.592 55.4915 135.936 55.0909 136.376 54.804C136.819 54.5142 137.336 54.3693 137.927 54.3693C138.268 54.3693 138.605 54.4261 138.937 54.5398C139.27 54.6534 139.572 54.8381 139.845 55.0938C140.118 55.3466 140.335 55.6818 140.497 56.0994C140.659 56.517 140.74 57.0312 140.74 57.642V58.0682H135.694V57.1989H139.717C139.717 56.8295 139.643 56.5 139.495 56.2102C139.35 55.9205 139.143 55.6918 138.873 55.5241C138.606 55.3565 138.291 55.2727 137.927 55.2727C137.527 55.2727 137.18 55.3722 136.887 55.571C136.598 55.767 136.375 56.0227 136.218 56.3381C136.062 56.6534 135.984 56.9915 135.984 57.3523V57.9318C135.984 58.4261 136.069 58.8452 136.24 59.1889C136.413 59.5298 136.653 59.7898 136.96 59.9688C137.267 60.1449 137.623 60.233 138.029 60.233C138.294 60.233 138.532 60.196 138.745 60.1222C138.961 60.0455 139.147 59.9318 139.304 59.7812C139.46 59.6278 139.581 59.4375 139.666 59.2102L140.637 59.483C140.535 59.8125 140.363 60.1023 140.122 60.3523C139.88 60.5994 139.582 60.7926 139.227 60.9318C138.872 61.0682 138.473 61.1364 138.029 61.1364ZM147.13 57.0625V61H146.125V54.4545H147.096V55.4773H147.181C147.335 55.1449 147.568 54.8778 147.88 54.6761C148.193 54.4716 148.596 54.3693 149.09 54.3693C149.534 54.3693 149.921 54.4602 150.254 54.642C150.586 54.821 150.845 55.0938 151.029 55.4602C151.214 55.8239 151.306 56.2841 151.306 56.8409V61H150.301V56.9091C150.301 56.3949 150.167 55.9943 149.9 55.7074C149.633 55.4176 149.267 55.2727 148.801 55.2727C148.48 55.2727 148.193 55.3423 147.94 55.4815C147.69 55.6207 147.492 55.8239 147.348 56.0909C147.203 56.358 147.13 56.6818 147.13 57.0625ZM157.509 58.3239V54.4545H158.515V61H157.509V59.892H157.441C157.287 60.2244 157.049 60.5071 156.725 60.7401C156.401 60.9702 155.992 61.0852 155.498 61.0852C155.089 61.0852 154.725 60.9957 154.407 60.8168C154.089 60.6349 153.839 60.3622 153.657 59.9986C153.475 59.6321 153.384 59.1705 153.384 58.6136V54.4545H154.39V58.5455C154.39 59.0227 154.523 59.4034 154.79 59.6875C155.06 59.9716 155.404 60.1136 155.822 60.1136C156.072 60.1136 156.326 60.0497 156.584 59.9219C156.846 59.794 157.064 59.598 157.241 59.3338C157.42 59.0696 157.509 58.733 157.509 58.3239ZM160.597 61V54.4545H161.568V55.4773H161.654C161.79 55.1278 162.01 54.8565 162.314 54.6634C162.618 54.4673 162.983 54.3693 163.409 54.3693C163.841 54.3693 164.2 54.4673 164.487 54.6634C164.777 54.8565 165.003 55.1278 165.165 55.4773H165.233C165.401 55.1392 165.652 54.8707 165.987 54.6719C166.323 54.4702 166.725 54.3693 167.193 54.3693C167.779 54.3693 168.257 54.5526 168.629 54.919C169.002 55.2827 169.188 55.8494 169.188 56.6193V61H168.182V56.6193C168.182 56.1364 168.05 55.7912 167.786 55.5838C167.521 55.3764 167.21 55.2727 166.852 55.2727C166.392 55.2727 166.036 55.4119 165.783 55.6903C165.53 55.9659 165.404 56.3153 165.404 56.7386V61H164.381V56.517C164.381 56.1449 164.26 55.8452 164.019 55.6179C163.777 55.3878 163.466 55.2727 163.085 55.2727C162.824 55.2727 162.58 55.3423 162.352 55.4815C162.128 55.6207 161.946 55.8139 161.807 56.0611C161.671 56.3054 161.602 56.5881 161.602 56.9091V61H160.597ZM171.403 61V52.2727H172.408V55.4943H172.494C172.568 55.3807 172.67 55.2358 172.8 55.0597C172.934 54.8807 173.124 54.7216 173.372 54.5824C173.622 54.4403 173.96 54.3693 174.386 54.3693C174.937 54.3693 175.423 54.5071 175.843 54.7827C176.264 55.0582 176.592 55.4489 176.827 55.9545C177.063 56.4602 177.181 57.0568 177.181 57.7443C177.181 58.4375 177.063 59.0384 176.827 59.5469C176.592 60.0526 176.265 60.4446 175.847 60.723C175.43 60.9986 174.948 61.1364 174.403 61.1364C173.982 61.1364 173.646 61.0668 173.393 60.9276C173.14 60.7855 172.945 60.625 172.809 60.446C172.673 60.2642 172.568 60.1136 172.494 59.9943H172.374V61H171.403ZM172.391 57.7273C172.391 58.2216 172.464 58.6577 172.609 59.0355C172.754 59.4105 172.965 59.7045 173.244 59.9176C173.522 60.1278 173.863 60.233 174.266 60.233C174.687 60.233 175.038 60.1222 175.319 59.9006C175.603 59.6761 175.816 59.375 175.958 58.9972C176.103 58.6165 176.175 58.1932 176.175 57.7273C176.175 57.267 176.104 56.8523 175.962 56.483C175.823 56.1108 175.612 55.8168 175.327 55.6009C175.046 55.3821 174.693 55.2727 174.266 55.2727C173.857 55.2727 173.514 55.3764 173.235 55.5838C172.957 55.7884 172.747 56.0753 172.604 56.4446C172.462 56.8111 172.391 57.2386 172.391 57.7273ZM181.704 61.1364C181.073 61.1364 180.529 60.9972 180.072 60.7188C179.617 60.4375 179.266 60.0455 179.019 59.5426C178.775 59.0369 178.653 58.4489 178.653 57.7784C178.653 57.108 178.775 56.517 179.019 56.0057C179.266 55.4915 179.61 55.0909 180.05 54.804C180.494 54.5142 181.011 54.3693 181.602 54.3693C181.942 54.3693 182.279 54.4261 182.612 54.5398C182.944 54.6534 183.246 54.8381 183.519 55.0938C183.792 55.3466 184.009 55.6818 184.171 56.0994C184.333 56.517 184.414 57.0312 184.414 57.642V58.0682H179.369V57.1989H183.391C183.391 56.8295 183.317 56.5 183.17 56.2102C183.025 55.9205 182.817 55.6918 182.548 55.5241C182.281 55.3565 181.965 55.2727 181.602 55.2727C181.201 55.2727 180.854 55.3722 180.562 55.571C180.272 55.767 180.049 56.0227 179.893 56.3381C179.737 56.6534 179.658 56.9915 179.658 57.3523V57.9318C179.658 58.4261 179.744 58.8452 179.914 59.1889C180.087 59.5298 180.327 59.7898 180.634 59.9688C180.941 60.1449 181.298 60.233 181.704 60.233C181.968 60.233 182.207 60.196 182.42 60.1222C182.636 60.0455 182.822 59.9318 182.978 59.7812C183.134 59.6278 183.255 59.4375 183.34 59.2102L184.312 59.483C184.21 59.8125 184.038 60.1023 183.796 60.3523C183.555 60.5994 183.256 60.7926 182.901 60.9318C182.546 61.0682 182.147 61.1364 181.704 61.1364ZM186.184 61V54.4545H187.155V55.4432H187.224C187.343 55.1193 187.559 54.8565 187.871 54.6548C188.184 54.4531 188.536 54.3523 188.928 54.3523C189.002 54.3523 189.094 54.3537 189.205 54.3565C189.316 54.3594 189.4 54.3636 189.457 54.3693V55.392C189.423 55.3835 189.344 55.3707 189.222 55.3537C189.103 55.3338 188.977 55.3239 188.843 55.3239C188.525 55.3239 188.241 55.3906 187.991 55.5241C187.744 55.6548 187.548 55.8366 187.403 56.0696C187.261 56.2997 187.19 56.5625 187.19 56.858V61H186.184Z" fill="#ADB5BD"/>
    <circle cx="9" cy="81" r="4" fill="#D9D9D9"/>
    <path d="M28.1136 76.2727V85H27.0568V76.2727H28.1136ZM31.3419 81.0625V85H30.3362V78.4545H31.3078V79.4773H31.3931C31.5465 79.1449 31.7794 78.8778 32.0919 78.6761C32.4044 78.4716 32.8078 78.3693 33.3021 78.3693C33.7453 78.3693 34.1331 78.4602 34.4655 78.642C34.7979 78.821 35.0564 79.0938 35.2411 79.4602C35.4257 79.8239 35.5181 80.2841 35.5181 80.8409V85H34.5124V80.9091C34.5124 80.3949 34.3788 79.9943 34.1118 79.7074C33.8448 79.4176 33.4783 79.2727 33.0124 79.2727C32.6913 79.2727 32.4044 79.3423 32.1516 79.4815C31.9016 79.6207 31.7041 79.8239 31.5592 80.0909C31.4144 80.358 31.3419 80.6818 31.3419 81.0625ZM40.2549 85.1364C39.6412 85.1364 39.1128 84.9915 38.6696 84.7017C38.2264 84.4119 37.8855 84.0128 37.6469 83.5043C37.4083 82.9957 37.2889 82.4148 37.2889 81.7614C37.2889 81.0966 37.4111 80.5099 37.6554 80.0014C37.9026 79.4901 38.2463 79.0909 38.6867 78.804C39.1299 78.5142 39.6469 78.3693 40.2378 78.3693C40.698 78.3693 41.1128 78.4545 41.4821 78.625C41.8514 78.7955 42.154 79.0341 42.3898 79.3409C42.6256 79.6477 42.7719 80.0057 42.8287 80.4148H41.823C41.7463 80.1165 41.5759 79.8523 41.3117 79.6222C41.0503 79.3892 40.698 79.2727 40.2549 79.2727C39.8628 79.2727 39.5191 79.375 39.2236 79.5795C38.931 79.7812 38.7023 80.0668 38.5375 80.4361C38.3756 80.8026 38.2946 81.233 38.2946 81.7273C38.2946 82.233 38.3742 82.6733 38.5333 83.0483C38.6952 83.4233 38.9225 83.7145 39.2151 83.9219C39.5105 84.1293 39.8571 84.233 40.2549 84.233C40.5162 84.233 40.7534 84.1875 40.9665 84.0966C41.1796 84.0057 41.36 83.875 41.5077 83.7045C41.6554 83.5341 41.7605 83.3295 41.823 83.0909H42.8287C42.7719 83.4773 42.6313 83.8253 42.4068 84.1349C42.1853 84.4418 41.8912 84.6861 41.5247 84.8679C41.1611 85.0469 40.7378 85.1364 40.2549 85.1364ZM45.5446 76.2727V85H44.5389V76.2727H45.5446ZM51.7515 82.3239V78.4545H52.7572V85H51.7515V83.892H51.6834C51.53 84.2244 51.2913 84.5071 50.9675 84.7401C50.6436 84.9702 50.2345 85.0852 49.7402 85.0852C49.3311 85.0852 48.9675 84.9957 48.6493 84.8168C48.3311 84.6349 48.0811 84.3622 47.8993 83.9986C47.7175 83.6321 47.6265 83.1705 47.6265 82.6136V78.4545H48.6322V82.5455C48.6322 83.0227 48.7658 83.4034 49.0328 83.6875C49.3027 83.9716 49.6464 84.1136 50.064 84.1136C50.314 84.1136 50.5683 84.0497 50.8268 83.9219C51.0882 83.794 51.3069 83.598 51.4831 83.3338C51.6621 83.0696 51.7515 82.733 51.7515 82.3239ZM57.3108 85.1364C56.7653 85.1364 56.2838 84.9986 55.8662 84.723C55.4486 84.4446 55.1219 84.0526 54.8861 83.5469C54.6503 83.0384 54.5324 82.4375 54.5324 81.7443C54.5324 81.0568 54.6503 80.4602 54.8861 79.9545C55.1219 79.4489 55.45 79.0582 55.8705 78.7827C56.2909 78.5071 56.7767 78.3693 57.3278 78.3693C57.754 78.3693 58.0906 78.4403 58.3378 78.5824C58.5878 78.7216 58.7781 78.8807 58.9088 79.0597C59.0423 79.2358 59.146 79.3807 59.2199 79.4943H59.3051V76.2727H60.3108V85H59.3392V83.9943H59.2199C59.146 84.1136 59.0409 84.2642 58.9045 84.446C58.7682 84.625 58.5736 84.7855 58.3207 84.9276C58.0679 85.0668 57.7313 85.1364 57.3108 85.1364ZM57.4472 84.233C57.8506 84.233 58.1915 84.1278 58.4699 83.9176C58.7483 83.7045 58.9599 83.4105 59.1048 83.0355C59.2497 82.6577 59.3222 82.2216 59.3222 81.7273C59.3222 81.2386 59.2511 80.8111 59.1091 80.4446C58.967 80.0753 58.7568 79.7884 58.4784 79.5838C58.2 79.3764 57.8563 79.2727 57.4472 79.2727C57.021 79.2727 56.6659 79.3821 56.3818 79.6009C56.1006 79.8168 55.8889 80.1108 55.7469 80.483C55.6077 80.8523 55.5381 81.267 55.5381 81.7273C55.5381 82.1932 55.6091 82.6165 55.7511 82.9972C55.896 83.375 56.1091 83.6761 56.3903 83.9006C56.6744 84.1222 57.0267 84.233 57.4472 84.233ZM65.2766 85.1364C64.646 85.1364 64.1019 84.9972 63.6445 84.7188C63.19 84.4375 62.8391 84.0455 62.592 83.5426C62.3477 83.0369 62.2255 82.4489 62.2255 81.7784C62.2255 81.108 62.3477 80.517 62.592 80.0057C62.8391 79.4915 63.1829 79.0909 63.6232 78.804C64.0664 78.5142 64.5835 78.3693 65.1744 78.3693C65.5153 78.3693 65.8519 78.4261 66.1843 78.5398C66.5167 78.6534 66.8193 78.8381 67.092 79.0938C67.3647 79.3466 67.582 79.6818 67.744 80.0994C67.9059 80.517 67.9869 81.0312 67.9869 81.642V82.0682H62.9414V81.1989H66.9641C66.9641 80.8295 66.8903 80.5 66.7426 80.2102C66.5977 79.9205 66.3903 79.6918 66.1204 79.5241C65.8534 79.3565 65.538 79.2727 65.1744 79.2727C64.7738 79.2727 64.4272 79.3722 64.1346 79.571C63.8448 79.767 63.6218 80.0227 63.4656 80.3381C63.3093 80.6534 63.2312 80.9915 63.2312 81.3523V81.9318C63.2312 82.4261 63.3164 82.8452 63.4869 83.1889C63.6602 83.5298 63.9002 83.7898 64.207 83.9688C64.5139 84.1449 64.8704 84.233 65.2766 84.233C65.5409 84.233 65.7795 84.196 65.9926 84.1222C66.2085 84.0455 66.3945 83.9318 66.5508 83.7812C66.707 83.6278 66.8278 83.4375 66.913 83.2102L67.8846 83.483C67.7823 83.8125 67.6105 84.1023 67.369 84.3523C67.1275 84.5994 66.8292 84.7926 66.4741 84.9318C66.119 85.0682 65.7198 85.1364 65.2766 85.1364ZM75.2978 85.1534C74.8831 85.1534 74.5066 85.0753 74.1686 84.919C73.8305 84.7599 73.562 84.5312 73.3632 84.233C73.1643 83.9318 73.0649 83.5682 73.0649 83.142C73.0649 82.767 73.1387 82.4631 73.2865 82.2301C73.4342 81.9943 73.6316 81.8097 73.8788 81.6761C74.126 81.5426 74.3987 81.4432 74.697 81.3778C74.9981 81.3097 75.3007 81.2557 75.6047 81.2159C76.0024 81.1648 76.3248 81.1264 76.572 81.1009C76.822 81.0724 77.0038 81.0256 77.1174 80.9602C77.2339 80.8949 77.2922 80.7812 77.2922 80.6193V80.5852C77.2922 80.1648 77.1771 79.8381 76.947 79.6051C76.7197 79.3722 76.3745 79.2557 75.9115 79.2557C75.4314 79.2557 75.0549 79.3608 74.7822 79.571C74.5095 79.7812 74.3177 80.0057 74.2069 80.2443L73.2524 79.9034C73.4228 79.5057 73.6501 79.196 73.9342 78.9744C74.2211 78.75 74.5336 78.5937 74.8717 78.5057C75.2126 78.4148 75.5478 78.3693 75.8774 78.3693C76.0876 78.3693 76.3291 78.3949 76.6018 78.446C76.8774 78.4943 77.143 78.5952 77.3987 78.7486C77.6572 78.902 77.8717 79.1335 78.0422 79.4432C78.2126 79.7528 78.2978 80.1676 78.2978 80.6875V85H77.2922V84.1136H77.241C77.1728 84.2557 77.0592 84.4077 76.9001 84.5696C76.741 84.7315 76.5294 84.8693 76.2652 84.983C76.001 85.0966 75.6785 85.1534 75.2978 85.1534ZM75.4512 84.25C75.849 84.25 76.1842 84.1719 76.4569 84.0156C76.7325 83.8594 76.9399 83.6577 77.0791 83.4105C77.2211 83.1634 77.2922 82.9034 77.2922 82.6307V81.7102C77.2495 81.7614 77.1558 81.8082 77.0109 81.8509C76.8689 81.8906 76.7041 81.9261 76.5166 81.9574C76.3319 81.9858 76.1515 82.0114 75.9754 82.0341C75.8021 82.054 75.6615 82.071 75.5535 82.0852C75.2922 82.1193 75.0478 82.1747 74.8206 82.2514C74.5961 82.3253 74.4143 82.4375 74.2751 82.5881C74.1387 82.7358 74.0706 82.9375 74.0706 83.1932C74.0706 83.5426 74.1998 83.8068 74.4584 83.9858C74.7197 84.1619 75.0507 84.25 75.4512 84.25ZM83.22 78.4545V79.3068H79.828V78.4545H83.22ZM80.8166 76.8864H81.8223V83.125C81.8223 83.4091 81.8635 83.6222 81.9459 83.7642C82.0311 83.9034 82.139 83.9972 82.2697 84.0455C82.4033 84.0909 82.5439 84.1136 82.6916 84.1136C82.8024 84.1136 82.8933 84.108 82.9643 84.0966C83.0354 84.0824 83.0922 84.071 83.1348 84.0625L83.3393 84.9659C83.2712 84.9915 83.176 85.017 83.0538 85.0426C82.9317 85.071 82.7768 85.0852 82.5893 85.0852C82.3052 85.0852 82.0268 85.0241 81.7541 84.902C81.4842 84.7798 81.2598 84.5938 81.0808 84.3438C80.9047 84.0938 80.8166 83.7784 80.8166 83.3977V76.8864ZM89.5935 76.2727V85H88.5878V76.2727H89.5935ZM94.4198 85.1364C93.7891 85.1364 93.2451 84.9972 92.7877 84.7188C92.3331 84.4375 91.9823 84.0455 91.7351 83.5426C91.4908 83.0369 91.3686 82.4489 91.3686 81.7784C91.3686 81.108 91.4908 80.517 91.7351 80.0057C91.9823 79.4915 92.326 79.0909 92.7664 78.804C93.2095 78.5142 93.7266 78.3693 94.3175 78.3693C94.6584 78.3693 94.9951 78.4261 95.3274 78.5398C95.6598 78.6534 95.9624 78.8381 96.2351 79.0938C96.5078 79.3466 96.7252 79.6818 96.8871 80.0994C97.049 80.517 97.13 81.0312 97.13 81.642V82.0682H92.0845V81.1989H96.1073C96.1073 80.8295 96.0334 80.5 95.8857 80.2102C95.7408 79.9205 95.5334 79.6918 95.2635 79.5241C94.9965 79.3565 94.6811 79.2727 94.3175 79.2727C93.9169 79.2727 93.5703 79.3722 93.2777 79.571C92.988 79.767 92.7649 80.0227 92.6087 80.3381C92.4524 80.6534 92.3743 80.9915 92.3743 81.3523V81.9318C92.3743 82.4261 92.4595 82.8452 92.63 83.1889C92.8033 83.5298 93.0433 83.7898 93.3502 83.9688C93.657 84.1449 94.0135 84.233 94.4198 84.233C94.684 84.233 94.9226 84.196 95.1357 84.1222C95.3516 84.0455 95.5377 83.9318 95.6939 83.7812C95.8502 83.6278 95.9709 83.4375 96.0561 83.2102L97.0277 83.483C96.9255 83.8125 96.7536 84.1023 96.5121 84.3523C96.2706 84.5994 95.9723 84.7926 95.6172 84.9318C95.2621 85.0682 94.863 85.1364 94.4198 85.1364ZM100.826 85.1534C100.411 85.1534 100.035 85.0753 99.6967 84.919C99.3586 84.7599 99.0902 84.5312 98.8913 84.233C98.6924 83.9318 98.593 83.5682 98.593 83.142C98.593 82.767 98.6669 82.4631 98.8146 82.2301C98.9623 81.9943 99.1598 81.8097 99.4069 81.6761C99.6541 81.5426 99.9268 81.4432 100.225 81.3778C100.526 81.3097 100.829 81.2557 101.133 81.2159C101.531 81.1648 101.853 81.1264 102.1 81.1009C102.35 81.0724 102.532 81.0256 102.646 80.9602C102.762 80.8949 102.82 80.7812 102.82 80.6193V80.5852C102.82 80.1648 102.705 79.8381 102.475 79.6051C102.248 79.3722 101.903 79.2557 101.44 79.2557C100.959 79.2557 100.583 79.3608 100.31 79.571C100.038 79.7812 99.8459 80.0057 99.7351 80.2443L98.7805 79.9034C98.951 79.5057 99.1782 79.196 99.4623 78.9744C99.7493 78.75 100.062 78.5937 100.4 78.5057C100.741 78.4148 101.076 78.3693 101.406 78.3693C101.616 78.3693 101.857 78.3949 102.13 78.446C102.406 78.4943 102.671 78.5952 102.927 78.7486C103.185 78.902 103.4 79.1335 103.57 79.4432C103.741 79.7528 103.826 80.1676 103.826 80.6875V85H102.82V84.1136H102.769C102.701 84.2557 102.587 84.4077 102.428 84.5696C102.269 84.7315 102.058 84.8693 101.793 84.983C101.529 85.0966 101.207 85.1534 100.826 85.1534ZM100.979 84.25C101.377 84.25 101.712 84.1719 101.985 84.0156C102.261 83.8594 102.468 83.6577 102.607 83.4105C102.749 83.1634 102.82 82.9034 102.82 82.6307V81.7102C102.778 81.7614 102.684 81.8082 102.539 81.8509C102.397 81.8906 102.232 81.9261 102.045 81.9574C101.86 81.9858 101.68 82.0114 101.504 82.0341C101.33 82.054 101.19 82.071 101.082 82.0852C100.82 82.1193 100.576 82.1747 100.349 82.2514C100.124 82.3253 99.9424 82.4375 99.8032 82.5881C99.6669 82.7358 99.5987 82.9375 99.5987 83.1932C99.5987 83.5426 99.728 83.8068 99.9865 83.9858C100.248 84.1619 100.579 84.25 100.979 84.25ZM110.538 79.9205L109.635 80.1761C109.578 80.0256 109.494 79.8793 109.383 79.7372C109.275 79.5923 109.127 79.473 108.94 79.3793C108.752 79.2855 108.512 79.2386 108.22 79.2386C107.819 79.2386 107.485 79.331 107.218 79.5156C106.954 79.6974 106.822 79.929 106.822 80.2102C106.822 80.4602 106.913 80.6577 107.095 80.8026C107.277 80.9474 107.561 81.0682 107.947 81.1648L108.919 81.4034C109.504 81.5455 109.94 81.7628 110.227 82.0554C110.514 82.3452 110.657 82.7187 110.657 83.1761C110.657 83.5511 110.549 83.8864 110.333 84.1818C110.12 84.4773 109.822 84.7102 109.438 84.8807C109.055 85.0511 108.609 85.1364 108.1 85.1364C107.433 85.1364 106.88 84.9915 106.443 84.7017C106.005 84.4119 105.728 83.9886 105.612 83.4318L106.566 83.1932C106.657 83.5455 106.829 83.8097 107.082 83.9858C107.338 84.1619 107.671 84.25 108.083 84.25C108.552 84.25 108.924 84.1506 109.2 83.9517C109.478 83.75 109.617 83.5085 109.617 83.2273C109.617 83 109.538 82.8097 109.379 82.6562C109.22 82.5 108.975 82.3835 108.646 82.3068L107.555 82.0511C106.956 81.9091 106.515 81.6889 106.234 81.3906C105.956 81.0895 105.816 80.7131 105.816 80.2614C105.816 79.892 105.92 79.5653 106.127 79.2812C106.338 78.9972 106.623 78.7741 106.984 78.6122C107.348 78.4503 107.76 78.3693 108.22 78.3693C108.867 78.3693 109.376 78.5114 109.745 78.7955C110.117 79.0795 110.382 79.4545 110.538 79.9205ZM115.258 78.4545V79.3068H111.866V78.4545H115.258ZM112.854 76.8864H113.86V83.125C113.86 83.4091 113.901 83.6222 113.984 83.7642C114.069 83.9034 114.177 83.9972 114.307 84.0455C114.441 84.0909 114.582 84.1136 114.729 84.1136C114.84 84.1136 114.931 84.108 115.002 84.0966C115.073 84.0824 115.13 84.071 115.172 84.0625L115.377 84.9659C115.309 84.9915 115.214 85.017 115.091 85.0426C114.969 85.071 114.814 85.0852 114.627 85.0852C114.343 85.0852 114.064 85.0241 113.792 84.902C113.522 84.7798 113.297 84.5938 113.118 84.3438C112.942 84.0938 112.854 83.7784 112.854 83.3977V76.8864ZM123.285 85.1364C122.694 85.1364 122.175 84.9957 121.729 84.7145C121.286 84.4332 120.939 84.0398 120.689 83.5341C120.442 83.0284 120.319 82.4375 120.319 81.7614C120.319 81.0795 120.442 80.4844 120.689 79.9759C120.939 79.4673 121.286 79.0724 121.729 78.7912C122.175 78.5099 122.694 78.3693 123.285 78.3693C123.875 78.3693 124.393 78.5099 124.836 78.7912C125.282 79.0724 125.628 79.4673 125.875 79.9759C126.125 80.4844 126.25 81.0795 126.25 81.7614C126.25 82.4375 126.125 83.0284 125.875 83.5341C125.628 84.0398 125.282 84.4332 124.836 84.7145C124.393 84.9957 123.875 85.1364 123.285 85.1364ZM123.285 84.233C123.733 84.233 124.103 84.1179 124.393 83.8878C124.682 83.6577 124.897 83.3551 125.036 82.9801C125.175 82.6051 125.245 82.1989 125.245 81.7614C125.245 81.3239 125.175 80.9162 125.036 80.5384C124.897 80.1605 124.682 79.8551 124.393 79.6222C124.103 79.3892 123.733 79.2727 123.285 79.2727C122.836 79.2727 122.466 79.3892 122.177 79.6222C121.887 79.8551 121.672 80.1605 121.533 80.5384C121.394 80.9162 121.324 81.3239 121.324 81.7614C121.324 82.1989 121.394 82.6051 121.533 82.9801C121.672 83.3551 121.887 83.6577 122.177 83.8878C122.466 84.1179 122.836 84.233 123.285 84.233ZM129.031 81.0625V85H128.026V78.4545H128.997V79.4773H129.082C129.236 79.1449 129.469 78.8778 129.781 78.6761C130.094 78.4716 130.497 78.3693 130.992 78.3693C131.435 78.3693 131.822 78.4602 132.155 78.642C132.487 78.821 132.746 79.0938 132.93 79.4602C133.115 79.8239 133.207 80.2841 133.207 80.8409V85H132.202V80.9091C132.202 80.3949 132.068 79.9943 131.801 79.7074C131.534 79.4176 131.168 79.2727 130.702 79.2727C130.381 79.2727 130.094 79.3423 129.841 79.4815C129.591 79.6207 129.394 79.8239 129.249 80.0909C129.104 80.358 129.031 80.6818 129.031 81.0625ZM138.029 85.1364C137.399 85.1364 136.855 84.9972 136.397 84.7188C135.943 84.4375 135.592 84.0455 135.345 83.5426C135.1 83.0369 134.978 82.4489 134.978 81.7784C134.978 81.108 135.1 80.517 135.345 80.0057C135.592 79.4915 135.936 79.0909 136.376 78.804C136.819 78.5142 137.336 78.3693 137.927 78.3693C138.268 78.3693 138.605 78.4261 138.937 78.5398C139.27 78.6534 139.572 78.8381 139.845 79.0938C140.118 79.3466 140.335 79.6818 140.497 80.0994C140.659 80.517 140.74 81.0312 140.74 81.642V82.0682H135.694V81.1989H139.717C139.717 80.8295 139.643 80.5 139.495 80.2102C139.35 79.9205 139.143 79.6918 138.873 79.5241C138.606 79.3565 138.291 79.2727 137.927 79.2727C137.527 79.2727 137.18 79.3722 136.887 79.571C136.598 79.767 136.375 80.0227 136.218 80.3381C136.062 80.6534 135.984 80.9915 135.984 81.3523V81.9318C135.984 82.4261 136.069 82.8452 136.24 83.1889C136.413 83.5298 136.653 83.7898 136.96 83.9688C137.267 84.1449 137.623 84.233 138.029 84.233C138.294 84.233 138.532 84.196 138.745 84.1222C138.961 84.0455 139.147 83.9318 139.304 83.7812C139.46 83.6278 139.581 83.4375 139.666 83.2102L140.637 83.483C140.535 83.8125 140.363 84.1023 140.122 84.3523C139.88 84.5994 139.582 84.7926 139.227 84.9318C138.872 85.0682 138.473 85.1364 138.029 85.1364ZM150.761 79.9205L149.857 80.1761C149.801 80.0256 149.717 79.8793 149.606 79.7372C149.498 79.5923 149.35 79.473 149.163 79.3793C148.975 79.2855 148.735 79.2386 148.443 79.2386C148.042 79.2386 147.708 79.331 147.441 79.5156C147.177 79.6974 147.045 79.929 147.045 80.2102C147.045 80.4602 147.136 80.6577 147.318 80.8026C147.5 80.9474 147.784 81.0682 148.17 81.1648L149.142 81.4034C149.727 81.5455 150.163 81.7628 150.45 82.0554C150.737 82.3452 150.88 82.7187 150.88 83.1761C150.88 83.5511 150.772 83.8864 150.556 84.1818C150.343 84.4773 150.045 84.7102 149.661 84.8807C149.278 85.0511 148.832 85.1364 148.323 85.1364C147.656 85.1364 147.103 84.9915 146.666 84.7017C146.228 84.4119 145.951 83.9886 145.835 83.4318L146.789 83.1932C146.88 83.5455 147.052 83.8097 147.305 83.9858C147.561 84.1619 147.894 84.25 148.306 84.25C148.775 84.25 149.147 84.1506 149.423 83.9517C149.701 83.75 149.84 83.5085 149.84 83.2273C149.84 83 149.761 82.8097 149.602 82.6562C149.443 82.5 149.198 82.3835 148.869 82.3068L147.778 82.0511C147.178 81.9091 146.738 81.6889 146.457 81.3906C146.178 81.0895 146.039 80.7131 146.039 80.2614C146.039 79.892 146.143 79.5653 146.35 79.2812C146.561 78.9972 146.846 78.7741 147.207 78.6122C147.571 78.4503 147.982 78.3693 148.443 78.3693C149.09 78.3693 149.599 78.5114 149.968 78.7955C150.34 79.0795 150.605 79.4545 150.761 79.9205ZM153.282 87.4545C153.111 87.4545 152.959 87.4403 152.826 87.4119C152.692 87.3864 152.6 87.3608 152.549 87.3352L152.805 86.4489C153.049 86.5114 153.265 86.5341 153.452 86.517C153.64 86.5 153.806 86.4162 153.951 86.2656C154.099 86.1179 154.233 85.8778 154.356 85.5455L154.543 85.0341L152.123 78.4545H153.214L155.02 83.6705H155.089L156.895 78.4545H157.986L155.208 85.9545C155.083 86.2926 154.928 86.5724 154.743 86.794C154.559 87.0185 154.344 87.1847 154.1 87.2926C153.858 87.4006 153.586 87.4545 153.282 87.4545ZM159.554 85V78.4545H160.525V79.4773H160.611C160.747 79.1278 160.967 78.8565 161.271 78.6634C161.575 78.4673 161.94 78.3693 162.366 78.3693C162.798 78.3693 163.157 78.4673 163.444 78.6634C163.734 78.8565 163.96 79.1278 164.122 79.4773H164.19C164.358 79.1392 164.609 78.8707 164.944 78.6719C165.28 78.4702 165.682 78.3693 166.15 78.3693C166.736 78.3693 167.214 78.5526 167.586 78.919C167.959 79.2827 168.145 79.8494 168.145 80.6193V85H167.139V80.6193C167.139 80.1364 167.007 79.7912 166.743 79.5838C166.478 79.3764 166.167 79.2727 165.809 79.2727C165.349 79.2727 164.993 79.4119 164.74 79.6903C164.487 79.9659 164.361 80.3153 164.361 80.7386V85H163.338V80.517C163.338 80.1449 163.217 79.8452 162.976 79.6179C162.734 79.3878 162.423 79.2727 162.042 79.2727C161.781 79.2727 161.537 79.3423 161.309 79.4815C161.085 79.6207 160.903 79.8139 160.764 80.0611C160.628 80.3054 160.559 80.5881 160.559 80.9091V85H159.554ZM170.36 85V76.2727H171.365V79.4943H171.451C171.525 79.3807 171.627 79.2358 171.758 79.0597C171.891 78.8807 172.081 78.7216 172.329 78.5824C172.579 78.4403 172.917 78.3693 173.343 78.3693C173.894 78.3693 174.38 78.5071 174.8 78.7827C175.221 79.0582 175.549 79.4489 175.784 79.9545C176.02 80.4602 176.138 81.0568 176.138 81.7443C176.138 82.4375 176.02 83.0384 175.784 83.5469C175.549 84.0526 175.222 84.4446 174.804 84.723C174.387 84.9986 173.905 85.1364 173.36 85.1364C172.939 85.1364 172.603 85.0668 172.35 84.9276C172.097 84.7855 171.902 84.625 171.766 84.446C171.63 84.2642 171.525 84.1136 171.451 83.9943H171.331V85H170.36ZM171.348 81.7273C171.348 82.2216 171.421 82.6577 171.566 83.0355C171.711 83.4105 171.922 83.7045 172.201 83.9176C172.479 84.1278 172.82 84.233 173.223 84.233C173.644 84.233 173.995 84.1222 174.276 83.9006C174.56 83.6761 174.773 83.375 174.915 82.9972C175.06 82.6165 175.133 82.1932 175.133 81.7273C175.133 81.267 175.061 80.8523 174.919 80.483C174.78 80.1108 174.569 79.8168 174.284 79.6009C174.003 79.3821 173.65 79.2727 173.223 79.2727C172.814 79.2727 172.471 79.3764 172.192 79.5838C171.914 79.7884 171.704 80.0753 171.561 80.4446C171.419 80.8111 171.348 81.2386 171.348 81.7273ZM180.576 85.1364C179.985 85.1364 179.466 84.9957 179.02 84.7145C178.577 84.4332 178.23 84.0398 177.98 83.5341C177.733 83.0284 177.61 82.4375 177.61 81.7614C177.61 81.0795 177.733 80.4844 177.98 79.9759C178.23 79.4673 178.577 79.0724 179.02 78.7912C179.466 78.5099 179.985 78.3693 180.576 78.3693C181.167 78.3693 181.684 78.5099 182.127 78.7912C182.573 79.0724 182.919 79.4673 183.167 79.9759C183.417 80.4844 183.542 81.0795 183.542 81.7614C183.542 82.4375 183.417 83.0284 183.167 83.5341C182.919 84.0398 182.573 84.4332 182.127 84.7145C181.684 84.9957 181.167 85.1364 180.576 85.1364ZM180.576 84.233C181.025 84.233 181.394 84.1179 181.684 83.8878C181.973 83.6577 182.188 83.3551 182.327 82.9801C182.466 82.6051 182.536 82.1989 182.536 81.7614C182.536 81.3239 182.466 80.9162 182.327 80.5384C182.188 80.1605 181.973 79.8551 181.684 79.6222C181.394 79.3892 181.025 79.2727 180.576 79.2727C180.127 79.2727 179.757 79.3892 179.468 79.6222C179.178 79.8551 178.963 80.1605 178.824 80.5384C178.685 80.9162 178.615 81.3239 178.615 81.7614C178.615 82.1989 178.685 82.6051 178.824 82.9801C178.963 83.3551 179.178 83.6577 179.468 83.8878C179.757 84.1179 180.127 84.233 180.576 84.233ZM186.322 76.2727V85H185.317V76.2727H186.322Z" fill="#ADB5BD"/>
</svg>
