<svg width="246" height="24" viewBox="0 0 246 24" fill="none" xmlns="http://www.w3.org/2000/svg">
    <circle cx="12" cy="12" r="12" fill="#D30000"/>
    <path fill-rule="evenodd" clip-rule="evenodd" d="M9.7123 17.4C9.5075 17.4 9.3027 17.3216 9.1467 17.1656L5.7219 13.7408C5.4091 13.428 5.4091 12.9216 5.7219 12.6096C6.0339 12.2968 6.5403 12.2968 6.8531 12.6096L9.7123 15.4688L17.1467 8.0344C17.4595 7.7216 17.9651 7.7216 18.2779 8.0344C18.5907 8.3472 18.5907 8.8528 18.2779 9.1656L10.2779 17.1656C10.1219 17.3216 9.9171 17.4 9.7123 17.4Z" fill="white"/>
    <rect width="24" height="2" transform="translate(48 13) rotate(-180)" fill="#D30000"/>
    <circle cx="60" cy="12" r="12" fill="#D30000"/>
    <path fill-rule="evenodd" clip-rule="evenodd" d="M57.7123 17.4C57.5075 17.4 57.3027 17.3216 57.1467 17.1656L53.7219 13.7408C53.4091 13.428 53.4091 12.9216 53.7219 12.6096C54.0339 12.2968 54.5403 12.2968 54.8531 12.6096L57.7123 15.4688L65.1467 8.0344C65.4595 7.7216 65.9651 7.7216 66.2779 8.0344C66.5907 8.3472 66.5907 8.8528 66.2779 9.1656L58.2779 17.1656C58.1219 17.3216 57.9171 17.4 57.7123 17.4Z" fill="white"/>
    <rect width="24" height="2" transform="translate(96 13) rotate(-180)" fill="#D30000"/>
    <rect x="96" width="24" height="24" rx="12" fill="#D30000"/>
    <path d="M107.978 16.6193C107.342 16.6193 106.775 16.5099 106.278 16.2912C105.784 16.0696 105.393 15.7656 105.106 15.3793C104.822 14.9901 104.676 14.5412 104.667 14.0327H106.525C106.536 14.2457 106.606 14.4332 106.734 14.5952C106.865 14.7543 107.038 14.8778 107.254 14.9659C107.47 15.054 107.713 15.098 107.982 15.098C108.264 15.098 108.512 15.0483 108.728 14.9489C108.944 14.8494 109.113 14.7116 109.235 14.5355C109.357 14.3594 109.419 14.1562 109.419 13.9261C109.419 13.6932 109.353 13.4872 109.222 13.3082C109.095 13.1264 108.91 12.9844 108.669 12.8821C108.43 12.7798 108.146 12.7287 107.816 12.7287H107.002V11.3736H107.816C108.095 11.3736 108.34 11.3253 108.553 11.2287C108.769 11.1321 108.937 10.9986 109.056 10.8281C109.176 10.6548 109.235 10.4531 109.235 10.223C109.235 10.0043 109.183 9.8125 109.078 9.64773C108.975 9.48011 108.83 9.34943 108.643 9.25568C108.458 9.16193 108.242 9.11506 107.995 9.11506C107.745 9.11506 107.517 9.16051 107.309 9.25142C107.102 9.33949 106.936 9.46591 106.811 9.63068C106.686 9.79545 106.619 9.98864 106.61 10.2102H104.842C104.85 9.70739 104.994 9.2642 105.272 8.88068C105.551 8.49716 105.926 8.19744 106.397 7.98153C106.872 7.76278 107.407 7.65341 108.004 7.65341C108.606 7.65341 109.133 7.76278 109.585 7.98153C110.036 8.20028 110.387 8.49574 110.637 8.8679C110.89 9.23722 111.015 9.65199 111.012 10.1122C111.015 10.6009 110.863 11.0085 110.556 11.3352C110.252 11.6619 109.856 11.8693 109.367 11.9574V12.0256C110.009 12.108 110.498 12.331 110.833 12.6946C111.171 13.0554 111.339 13.5071 111.336 14.0497C111.339 14.5469 111.195 14.9886 110.906 15.375C110.619 15.7614 110.222 16.0653 109.717 16.2869C109.211 16.5085 108.632 16.6193 107.978 16.6193Z" fill="white"/>
    <path d="M134.538 9.61719C134.491 9.183 134.296 8.84493 133.951 8.60298C133.61 8.36103 133.165 8.24006 132.619 8.24006C132.234 8.24006 131.904 8.29806 131.629 8.41406C131.354 8.53007 131.144 8.6875 130.998 8.88636C130.852 9.08523 130.777 9.31226 130.774 9.56747C130.774 9.77959 130.822 9.96354 130.918 10.1193C131.018 10.2751 131.152 10.4077 131.321 10.517C131.49 10.6231 131.677 10.7126 131.883 10.7855C132.088 10.8584 132.295 10.9197 132.504 10.9695L133.459 11.2081C133.843 11.2976 134.213 11.4186 134.567 11.571C134.925 11.7235 135.245 11.9157 135.527 12.1477C135.812 12.3797 136.037 12.6598 136.203 12.9879C136.369 13.3161 136.452 13.7005 136.452 14.1413C136.452 14.7379 136.299 15.2633 135.994 15.7173C135.689 16.1681 135.249 16.5211 134.672 16.7763C134.098 17.0282 133.404 17.1541 132.589 17.1541C131.797 17.1541 131.109 17.0315 130.526 16.7862C129.946 16.541 129.491 16.183 129.163 15.7124C128.839 15.2417 128.663 14.6683 128.636 13.9922H130.451C130.478 14.3468 130.587 14.6418 130.779 14.8771C130.971 15.1125 131.222 15.2881 131.53 15.4041C131.841 15.5201 132.189 15.5781 132.574 15.5781C132.975 15.5781 133.326 15.5185 133.628 15.3991C133.933 15.2765 134.171 15.1075 134.344 14.892C134.516 14.6733 134.604 14.4181 134.607 14.1264C134.604 13.8613 134.526 13.6425 134.374 13.4702C134.221 13.2945 134.007 13.1487 133.732 13.0327C133.46 12.9134 133.142 12.8073 132.778 12.7145L131.619 12.4162C130.781 12.2008 130.118 11.8743 129.631 11.4368C129.147 10.996 128.905 10.411 128.905 9.68182C128.905 9.08191 129.067 8.55658 129.392 8.10582C129.72 7.65507 130.166 7.3054 130.729 7.05682C131.293 6.80492 131.931 6.67898 132.643 6.67898C133.366 6.67898 133.999 6.80492 134.543 7.05682C135.089 7.3054 135.519 7.65175 135.83 8.09588C136.142 8.53669 136.303 9.0438 136.312 9.61719H134.538ZM141.677 17.1491C140.912 17.1491 140.25 16.9901 139.694 16.6719C139.14 16.3504 138.714 15.8963 138.416 15.3097C138.118 14.7197 137.968 14.0253 137.968 13.2266C137.968 12.4411 138.118 11.7517 138.416 11.1584C138.717 10.5618 139.138 10.0978 139.679 9.76633C140.219 9.43158 140.854 9.2642 141.583 9.2642C142.053 9.2642 142.498 9.34044 142.915 9.4929C143.336 9.64205 143.707 9.87405 144.029 10.1889C144.354 10.5038 144.609 10.9048 144.794 11.392C144.98 11.8759 145.073 12.4527 145.073 13.1222V13.674H138.814V12.4609H143.348C143.344 12.1162 143.27 11.8097 143.124 11.5412C142.978 11.2694 142.774 11.0556 142.512 10.8999C142.254 10.7441 141.952 10.6662 141.608 10.6662C141.24 10.6662 140.917 10.7557 140.638 10.9347C140.36 11.1103 140.143 11.3423 139.987 11.6307C139.834 11.9157 139.757 12.2289 139.753 12.5703V13.6293C139.753 14.0734 139.834 14.4545 139.997 14.7727C140.159 15.0876 140.386 15.3295 140.678 15.4986C140.97 15.6643 141.311 15.7472 141.702 15.7472C141.964 15.7472 142.201 15.7107 142.413 15.6378C142.625 15.5616 142.809 15.4505 142.965 15.3047C143.121 15.1589 143.238 14.9782 143.318 14.7628L144.998 14.9517C144.892 15.3958 144.69 15.7836 144.392 16.1151C144.097 16.4432 143.719 16.6984 143.258 16.8807C142.797 17.0597 142.27 17.1491 141.677 17.1491ZM150.689 9.36364V10.7557H146.299V9.36364H150.689ZM147.382 7.53409H149.182V14.7031C149.182 14.9451 149.219 15.1307 149.292 15.2599C149.368 15.3859 149.467 15.4721 149.59 15.5185C149.712 15.5649 149.848 15.5881 149.997 15.5881C150.11 15.5881 150.213 15.5798 150.306 15.5632C150.402 15.5466 150.475 15.5317 150.524 15.5185L150.828 16.9254C150.732 16.9586 150.594 16.995 150.415 17.0348C150.239 17.0746 150.024 17.0978 149.769 17.1044C149.318 17.1177 148.912 17.0497 148.551 16.9006C148.189 16.7481 147.903 16.5128 147.691 16.1946C147.482 15.8764 147.379 15.4787 147.382 15.0014V7.53409ZM161.094 13.7884V9.36364H162.893V17H161.148V15.6428H161.069C160.896 16.0703 160.613 16.42 160.219 16.6918C159.827 16.9635 159.345 17.0994 158.772 17.0994C158.271 17.0994 157.829 16.9884 157.444 16.7663C157.063 16.541 156.765 16.2145 156.55 15.7869C156.334 15.3561 156.226 14.8357 156.226 14.2259V9.36364H158.026V13.9474C158.026 14.4313 158.159 14.8158 158.424 15.1009C158.689 15.3859 159.037 15.5284 159.468 15.5284C159.733 15.5284 159.99 15.4638 160.238 15.3345C160.487 15.2053 160.691 15.013 160.85 14.7578C161.012 14.4993 161.094 14.1761 161.094 13.7884ZM165.024 19.8636V9.36364H166.794V10.6264H166.898C166.991 10.4408 167.122 10.2436 167.291 10.0348C167.46 9.82268 167.689 9.64205 167.977 9.4929C168.265 9.34044 168.633 9.2642 169.081 9.2642C169.671 9.2642 170.203 9.41501 170.677 9.71662C171.154 10.0149 171.532 10.4574 171.81 11.044C172.092 11.6274 172.233 12.3433 172.233 13.1918C172.233 14.0303 172.095 14.7429 171.82 15.3295C171.545 15.9162 171.17 16.3636 170.697 16.6719C170.223 16.9801 169.686 17.1342 169.086 17.1342C168.648 17.1342 168.285 17.0613 167.997 16.9155C167.709 16.7696 167.477 16.594 167.301 16.3885C167.129 16.1797 166.994 15.9825 166.898 15.7969H166.824V19.8636H165.024ZM166.789 13.1818C166.789 13.6757 166.858 14.1082 166.998 14.4794C167.14 14.8506 167.344 15.1406 167.609 15.3494C167.878 15.5549 168.202 15.6577 168.584 15.6577C168.981 15.6577 169.314 15.5516 169.583 15.3395C169.851 15.1241 170.054 14.8307 170.189 14.4595C170.329 14.085 170.398 13.6591 170.398 13.1818C170.398 12.7079 170.33 12.2869 170.194 11.919C170.059 11.5511 169.856 11.2628 169.588 11.054C169.319 10.8452 168.985 10.7408 168.584 10.7408C168.199 10.7408 167.873 10.8419 167.604 11.044C167.336 11.2462 167.132 11.5296 166.993 11.8942C166.857 12.2588 166.789 12.688 166.789 13.1818ZM177.807 19.8636V9.36364H179.576V10.6264H179.681C179.774 10.4408 179.905 10.2436 180.074 10.0348C180.243 9.82268 180.471 9.64205 180.76 9.4929C181.048 9.34044 181.416 9.2642 181.863 9.2642C182.453 9.2642 182.985 9.41501 183.459 9.71662C183.937 10.0149 184.314 10.4574 184.593 11.044C184.875 11.6274 185.015 12.3433 185.015 13.1918C185.015 14.0303 184.878 14.7429 184.603 15.3295C184.328 15.9162 183.953 16.3636 183.479 16.6719C183.005 16.9801 182.468 17.1342 181.868 17.1342C181.431 17.1342 181.068 17.0613 180.78 16.9155C180.491 16.7696 180.259 16.594 180.084 16.3885C179.911 16.1797 179.777 15.9825 179.681 15.7969H179.606V19.8636H177.807ZM179.572 13.1818C179.572 13.6757 179.641 14.1082 179.78 14.4794C179.923 14.8506 180.127 15.1406 180.392 15.3494C180.66 15.5549 180.985 15.6577 181.366 15.6577C181.764 15.6577 182.097 15.5516 182.366 15.3395C182.634 15.1241 182.836 14.8307 182.972 14.4595C183.111 14.085 183.181 13.6591 183.181 13.1818C183.181 12.7079 183.113 12.2869 182.977 11.919C182.841 11.5511 182.639 11.2628 182.371 11.054C182.102 10.8452 181.767 10.7408 181.366 10.7408C180.982 10.7408 180.655 10.8419 180.387 11.044C180.118 11.2462 179.915 11.5296 179.775 11.8942C179.639 12.2588 179.572 12.688 179.572 13.1818ZM189.034 17.1541C188.55 17.1541 188.114 17.0679 187.727 16.8956C187.342 16.7199 187.037 16.4614 186.812 16.12C186.59 15.7786 186.479 15.3577 186.479 14.8572C186.479 14.4264 186.558 14.0701 186.717 13.7884C186.876 13.5066 187.093 13.2812 187.369 13.1122C187.644 12.9432 187.954 12.8156 188.298 12.7294C188.646 12.6399 189.006 12.5753 189.377 12.5355C189.825 12.4891 190.187 12.4477 190.466 12.4112C190.744 12.3714 190.946 12.3118 191.072 12.2322C191.202 12.1494 191.266 12.0218 191.266 11.8494V11.8196C191.266 11.4451 191.155 11.1551 190.933 10.9496C190.711 10.7441 190.391 10.6413 189.974 10.6413C189.533 10.6413 189.183 10.7375 188.925 10.9297C188.669 11.1219 188.497 11.349 188.408 11.6108L186.727 11.3722C186.86 10.9081 187.079 10.5204 187.383 10.2088C187.688 9.89394 188.061 9.65862 188.502 9.50284C188.943 9.34375 189.43 9.2642 189.964 9.2642C190.332 9.2642 190.698 9.30729 191.062 9.39347C191.427 9.47964 191.76 9.62216 192.062 9.82102C192.363 10.0166 192.605 10.2834 192.788 10.6214C192.973 10.9595 193.066 11.3821 193.066 11.8892V17H191.336V15.951H191.276C191.167 16.1631 191.013 16.362 190.814 16.5476C190.618 16.7299 190.371 16.8774 190.073 16.9901C189.778 17.0994 189.432 17.1541 189.034 17.1541ZM189.501 15.8317C189.863 15.8317 190.176 15.7604 190.441 15.6179C190.706 15.4721 190.91 15.2798 191.053 15.0412C191.198 14.8026 191.271 14.5424 191.271 14.2607V13.3608C191.215 13.4072 191.119 13.4503 190.983 13.4901C190.85 13.5298 190.701 13.5646 190.535 13.5945C190.37 13.6243 190.206 13.6508 190.043 13.674C189.881 13.6972 189.74 13.7171 189.621 13.7337C189.352 13.7701 189.112 13.8298 188.9 13.9126C188.688 13.9955 188.52 14.1115 188.398 14.2607C188.275 14.4065 188.214 14.5954 188.214 14.8274C188.214 15.1589 188.335 15.4091 188.577 15.5781C188.819 15.7472 189.127 15.8317 189.501 15.8317ZM201.191 11.3821L199.551 11.5611C199.504 11.3954 199.423 11.2396 199.307 11.0938C199.194 10.9479 199.042 10.8303 198.85 10.7408C198.657 10.6513 198.422 10.6065 198.144 10.6065C197.769 10.6065 197.454 10.6877 197.199 10.8501C196.947 11.0125 196.823 11.223 196.826 11.4815C196.823 11.7036 196.904 11.8842 197.07 12.0234C197.239 12.1626 197.517 12.277 197.905 12.3665L199.207 12.6449C199.93 12.8007 200.467 13.0476 200.818 13.3857C201.173 13.7237 201.352 14.1662 201.355 14.7131C201.352 15.1937 201.211 15.6179 200.933 15.9858C200.658 16.3504 200.275 16.6354 199.784 16.8409C199.294 17.0464 198.73 17.1491 198.094 17.1491C197.159 17.1491 196.407 16.9536 195.837 16.5625C195.267 16.1681 194.927 15.6196 194.818 14.9169L196.573 14.7479C196.652 15.0926 196.821 15.3527 197.08 15.5284C197.338 15.7041 197.675 15.7919 198.089 15.7919C198.516 15.7919 198.859 15.7041 199.118 15.5284C199.38 15.3527 199.511 15.1357 199.511 14.8771C199.511 14.6584 199.426 14.4777 199.257 14.3352C199.091 14.1927 198.833 14.0833 198.482 14.0071L197.179 13.7337C196.447 13.5812 195.905 13.3243 195.553 12.9631C195.202 12.5985 195.028 12.1378 195.031 11.581C195.028 11.1103 195.156 10.7027 195.414 10.358C195.676 10.0099 196.039 9.74148 196.503 9.55256C196.97 9.36032 197.509 9.2642 198.119 9.2642C199.014 9.2642 199.718 9.45478 200.232 9.83594C200.749 10.2171 201.069 10.7325 201.191 11.3821ZM209.155 11.3821L207.514 11.5611C207.468 11.3954 207.387 11.2396 207.271 11.0938C207.158 10.9479 207.005 10.8303 206.813 10.7408C206.621 10.6513 206.386 10.6065 206.107 10.6065C205.733 10.6065 205.418 10.6877 205.163 10.8501C204.911 11.0125 204.786 11.223 204.79 11.4815C204.786 11.7036 204.868 11.8842 205.033 12.0234C205.202 12.1626 205.481 12.277 205.869 12.3665L207.171 12.6449C207.894 12.8007 208.431 13.0476 208.782 13.3857C209.137 13.7237 209.316 14.1662 209.319 14.7131C209.316 15.1937 209.175 15.6179 208.896 15.9858C208.621 16.3504 208.238 16.6354 207.748 16.8409C207.257 17.0464 206.694 17.1491 206.057 17.1491C205.123 17.1491 204.37 16.9536 203.8 16.5625C203.23 16.1681 202.891 15.6196 202.781 14.9169L204.536 14.7479C204.616 15.0926 204.785 15.3527 205.043 15.5284C205.302 15.7041 205.638 15.7919 206.052 15.7919C206.48 15.7919 206.823 15.7041 207.082 15.5284C207.343 15.3527 207.474 15.1357 207.474 14.8771C207.474 14.6584 207.39 14.4777 207.221 14.3352C207.055 14.1927 206.797 14.0833 206.445 14.0071L205.143 13.7337C204.41 13.5812 203.868 13.3243 203.517 12.9631C203.166 12.5985 202.992 12.1378 202.995 11.581C202.992 11.1103 203.119 10.7027 203.378 10.358C203.64 10.0099 204.003 9.74148 204.467 9.55256C204.934 9.36032 205.472 9.2642 206.082 9.2642C206.977 9.2642 207.682 9.45478 208.195 9.83594C208.712 10.2171 209.032 10.7325 209.155 11.3821ZM212.659 17L210.501 9.36364H212.336L213.678 14.733H213.748L215.12 9.36364H216.934L218.307 14.7031H218.381L219.704 9.36364H221.543L219.38 17H217.506L216.074 11.8395H215.97L214.538 17H212.659ZM226.192 17.1491C225.446 17.1491 224.8 16.9851 224.253 16.657C223.706 16.3288 223.282 15.8698 222.98 15.2798C222.682 14.6899 222.533 14.0005 222.533 13.2116C222.533 12.4228 222.682 11.7318 222.98 11.1385C223.282 10.5452 223.706 10.0845 224.253 9.75639C224.8 9.42827 225.446 9.2642 226.192 9.2642C226.938 9.2642 227.584 9.42827 228.131 9.75639C228.678 10.0845 229.1 10.5452 229.399 11.1385C229.7 11.7318 229.851 12.4228 229.851 13.2116C229.851 14.0005 229.7 14.6899 229.399 15.2798C229.1 15.8698 228.678 16.3288 228.131 16.657C227.584 16.9851 226.938 17.1491 226.192 17.1491ZM226.202 15.7074C226.606 15.7074 226.944 15.5964 227.216 15.3743C227.488 15.1489 227.69 14.8473 227.823 14.4695C227.958 14.0916 228.026 13.6707 228.026 13.2067C228.026 12.7393 227.958 12.3168 227.823 11.9389C227.69 11.5578 227.488 11.2545 227.216 11.0291C226.944 10.8037 226.606 10.6911 226.202 10.6911C225.787 10.6911 225.443 10.8037 225.168 11.0291C224.896 11.2545 224.692 11.5578 224.556 11.9389C224.424 12.3168 224.357 12.7393 224.357 13.2067C224.357 13.6707 224.424 14.0916 224.556 14.4695C224.692 14.8473 224.896 15.1489 225.168 15.3743C225.443 15.5964 225.787 15.7074 226.202 15.7074ZM231.658 17V9.36364H233.403V10.6364H233.483C233.622 10.1955 233.861 9.85582 234.199 9.61719C234.54 9.37524 234.93 9.25426 235.367 9.25426C235.467 9.25426 235.578 9.25923 235.7 9.26918C235.826 9.2758 235.931 9.2874 236.014 9.30398V10.9595C235.937 10.933 235.816 10.9098 235.651 10.8899C235.488 10.8667 235.331 10.8551 235.178 10.8551C234.85 10.8551 234.555 10.9264 234.293 11.0689C234.035 11.2081 233.831 11.402 233.682 11.6506C233.533 11.8991 233.458 12.1858 233.458 12.5107V17H231.658ZM240.009 17.1342C239.409 17.1342 238.872 16.9801 238.398 16.6719C237.924 16.3636 237.549 15.9162 237.274 15.3295C236.999 14.7429 236.862 14.0303 236.862 13.1918C236.862 12.3433 237.001 11.6274 237.279 11.044C237.561 10.4574 237.94 10.0149 238.418 9.71662C238.895 9.41501 239.427 9.2642 240.014 9.2642C240.461 9.2642 240.829 9.34044 241.117 9.4929C241.406 9.64205 241.634 9.82268 241.803 10.0348C241.972 10.2436 242.103 10.4408 242.196 10.6264H242.271V6.81818H244.075V17H242.305V15.7969H242.196C242.103 15.9825 241.969 16.1797 241.793 16.3885C241.618 16.594 241.386 16.7696 241.097 16.9155C240.809 17.0613 240.446 17.1342 240.009 17.1342ZM240.511 15.6577C240.892 15.6577 241.217 15.5549 241.485 15.3494C241.754 15.1406 241.957 14.8506 242.097 14.4794C242.236 14.1082 242.305 13.6757 242.305 13.1818C242.305 12.688 242.236 12.2588 242.097 11.8942C241.961 11.5296 241.759 11.2462 241.49 11.044C241.225 10.8419 240.899 10.7408 240.511 10.7408C240.11 10.7408 239.775 10.8452 239.506 11.054C239.238 11.2628 239.036 11.5511 238.9 11.919C238.764 12.2869 238.696 12.7079 238.696 13.1818C238.696 13.6591 238.764 14.085 238.9 14.4595C239.039 14.8307 239.243 15.1241 239.511 15.3395C239.783 15.5516 240.116 15.6577 240.511 15.6577Z" fill="#2A4454"/>
</svg>
