<svg width="229" height="24" viewBox="0 0 229 24" fill="none" xmlns="http://www.w3.org/2000/svg">
    <rect width="24" height="24" rx="12" fill="#D30000"/>
    <path d="M13.5687 7.77273V16.5H11.7235V9.52415H11.6724L9.67383 10.777V9.14062L11.8343 7.77273H13.5687Z" fill="white"/>
    <path d="M33.0043 17V6.81818H39.6264V8.36435H34.8487V11.1286H39.2834V12.6747H34.8487V15.4538H39.6662V17H33.0043ZM43.5083 12.5256V17H41.7086V9.36364H43.4288V10.6612H43.5183C43.6939 10.2337 43.974 9.89394 44.3585 9.64205C44.7463 9.39015 45.2252 9.2642 45.7953 9.2642C46.3223 9.2642 46.7813 9.37689 47.1724 9.60227C47.5668 9.82765 47.8717 10.1541 48.0872 10.5817C48.3059 11.0092 48.4136 11.5279 48.4103 12.1378V17H46.6106V12.4162C46.6106 11.9058 46.478 11.5064 46.2129 11.218C45.951 10.9297 45.5881 10.7855 45.1241 10.7855C44.8092 10.7855 44.5292 10.8551 44.2839 10.9943C44.042 11.1302 43.8514 11.3274 43.7122 11.5859C43.5763 11.8445 43.5083 12.1577 43.5083 12.5256ZM54.3331 9.36364V10.7557H49.9432V9.36364H54.3331ZM51.027 7.53409H52.8267V14.7031C52.8267 14.9451 52.8631 15.1307 52.9361 15.2599C53.0123 15.3859 53.1117 15.4721 53.2344 15.5185C53.357 15.5649 53.4929 15.5881 53.642 15.5881C53.7547 15.5881 53.8575 15.5798 53.9503 15.5632C54.0464 15.5466 54.1193 15.5317 54.169 15.5185L54.4723 16.9254C54.3762 16.9586 54.2386 16.995 54.0596 17.0348C53.884 17.0746 53.6685 17.0978 53.4133 17.1044C52.9626 17.1177 52.5566 17.0497 52.1953 16.9006C51.834 16.7481 51.5473 16.5128 51.3352 16.1946C51.1264 15.8764 51.0237 15.4787 51.027 15.0014V7.53409ZM59.4169 17.1491C58.6513 17.1491 57.99 16.9901 57.4332 16.6719C56.8797 16.3504 56.4538 15.8963 56.1555 15.3097C55.8572 14.7197 55.7081 14.0253 55.7081 13.2266C55.7081 12.4411 55.8572 11.7517 56.1555 11.1584C56.4571 10.5618 56.8781 10.0978 57.4183 9.76633C57.9585 9.43158 58.5933 9.2642 59.3224 9.2642C59.7931 9.2642 60.2372 9.34044 60.6548 9.4929C61.0757 9.64205 61.4469 9.87405 61.7684 10.1889C62.0933 10.5038 62.3485 10.9048 62.5341 11.392C62.7197 11.8759 62.8125 12.4527 62.8125 13.1222V13.674H56.5532V12.4609H61.0873C61.084 12.1162 61.0094 11.8097 60.8636 11.5412C60.7178 11.2694 60.5139 11.0556 60.2521 10.8999C59.9936 10.7441 59.692 10.6662 59.3473 10.6662C58.9794 10.6662 58.6562 10.7557 58.3778 10.9347C58.0994 11.1103 57.8823 11.3423 57.7265 11.6307C57.5741 11.9157 57.4962 12.2289 57.4929 12.5703V13.6293C57.4929 14.0734 57.5741 14.4545 57.7365 14.7727C57.8989 15.0876 58.1259 15.3295 58.4176 15.4986C58.7093 15.6643 59.0506 15.7472 59.4417 15.7472C59.7036 15.7472 59.9406 15.7107 60.1527 15.6378C60.3648 15.5616 60.5487 15.4505 60.7045 15.3047C60.8603 15.1589 60.978 14.9782 61.0575 14.7628L62.7379 14.9517C62.6318 15.3958 62.4297 15.7836 62.1314 16.1151C61.8364 16.4432 61.4585 16.6984 60.9978 16.8807C60.5371 17.0597 60.0102 17.1491 59.4169 17.1491ZM64.615 17V9.36364H66.3601V10.6364H66.4396C66.5788 10.1955 66.8174 9.85582 67.1555 9.61719C67.4969 9.37524 67.8863 9.25426 68.3238 9.25426C68.4233 9.25426 68.5343 9.25923 68.6569 9.26918C68.7829 9.2758 68.8873 9.2874 68.9701 9.30398V10.9595C68.8939 10.933 68.7729 10.9098 68.6072 10.8899C68.4448 10.8667 68.2874 10.8551 68.1349 10.8551C67.8068 10.8551 67.5118 10.9264 67.25 11.0689C66.9914 11.2081 66.7876 11.402 66.6385 11.6506C66.4893 11.8991 66.4147 12.1858 66.4147 12.5107V17H64.615ZM77.0323 17.1342C76.4324 17.1342 75.8954 16.9801 75.4215 16.6719C74.9475 16.3636 74.573 15.9162 74.2979 15.3295C74.0228 14.7429 73.8853 14.0303 73.8853 13.1918C73.8853 12.3433 74.0245 11.6274 74.3029 11.044C74.5846 10.4574 74.9641 10.0149 75.4414 9.71662C75.9186 9.41501 76.4506 9.2642 77.0372 9.2642C77.4847 9.2642 77.8526 9.34044 78.1409 9.4929C78.4293 9.64205 78.658 9.82268 78.827 10.0348C78.9961 10.2436 79.127 10.4408 79.2198 10.6264H79.2943V6.81818H81.099V17H79.3291V15.7969H79.2198C79.127 15.9825 78.9927 16.1797 78.8171 16.3885C78.6414 16.594 78.4094 16.7696 78.1211 16.9155C77.8327 17.0613 77.4698 17.1342 77.0323 17.1342ZM77.5344 15.6577C77.9156 15.6577 78.2404 15.5549 78.5088 15.3494C78.7773 15.1406 78.9811 14.8506 79.1203 14.4794C79.2595 14.1082 79.3291 13.6757 79.3291 13.1818C79.3291 12.688 79.2595 12.2588 79.1203 11.8942C78.9845 11.5296 78.7823 11.2462 78.5138 11.044C78.2487 10.8419 77.9222 10.7408 77.5344 10.7408C77.1334 10.7408 76.7986 10.8452 76.5301 11.054C76.2617 11.2628 76.0595 11.5511 75.9236 11.919C75.7877 12.2869 75.7198 12.7079 75.7198 13.1818C75.7198 13.6591 75.7877 14.085 75.9236 14.4595C76.0628 14.8307 76.2666 15.1241 76.5351 15.3395C76.8069 15.5516 77.14 15.6577 77.5344 15.6577ZM86.6775 17.1491C85.9119 17.1491 85.2507 16.9901 84.6938 16.6719C84.1403 16.3504 83.7144 15.8963 83.4161 15.3097C83.1178 14.7197 82.9687 14.0253 82.9687 13.2266C82.9687 12.4411 83.1178 11.7517 83.4161 11.1584C83.7178 10.5618 84.1387 10.0978 84.6789 9.76633C85.2192 9.43158 85.8539 9.2642 86.583 9.2642C87.0537 9.2642 87.4978 9.34044 87.9154 9.4929C88.3364 9.64205 88.7076 9.87405 89.0291 10.1889C89.3539 10.5038 89.6091 10.9048 89.7947 11.392C89.9803 11.8759 90.0731 12.4527 90.0731 13.1222V13.674H83.8139V12.4609H88.348C88.3446 12.1162 88.2701 11.8097 88.1242 11.5412C87.9784 11.2694 87.7746 11.0556 87.5127 10.8999C87.2542 10.7441 86.9526 10.6662 86.6079 10.6662C86.24 10.6662 85.9169 10.7557 85.6384 10.9347C85.36 11.1103 85.1429 11.3423 84.9872 11.6307C84.8347 11.9157 84.7568 12.2289 84.7535 12.5703V13.6293C84.7535 14.0734 84.8347 14.4545 84.9971 14.7727C85.1595 15.0876 85.3865 15.3295 85.6782 15.4986C85.9699 15.6643 86.3113 15.7472 86.7024 15.7472C86.9642 15.7472 87.2012 15.7107 87.4133 15.6378C87.6254 15.5616 87.8094 15.4505 87.9651 15.3047C88.1209 15.1589 88.2386 14.9782 88.3181 14.7628L89.9985 14.9517C89.8925 15.3958 89.6903 15.7836 89.392 16.1151C89.097 16.4432 88.7192 16.6984 88.2585 16.8807C87.7978 17.0597 87.2708 17.1491 86.6775 17.1491ZM95.6889 9.36364V10.7557H91.299V9.36364H95.6889ZM92.3828 7.53409H94.1825V14.7031C94.1825 14.9451 94.2189 15.1307 94.2918 15.2599C94.3681 15.3859 94.4675 15.4721 94.5901 15.5185C94.7128 15.5649 94.8487 15.5881 94.9978 15.5881C95.1105 15.5881 95.2132 15.5798 95.3061 15.5632C95.4022 15.5466 95.4751 15.5317 95.5248 15.5185L95.8281 16.9254C95.732 16.9586 95.5944 16.995 95.4154 17.0348C95.2398 17.0746 95.0243 17.0978 94.7691 17.1044C94.3184 17.1177 93.9124 17.0497 93.5511 16.9006C93.1898 16.7481 92.9031 16.5128 92.691 16.1946C92.4822 15.8764 92.3794 15.4787 92.3828 15.0014V7.53409ZM99.6715 17.1541C99.1876 17.1541 98.7517 17.0679 98.3639 16.8956C97.9795 16.7199 97.6745 16.4614 97.4492 16.12C97.2271 15.7786 97.1161 15.3577 97.1161 14.8572C97.1161 14.4264 97.1956 14.0701 97.3547 13.7884C97.5138 13.5066 97.7309 13.2812 98.006 13.1122C98.2811 12.9432 98.591 12.8156 98.9357 12.7294C99.2837 12.6399 99.6433 12.5753 100.014 12.5355C100.462 12.4891 100.825 12.4477 101.103 12.4112C101.382 12.3714 101.584 12.3118 101.71 12.2322C101.839 12.1494 101.904 12.0218 101.904 11.8494V11.8196C101.904 11.4451 101.793 11.1551 101.571 10.9496C101.349 10.7441 101.029 10.6413 100.611 10.6413C100.17 10.6413 99.8206 10.7375 99.5621 10.9297C99.3069 11.1219 99.1345 11.349 99.045 11.6108L97.3646 11.3722C97.4972 10.9081 97.716 10.5204 98.0209 10.2088C98.3258 9.89394 98.6987 9.65862 99.1395 9.50284C99.5803 9.34375 100.068 9.2642 100.601 9.2642C100.969 9.2642 101.335 9.30729 101.7 9.39347C102.064 9.47964 102.398 9.62216 102.699 9.82102C103.001 10.0166 103.243 10.2834 103.425 10.6214C103.611 10.9595 103.703 11.3821 103.703 11.8892V17H101.973V15.951H101.914C101.804 16.1631 101.65 16.362 101.451 16.5476C101.256 16.7299 101.009 16.8774 100.711 16.9901C100.416 17.0994 100.069 17.1541 99.6715 17.1541ZM100.139 15.8317C100.5 15.8317 100.813 15.7604 101.078 15.6179C101.344 15.4721 101.547 15.2798 101.69 15.0412C101.836 14.8026 101.909 14.5424 101.909 14.2607V13.3608C101.852 13.4072 101.756 13.4503 101.62 13.4901C101.488 13.5298 101.339 13.5646 101.173 13.5945C101.007 13.6243 100.843 13.6508 100.681 13.674C100.518 13.6972 100.377 13.7171 100.258 13.7337C99.9896 13.7701 99.7493 13.8298 99.5372 13.9126C99.3251 13.9955 99.1577 14.1115 99.0351 14.2607C98.9125 14.4065 98.8511 14.5954 98.8511 14.8274C98.8511 15.1589 98.9721 15.4091 99.2141 15.5781C99.456 15.7472 99.7643 15.8317 100.139 15.8317ZM105.793 17V9.36364H107.593V17H105.793ZM106.698 8.27983C106.413 8.27983 106.168 8.18537 105.962 7.99645C105.757 7.80421 105.654 7.57386 105.654 7.3054C105.654 7.03362 105.757 6.80327 105.962 6.61435C106.168 6.42211 106.413 6.32599 106.698 6.32599C106.986 6.32599 107.232 6.42211 107.434 6.61435C107.639 6.80327 107.742 7.03362 107.742 7.3054C107.742 7.57386 107.639 7.80421 107.434 7.99645C107.232 8.18537 106.986 8.27983 106.698 8.27983ZM111.523 6.81818V17H109.723V6.81818H111.523ZM119.689 11.3821L118.049 11.5611C118.002 11.3954 117.921 11.2396 117.805 11.0938C117.692 10.9479 117.54 10.8303 117.348 10.7408C117.156 10.6513 116.92 10.6065 116.642 10.6065C116.267 10.6065 115.952 10.6877 115.697 10.8501C115.445 11.0125 115.321 11.223 115.324 11.4815C115.321 11.7036 115.402 11.8842 115.568 12.0234C115.737 12.1626 116.015 12.277 116.403 12.3665L117.706 12.6449C118.428 12.8007 118.965 13.0476 119.316 13.3857C119.671 13.7237 119.85 14.1662 119.853 14.7131C119.85 15.1937 119.709 15.6179 119.431 15.9858C119.156 16.3504 118.773 16.6354 118.282 16.8409C117.792 17.0464 117.228 17.1491 116.592 17.1491C115.657 17.1491 114.905 16.9536 114.335 16.5625C113.765 16.1681 113.425 15.6196 113.316 14.9169L115.071 14.7479C115.15 15.0926 115.319 15.3527 115.578 15.5284C115.836 15.7041 116.173 15.7919 116.587 15.7919C117.015 15.7919 117.358 15.7041 117.616 15.5284C117.878 15.3527 118.009 15.1357 118.009 14.8771C118.009 14.6584 117.924 14.4777 117.755 14.3352C117.59 14.1927 117.331 14.0833 116.98 14.0071L115.677 13.7337C114.945 13.5812 114.403 13.3243 114.052 12.9631C113.7 12.5985 113.526 12.1378 113.53 11.581C113.526 11.1103 113.654 10.7027 113.912 10.358C114.174 10.0099 114.537 9.74148 115.001 9.55256C115.468 9.36032 116.007 9.2642 116.617 9.2642C117.512 9.2642 118.216 9.45478 118.73 9.83594C119.247 10.2171 119.567 10.7325 119.689 11.3821Z" fill="#2A4454"/>
    <rect width="24" height="2" transform="translate(157 13) rotate(-180)" fill="#ADB5BD"/>
    <rect x="158" y="1" width="22" height="22" rx="11" fill="white"/>
    <rect x="158" y="1" width="22" height="22" rx="11" stroke="#ADB5BD" stroke-width="2"/>
    <path d="M166.049 16.5V15.358L169.079 12.3878C169.369 12.0952 169.61 11.8352 169.803 11.608C169.996 11.3807 170.141 11.1605 170.238 10.9474C170.335 10.7344 170.383 10.5071 170.383 10.2656C170.383 9.99006 170.32 9.75426 170.195 9.55824C170.07 9.35938 169.898 9.20597 169.68 9.09801C169.461 8.99006 169.212 8.93608 168.934 8.93608C168.647 8.93608 168.396 8.99574 168.18 9.11506C167.964 9.23153 167.796 9.39773 167.677 9.61364C167.56 9.82955 167.502 10.0866 167.502 10.3849H165.998C165.998 9.83097 166.124 9.34943 166.377 8.94034C166.63 8.53125 166.978 8.21449 167.421 7.99006C167.867 7.76562 168.379 7.65341 168.955 7.65341C169.54 7.65341 170.055 7.76278 170.498 7.98153C170.941 8.20028 171.285 8.5 171.529 8.88068C171.776 9.26136 171.9 9.69602 171.9 10.1847C171.9 10.5114 171.837 10.8324 171.712 11.1477C171.587 11.4631 171.367 11.8125 171.052 12.196C170.739 12.5795 170.3 13.044 169.735 13.5895L168.231 15.1193V15.179H172.032V16.5H166.049Z" fill="#ADB5BD"/>
    <rect width="24" height="2" transform="translate(205 13) rotate(-180)" fill="#ADB5BD"/>
    <rect x="206" y="1" width="22" height="22" rx="11" fill="white"/>
    <rect x="206" y="1" width="22" height="22" rx="11" stroke="#ADB5BD" stroke-width="2"/>
    <path d="M216.999 16.6193C216.386 16.6193 215.84 16.5142 215.363 16.304C214.889 16.0937 214.514 15.8011 214.238 15.4261C213.963 15.0511 213.816 14.6179 213.799 14.1264H215.401C215.416 14.3622 215.494 14.5682 215.636 14.7443C215.778 14.9176 215.967 15.0526 216.203 15.1491C216.438 15.2457 216.703 15.294 216.995 15.294C217.308 15.294 217.585 15.2401 217.826 15.1321C218.068 15.0213 218.257 14.8679 218.393 14.6719C218.529 14.4759 218.596 14.25 218.593 13.9943C218.596 13.7301 218.528 13.4972 218.389 13.2955C218.249 13.0937 218.048 12.9361 217.784 12.8224C217.522 12.7088 217.207 12.652 216.838 12.652H216.066V11.4332H216.838C217.142 11.4332 217.407 11.3807 217.634 11.2756C217.865 11.1705 218.045 11.0227 218.176 10.8324C218.306 10.6392 218.37 10.4162 218.367 10.1634C218.37 9.91619 218.315 9.7017 218.201 9.51989C218.09 9.33523 217.933 9.19176 217.728 9.08949C217.526 8.98722 217.289 8.93608 217.017 8.93608C216.749 8.93608 216.502 8.98437 216.275 9.08097C216.048 9.17756 215.865 9.31534 215.725 9.49432C215.586 9.67045 215.512 9.88068 215.504 10.125H213.982C213.994 9.63636 214.134 9.20739 214.404 8.83807C214.677 8.46591 215.041 8.17614 215.495 7.96875C215.95 7.75852 216.46 7.65341 217.025 7.65341C217.607 7.65341 218.113 7.76278 218.542 7.98153C218.974 8.19744 219.308 8.48864 219.544 8.85511C219.779 9.22159 219.897 9.62642 219.897 10.0696C219.9 10.5611 219.755 10.973 219.463 11.3054C219.173 11.6378 218.792 11.8551 218.32 11.9574V12.0256C218.934 12.1108 219.404 12.3381 219.731 12.7074C220.061 13.0739 220.224 13.5298 220.221 14.0753C220.221 14.5639 220.082 15.0014 219.803 15.3878C219.528 15.7713 219.147 16.0724 218.661 16.2912C218.178 16.5099 217.624 16.6193 216.999 16.6193Z" fill="#ADB5BD"/>
</svg>
