<svg width="24" height="24" viewBox="0 0 24 24" fill="none" xmlns="http://www.w3.org/2000/svg">
    <path fill-rule="evenodd" clip-rule="evenodd" d="M8.36352 11.1488C10.8795 11.1438 12.9204 9.08792 12.9104 6.5769C12.9004 4.01586 10.8545 1.99003 8.28849 2.00004C5.80248 2.01004 3.74164 4.1109 3.76665 6.61191C3.79166 9.12794 5.8525 11.1588 8.36352 11.1488ZM0.930379 21.553H8.33339C9.16706 21.553 10.0007 21.5536 10.8344 21.5541C12.5018 21.5552 14.1691 21.5564 15.8364 21.553C16.3567 21.553 16.6968 21.2129 16.6968 20.6927C16.6968 20.5326 16.684 20.3725 16.6712 20.2124C16.668 20.1724 16.6648 20.1324 16.6618 20.0924C16.5117 18.2567 15.8565 16.621 14.626 15.2605C12.4551 12.8695 9.74397 11.9741 6.56767 12.6044C2.83615 13.3497 0.0100041 16.8211 0 20.6176C0 21.2479 0.305124 21.553 0.930379 21.553ZM14.9659 13.3346C15.9363 12.7694 16.9467 12.4893 18.0371 12.4943C20.9933 12.5043 23.5344 14.7052 23.9445 17.6364C23.9796 17.9015 23.9996 18.1666 23.9996 18.4317C24.0096 18.9319 23.6894 19.2871 23.1942 19.2921C22.2253 19.2981 21.2546 19.2987 20.2842 19.2993H20.2831C19.6358 19.2997 18.9886 19.3001 18.3423 19.3021C18.1837 19.3021 18.1686 19.2238 18.147 19.1119L18.1422 19.087C17.762 16.9911 16.8366 15.1704 15.316 13.6698C15.216 13.5597 15.1059 13.4597 14.9659 13.3346ZM21.4041 8.14253C21.4041 6.27176 19.8785 4.75115 18.0027 4.75115C16.1269 4.75115 14.6063 6.27176 14.6013 8.14253C14.6013 10.0233 16.1219 11.5489 17.9927 11.5489C19.8835 11.5539 21.4041 10.0333 21.4041 8.14253Z" fill="#2A4454"/>
</svg>
