<svg width="24" height="24" viewBox="0 0 24 24" fill="none" xmlns="http://www.w3.org/2000/svg">
<path d="M21.9413 7.5955C22.0312 7.68331 21.9911 7.79418 21.9911 7.89425C21.9931 12.4255 21.9936 16.9572 21.9926 21.4884C21.9921 22.9959 20.9547 23.9986 19.3967 23.9991C14.4578 24.0001 9.51897 24.0005 4.58063 23.9991C3.04339 23.9986 2.00096 22.99 2.00096 21.5012C1.99944 15.1706 1.99995 8.84003 2.00096 2.50946C2.00045 1.00298 3.03933 0.00175836 4.59891 0.000777259C7.82222 -0.000694397 11.046 0.000286707 14.2694 0.000777259C14.3577 0.000777259 14.4466 0.00519223 14.535 0.00764499C14.5386 0.131264 14.5452 0.254883 14.5452 0.378012C14.5457 2.2426 14.5462 4.10719 14.5457 5.97227C14.5452 6.95877 15.3082 7.58618 16.0017 7.59403C17.9814 7.61611 19.9616 7.59796 21.9413 7.5955Z" fill="#33AF56"/>
<path d="M21.9414 7.59549C19.9617 7.59794 17.9815 7.61609 16.0018 7.59402C15.3089 7.58617 14.5453 6.95875 14.5458 5.97225C14.5463 4.10766 14.5463 2.24307 14.5453 0.377996C14.5453 0.254377 14.5387 0.130758 14.5352 0.00762939C15.0752 0.424599 15.4897 0.960281 15.9733 1.43072C16.584 2.02429 17.1621 2.64827 17.7559 3.25754C19.093 4.62765 20.4316 5.99629 21.7677 7.36689C21.8347 7.43508 21.884 7.51896 21.9414 7.59549Z" fill="#4DCB71"/>
<path d="M16.7471 14.8914C16.73 14.7195 16.6569 14.586 16.5276 14.4908C16.3983 14.3956 16.2229 14.348 16.0013 14.348C15.8508 14.348 15.7236 14.3693 15.6199 14.4119C15.5162 14.4531 15.4367 14.5107 15.3813 14.5845C15.3273 14.6584 15.3003 14.7422 15.3003 14.836C15.2975 14.9141 15.3138 14.9823 15.3493 15.0405C15.3863 15.0987 15.4367 15.1492 15.5006 15.1918C15.5645 15.233 15.6384 15.2692 15.7222 15.3004C15.806 15.3303 15.8955 15.3558 15.9907 15.3771L16.3827 15.4709C16.5731 15.5135 16.7478 15.5703 16.9069 15.6414C17.066 15.7124 17.2037 15.7997 17.3202 15.9034C17.4367 16.0071 17.5269 16.1293 17.5908 16.2699C17.6562 16.4105 17.6895 16.5717 17.691 16.7536C17.6895 17.0206 17.6214 17.2521 17.4864 17.4482C17.3529 17.6428 17.1597 17.7941 16.9069 17.902C16.6555 18.0085 16.3522 18.0618 15.9971 18.0618C15.6448 18.0618 15.338 18.0078 15.0766 17.8999C14.8167 17.7919 14.6135 17.6321 14.4672 17.4205C14.3224 17.2074 14.2464 16.9439 14.2393 16.63H15.132C15.142 16.7763 15.1839 16.8985 15.2577 16.9965C15.333 17.0931 15.4332 17.1662 15.5582 17.2159C15.6846 17.2642 15.8273 17.2884 15.9864 17.2884C16.1427 17.2884 16.2783 17.2656 16.3934 17.2202C16.5099 17.1747 16.6001 17.1115 16.664 17.0306C16.7279 16.9496 16.7599 16.8566 16.7599 16.7514C16.7599 16.6534 16.7307 16.571 16.6725 16.5043C16.6157 16.4375 16.5319 16.3807 16.4211 16.3338C16.3117 16.2869 16.1775 16.2443 16.0184 16.206L15.5432 16.0867C15.1753 15.9972 14.8849 15.8573 14.6718 15.6669C14.4587 15.4766 14.3529 15.2202 14.3543 14.8977C14.3529 14.6335 14.4232 14.4027 14.5653 14.2053C14.7087 14.0078 14.9055 13.8537 15.1555 13.7429C15.4055 13.6321 15.6895 13.5767 16.0077 13.5767C16.3316 13.5767 16.6143 13.6321 16.8557 13.7429C17.0986 13.8537 17.2876 14.0078 17.4225 14.2053C17.5574 14.4027 17.627 14.6314 17.6313 14.8914H16.7471Z" fill="white"/>
<path d="M10.8564 18V13.6364H11.779V17.2393H13.6498V18H10.8564Z" fill="white"/>
<path d="M7.31197 13.6364L8.19194 15.1236H8.22603L9.11026 13.6364H10.1522L8.82049 15.8182L10.182 18H9.12092L8.22603 16.5106H8.19194L7.29705 18H6.24023L7.606 15.8182L6.2658 13.6364H7.31197Z" fill="white"/>
</svg>
