<svg width="24" height="24" viewBox="0 0 24 24" fill="none" xmlns="http://www.w3.org/2000/svg">
    <path d="M21.9413 7.5955C22.0312 7.68331 21.9911 7.79418 21.9911 7.89425C21.9931 12.4255 21.9936 16.9572 21.9926 21.4884C21.9921 22.9959 20.9547 23.9986 19.3967 23.9991C14.4578 24.0001 9.51897 24.0005 4.58063 23.9991C3.04339 23.9986 2.00096 22.99 2.00096 21.5012C1.99944 15.1706 1.99995 8.84003 2.00096 2.50946C2.00045 1.00298 3.03933 0.00175836 4.59891 0.000777259C7.82222 -0.000694397 11.046 0.000286707 14.2694 0.000777259C14.3577 0.000777259 14.4466 0.00519223 14.535 0.00764499C14.5386 0.131264 14.5452 0.254883 14.5452 0.378012C14.5457 2.2426 14.5462 4.10719 14.5457 5.97227C14.5452 6.95877 15.3082 7.58618 16.0017 7.59403C17.9814 7.61611 19.9616 7.59796 21.9413 7.5955Z" fill="#E9A100"/>
    <path d="M21.9414 7.59549C19.9617 7.59794 17.9815 7.61609 16.0018 7.59402C15.3089 7.58617 14.5453 6.95875 14.5458 5.97225C14.5463 4.10766 14.5463 2.24307 14.5453 0.377996C14.5453 0.254377 14.5387 0.130758 14.5352 0.00762939C15.0752 0.424599 15.4897 0.960281 15.9733 1.43072C16.584 2.02429 17.1621 2.64827 17.7559 3.25754C19.093 4.62765 20.4316 5.99629 21.7677 7.36689C21.8347 7.43508 21.884 7.51896 21.9414 7.59549Z" fill="#FFC033"/>
    <path d="M13.3984 18V13.6364H15.12C15.451 13.6364 15.733 13.6996 15.9659 13.826C16.1989 13.951 16.3764 14.125 16.4986 14.348C16.6222 14.5696 16.6839 14.8253 16.6839 15.115C16.6839 15.4048 16.6214 15.6605 16.4964 15.8821C16.3714 16.1037 16.1903 16.2763 15.9531 16.3998C15.7173 16.5234 15.4318 16.5852 15.0966 16.5852H13.9993V15.8459H14.9474C15.125 15.8459 15.2713 15.8153 15.3864 15.7543C15.5028 15.6918 15.5895 15.6058 15.6463 15.4964C15.7045 15.3856 15.7337 15.2585 15.7337 15.115C15.7337 14.9702 15.7045 14.8437 15.6463 14.7358C15.5895 14.6264 15.5028 14.5419 15.3864 14.4822C15.2699 14.4212 15.1222 14.3906 14.9432 14.3906H14.321V18H13.3984Z" fill="white"/>
    <path d="M12.5193 13.6364V18H11.5967V13.6364H12.5193Z" fill="white"/>
    <path d="M7.42809 18V17.4524L9.60565 14.397H7.42383V13.6364H10.7647V14.1839L8.58505 17.2393H10.769V18H7.42809Z" fill="white"/>
</svg>
